<svg width="288" height="250" viewBox="0 0 288 250" xmlns="http://www.w3.org/2000/svg"><title>chart2</title><g fill="#FFF" fill-rule="evenodd"><path d="M14.418 195.006H.715v54.567h13.703v-54.567zM33.893 185.72H20.19v63.854h13.703V185.72zM53.368 173.42H39.665v76.154h13.703V173.42zM72.843 166.047H59.14v83.526h13.703v-83.526zM92.318 136.298H78.615v113.276h13.703V136.298zM111.793 160.116H98.09v89.458h13.703v-89.458zM131.268 145.608h-13.703v103.965h13.703V145.608zM150.743 155.418H137.04v94.155h13.703v-94.155zM170.218 148.285h-13.703v101.29h13.703v-101.29zM189.693 130.87H175.99v118.704h13.703V130.87zM209.168 150.72h-13.703v98.854h13.703V150.72zM228.643 121.868H214.94v127.705h13.703V121.868zM248.118 90.993h-13.703v158.58h13.703V90.994zM267.593 97.633H253.89v151.94h13.703V97.634zM287.068 73.092h-13.702v176.482h13.702V73.092z"/></g></svg>