<svg xmlns="http://www.w3.org/2000/svg" viewBox="-384 452 230 98"><title>Canvas 1</title><title>Layer 1</title><path fill="#011F74" d="M-376.3 542.9c-.7-.4-1.3-.6-2.2-.6-2.1 0-3.4 1.5-3.4 3.8s1.4 3.8 3.5 3.8c.8 0 1.5-.2 2.2-.7v1.2c-.7.2-1.5.3-2.3.3-2.7 0-4.6-1.8-4.6-4.5s2.1-4.8 4.9-4.8c.7 0 1.3.1 1.9.3v1.2zM-371.5 543.5l-1.4 3.2h2.7l-1.3-3.2zm-1.7 4l-.7 1.7c-.1.3-.2.6-.2.9 0 .2 0 .3.1.5h-1.6c.2-.4.4-.8.7-1.3l3.5-8.1 3.6 8.1c.3.6.4.9.6 1.2h-1.7c.1-.2.1-.4.1-.5 0-.2-.1-.5-.2-.8l-.8-1.8h-3.4zM-364.5 549.2c0 .7.1.9.3 1.3h-1.6c.2-.4.3-.6.3-1.3v-6.9h-.1c-1 0-1.5.1-2.4.5l.5-1.2h5.9l-.4 1.2c-.6-.3-1.1-.5-2.3-.5v6.9zM-359 546.3v2.9c0 .7 0 .9.3 1.3h-1.6c.2-.4.3-.6.3-1.3V543c0-.7-.1-.9-.3-1.3h1.6c-.2.4-.3.6-.3 1.3v2.7h4.2V543c0-.7-.1-.9-.3-1.3h1.6c-.2.4-.3.6-.3 1.3v6.3c0 .7 0 .9.3 1.3h-1.6c.2-.4.3-.6.3-1.3v-2.9h-4.2zM-347.6 542.3c-2 0-3.4 1.5-3.4 3.7 0 2.3 1.5 4 3.5 4 1.9 0 3.2-1.5 3.2-3.7.1-2.4-1.4-4-3.3-4m-.2 8.4c-2.6 0-4.3-1.8-4.3-4.5s2-4.7 4.8-4.7c2.6 0 4.3 1.8 4.3 4.5-.1 2.7-2 4.7-4.8 4.7M-342 550.5c.2-.4.3-.6.3-1.3V543c0-.7-.1-.9-.3-1.3h1.6c-.2.4-.3.6-.3 1.3v6.9h1.1c1 0 1.6-.1 2.5-.6l-.6 1.3h-4.3zM-335.9 550.5c.2-.4.3-.6.3-1.3V543c0-.7-.1-.9-.3-1.3h1.6c-.2.4-.3.6-.3 1.3v6.3c0 .7 0 .9.3 1.3h-1.6zM-326 542.9c-.7-.4-1.3-.6-2.2-.6-2.1 0-3.4 1.5-3.4 3.8s1.4 3.8 3.5 3.8c.8 0 1.5-.2 2.2-.7v1.2c-.7.2-1.5.3-2.3.3-2.7 0-4.6-1.8-4.6-4.5s2.1-4.8 4.9-4.8c.7 0 1.3.1 1.9.3v1.2zM-317 544.1c0-.8-.5-1.4-1.3-1.6-.4-.1-.6-.1-1.2-.1h-.1v3.6c1.6 0 2.6-.8 2.6-1.9m-2.6 5.2c0 .7.1.9.3 1.3h-1.6c.2-.4.3-.6.3-1.3V543c0-.7 0-.9-.3-1.3h1.7c1.1 0 1.8.2 2.4.6.6.4.9 1 .9 1.7 0 1.1-.8 2-2.2 2.5l.2.3c1.2 1.5 2.1 2.7 2.8 3.4l.2.2c-.3.1-.5.2-.6.2-.4 0-.9-.5-1.9-1.6l-2.3-2.5v2.8zM-309.6 545.6l-.6 1.1c-.5-.3-.9-.4-1.7-.4h-.8v3.6h1.2c1 0 1.5-.1 2.5-.4l-.5 1.1h-4.5c.2-.4.3-.6.3-1.3V543c0-.7 0-.9-.3-1.3h4.9l-.6 1.1c-.4-.3-.9-.3-1.8-.3h-1.2v3.2h3.1zM-307.8 550.5c.2-.4.3-.6.3-1.3V543c0-.7-.1-.9-.3-1.3h1.6c-.2.4-.3.6-.3 1.3v6.9h1.1c1 0 1.6-.1 2.5-.6l-.6 1.3h-4.3zM-301.7 550.5c.2-.4.3-.6.3-1.3V543c0-.7-.1-.9-.3-1.3h1.6c-.2.4-.3.6-.3 1.3v6.3c0 .7 0 .9.3 1.3h-1.6zM-294 545.6l-.6 1.1c-.5-.3-.9-.4-1.7-.4h-.8v3.6h1.2c1 0 1.5-.1 2.5-.4l-.5 1.1h-4.5c.2-.4.3-.6.3-1.3V543c0-.7 0-.9-.3-1.3h4.9l-.6 1.1c-.4-.3-.9-.3-1.8-.3h-1.2v3.2h3.1zM-290.8 549.2c0 .7 0 .9.3 1.3h-1.6c.2-.4.3-.6.3-1.3V543c0-.7-.1-.9-.3-1.3h4.9l-.6 1.1c-.4-.3-.9-.4-1.5-.4h-1.4v3.3h3.1l-.6 1.1c-.3-.2-.7-.3-1.4-.3h-1.1v2.7zM-278.6 542.8c-.6-.4-1.1-.6-1.7-.6-.9 0-1.4.5-1.4 1.3 0 .4.1.7.3 1 .3.3.5.5 1.3 1s1 .7 1.3.9c.4.4.6 1 .6 1.6 0 1.5-1.3 2.6-2.9 2.6-.6 0-1.1-.1-1.7-.3V549c.7.6 1.2.9 1.9.9.9 0 1.7-.7 1.7-1.7 0-.8-.2-1-1.5-1.9-.7-.5-1.1-.7-1.4-1.1-.4-.4-.6-.9-.6-1.5 0-1.4 1.2-2.3 2.8-2.3.5 0 .9.1 1.4.2v1.2zM-272.4 545.6l-.6 1.1c-.5-.3-.9-.4-1.7-.4h-.8v3.6h1.2c1 0 1.5-.1 2.5-.4l-.5 1.1h-4.5c.2-.4.3-.6.3-1.3V543c0-.7 0-.9-.3-1.3h4.9l-.6 1.1c-.4-.3-.9-.3-1.8-.3h-1.2v3.2h3.1zM-266.7 544.1c0-.8-.5-1.4-1.3-1.6-.4-.1-.6-.1-1.2-.1h-.1v3.6c1.5 0 2.6-.8 2.6-1.9m-2.6 5.2c0 .7.1.9.3 1.3h-1.6c.2-.4.3-.6.3-1.3V543c0-.7 0-.9-.3-1.3h1.7c1.1 0 1.8.2 2.4.6.6.4.9 1 .9 1.7 0 1.1-.8 2-2.2 2.5l.2.3c1.2 1.5 2.1 2.7 2.8 3.4l.2.2c-.3.1-.5.2-.6.2-.4 0-.9-.5-1.9-1.6l-2.3-2.5v2.8zM-261.8 550.5l-2.6-7.2c-.3-.8-.5-1.3-.8-1.7h1.6v.3c0 .3.1.7.3 1.3l2 5.7 2-5.6c.2-.5.3-.9.3-1.2 0-.2 0-.3-.1-.5h1.5c-.3.4-.5.9-.8 1.8l-2.6 7.1h-.8zM-256.6 550.5c.2-.4.3-.6.3-1.3V543c0-.7-.1-.9-.3-1.3h1.6c-.2.4-.3.6-.3 1.3v6.3c0 .7 0 .9.3 1.3h-1.6zM-247.2 542.9c-.7-.4-1.3-.6-2.2-.6-2.1 0-3.4 1.5-3.4 3.8s1.4 3.8 3.5 3.8c.8 0 1.5-.2 2.2-.7v1.2c-.7.2-1.5.3-2.3.3-2.7 0-4.6-1.8-4.6-4.5s2.1-4.8 4.9-4.8c.7 0 1.3.1 1.9.3v1.2zM-241.4 545.6l-.6 1.1c-.5-.3-.9-.4-1.7-.4h-.8v3.6h1.2c1 0 1.5-.1 2.5-.4l-.5 1.1h-4.5c.2-.4.3-.6.3-1.3V543c0-.7 0-.9-.3-1.3h4.9l-.6 1.1c-.4-.3-.9-.3-1.8-.3h-1.2v3.2h3.1zM-235.6 542.8c-.6-.4-1.1-.6-1.7-.6-.9 0-1.4.5-1.4 1.3 0 .4.1.7.3 1 .3.3.5.5 1.3 1s1 .7 1.3.9c.4.4.6 1 .6 1.6 0 1.5-1.3 2.6-2.9 2.6-.6 0-1.1-.1-1.7-.3V549c.7.6 1.2.9 1.9.9.9 0 1.7-.7 1.7-1.7 0-.8-.2-1-1.5-1.9-.7-.5-1.1-.7-1.4-1.1-.4-.4-.6-.9-.6-1.5 0-1.4 1.2-2.3 2.8-2.3.5 0 .9.1 1.4.2v1.2zM-290.7 498c-3.5-2-6.9-2.8-11.2-2.8-10.4 0-17 7.1-17 18.1 0 10.7 7 18.2 17.3 18.2 4.1 0 7.4-1 11.3-3.5v5.6c-3.8 1-7.6 1.6-11.5 1.6-13.7 0-23.1-8.7-23.1-21.2 0-12.9 10.7-22.7 24.8-22.7 3.5 0 6.5.6 9.4 1.6v5.1zM-264.9 526c-4.8-4.9-8.2-11-8.2-11 7.3-2.4 11.3-6.6 11.3-11.8 0-3.2-1.6-6.1-4.6-8.1-3.1-2-6.5-2.8-12.4-2.8h-8.8c1.1 1.8 1.3 2.9 1.3 6.1v29.9c0 3.3-.2 4.3-1.3 6.1h8.1c-1.1-1.9-1.3-2.9-1.3-6.1V515c8 10.1 9.8 12.1 9.8 12.1 3.3 3.5 9.7 9.5 20.7 8.8 8.3-.6 14.8-5.4 14.8-12.4 0-2.8-1.1-5.5-3.2-7.5-1.3-1.3-2.6-2.2-6.5-4.4-3.7-2.2-5.1-3.3-6.4-4.8-1.1-1.2-1.7-2.9-1.7-4.6 0-3.9 2.8-6.3 7.3-6.3 3 0 5.5.8 8.5 2.6v-5.6c-2.2-.6-4.5-.9-6.9-.9-8.4 0-14.2 4.6-14.2 11 0 2.5 1.1 5 3.2 7 1.6 1.6 3.3 2.9 6.9 5.1 6.3 3.7 7.7 5 7.8 8.9 0 4-3.7 8.1-8.4 8.5-6 .6-10.9-1.5-15.8-6.5m-15.8-13.1v-17.2h.5c3 0 4.1.1 6 .5 4 .8 6.6 3.7 6.6 7.5 0 5.4-5.3 9.1-13.1 9.2M-334.9 454.3c-.2.2-.8.4-1.6.8-2.1 1.1-4.7 2.8-9.2 6.5-9.7 8.1-23 21.9-25 41-2 18.8 3.5 25.8 9.1 27.1 5.5 1.3 17.3-3.7 23.1-14.8 6.3-12.2 3.6-27.5 2.5-31.9-.9-3.6-1.6-5.9-1.8-9.4-.3-5.2 2.9-12.3 4.7-14.8 1-1.4 2.8-1.9 3.7.7 3.8 11.5 6.3 36.3-5.2 55.3-11.4 18.8-25.5 22.9-34.6 20.7-7.8-1.8-15-10-13.2-25.9 1.8-15.9 9.5-26.7 14.9-32.9 14.4-16.6 30.4-22.6 32.5-22.8.2 0 .3.2.1.4z"/><path fill="#011F74" d="M-353.2 510.7c-5.1 1.1-7.8 3.9-8.8 5.1-2.4 2.8-3.9 7.7-.8 10.3 2.9 2.5 6.7.5 9.1-1.3 2-1.5 4.8-4.8 7.1-9.1 1.9-3.6 3.2-6.5 3.6-8.2.2-.7.2-1.2.1-1.6-.2-.6-.7-.6-1.3 0-.2.2-.3.4-.5.7-1.3 1.5-3.5 3-8.5 4.1zM-236.6 533.6c0-.1 0-.2-.1-.2l-.1-.1H-237.1v.5h.3c.1 0 .1 0 .1-.1l.1-.1m-.1 1.3v-.4c0-.1 0-.3-.1-.4-.1-.1-.1-.2-.2-.2h-.1v.9h-.4v-2h.8c.2 0 .4 0 .5.1.1.1.2.2.2.3v.2c0 .1 0 .2-.1.3-.1.1-.1.1-.2.1l.3.3c.1.1.1.2.1.4v.3h-.8zm1.2-.9c0-.4-.1-.7-.4-1-.3-.3-.6-.4-1-.4s-.7.1-1 .4c-.3.3-.4.6-.4 1s.1.7.4 1c.3.3.6.4 1 .4s.7-.1 1-.4c.3-.3.4-.7.4-1m.4 0c0 .5-.2 1-.5 1.3-.4.4-.8.5-1.3.5s-1-.2-1.3-.5c-.4-.4-.5-.8-.5-1.3s.2-1 .5-1.3c.4-.4.8-.5 1.3-.5s1 .2 1.3.5c.4.3.5.7.5 1.3"/><path fill="#00B5E2" d="M-218 498.9v5.8c0 2.3.1 2.3 2.3 2.4v.8c-1.3 0-2.6-.1-3.9-.1-1.1 0-2.2.1-3.3.1v-.8c1.8-.1 1.7-.6 1.7-2.2V499h-1.6v-1h1.6v-1.7c0-1 .1-2.1.7-2.9.9-1.3 2.6-1.6 4.1-1.6 1.1 0 3 .3 3 1.8 0 .7-.5 1.3-1.3 1.3-1.6 0-1.2-2.2-2.4-2.2-.8 0-1.1.9-1.1 1.5v3.8h2.9v1h-2.7z"/><path fill="#00B5E2" d="M-208.8 502c-1.2.5-2.8 1.2-2.8 2.7 0 .8.3 1.6 1.2 1.6.7 0 1.6-.7 1.6-1.5V502zm4.9 4.6c-.5.9-1.9 1.5-2.9 1.5-1.1 0-1.8-.5-2.1-1.6-.9.9-2.1 1.6-3.3 1.6-1.5 0-2.7-1-2.7-2.6 0-2.4 2.7-3.2 4.8-4 .7-.3 1.3-.3 1.3-1.2 0-1-.1-2.1-1.4-2.1-.9 0-1.2.4-1.5 1.2-.3.8-.6 1.5-1.5 1.5-.7 0-1.3-.5-1.3-1.3 0-2 3.1-2.4 4.6-2.4 2 0 4.2.5 4.2 2.9v4.8c0 .4 0 1.2.5 1.2.4 0 .5-.1.8-.3l.5.8zM-202.9 493.5c0-1 .8-1.8 1.8-1.8s1.8.8 1.8 1.8-.8 1.8-1.8 1.8-1.8-.9-1.8-1.8m3.6 11.4c0 .4 0 1.5.2 1.8.3.4.9.4 1.3.4v.8c-1 0-1.9-.1-2.9-.1-1.1 0-2.1.1-3.2.1v-.8c.4 0 1-.1 1.3-.4.2-.3.2-1.4.2-1.8v-4.1c0-1.4-.3-1.9-1.5-1.9v-.8c1.5-.1 3.1-.3 4.6-.7v7.5zM-193.9 498.7v6c0 .9 0 2 .9 2 .6 0 1.1-.5 1.4-.9l.8.5c-.8 1.2-1.9 1.8-3.4 1.8-2.3 0-2.8-1.4-2.8-3.4v-6h-1.3v-.7c1.7-.5 2.9-1.7 3.4-3.5h1v3.2h2.4v.9h-2.4zM-186.2 499.3c.7-1.3 2.2-1.9 3.6-1.9 1.7 0 3.3 1 3.3 2.9v4.7c0 .4 0 1.5.2 1.8.3.4.9.4 1.3.4v.8c-.9 0-1.9-.1-2.8-.1-1.1 0-2.2.1-3.3.1v-.8c.4 0 1-.1 1.3-.4.2-.3.2-1.4.2-1.8v-4c0-1-.4-2.1-1.6-2.1-1.4 0-2.2 1.8-2.2 2.9v3c0 .4 0 1.5.2 1.8.3.4.9.4 1.3.4v.8c-1 0-2-.1-3.1-.1-1 0-2 .1-3 .1v-.8c.4 0 1-.1 1.3-.4.2-.3.2-1.4.2-1.8V495c0-1.3-.1-1.7-1.5-1.8v-.8l4.6-.7v7.6zM-177.6 506c0-1.1.9-1.9 1.9-1.9 1 0 1.9.8 1.9 1.9 0 1.1-.8 2-1.9 2-1 0-1.9-.9-1.9-2z"/><path fill="#00AB8E" d="M-216.1 523.6c-1.2.5-2.8 1.2-2.8 2.7 0 .8.3 1.6 1.2 1.6.7 0 1.6-.7 1.6-1.5v-2.8zm4.9 4.6c-.5.9-1.9 1.5-2.9 1.5-1.1 0-1.8-.5-2.1-1.6-.9.9-2.1 1.6-3.3 1.6-1.5 0-2.7-1-2.7-2.6 0-2.4 2.7-3.2 4.8-4 .7-.3 1.3-.3 1.3-1.2 0-1-.1-2.1-1.4-2.1-.9 0-1.2.4-1.5 1.2-.3.8-.6 1.5-1.5 1.5-.7 0-1.3-.5-1.3-1.3 0-2 3.1-2.4 4.6-2.4 2 0 4.2.5 4.2 2.9v4.8c0 .4 0 1.2.5 1.2.4 0 .5-.1.8-.3l.5.8z"/><path fill="#00AB8E" d="M-202 527.3c-1.1 1.6-2.7 2.4-4.6 2.4-3.1 0-5.3-2.1-5.3-5.2 0-3.4 2.7-5.5 5.9-5.5 1.3 0 3.8.6 3.8 2.3 0 .7-.5 1.3-1.2 1.3-1.9 0-1.2-2.6-2.9-2.6-1.9 0-2.1 2.8-2.1 4.2 0 1.9.5 4.3 2.9 4.3 1.3 0 2-.8 2.8-1.7l.7.5zM-197.7 520.3v6c0 .9 0 2 .9 2 .6 0 1.1-.5 1.4-.9l.8.5c-.8 1.2-1.9 1.8-3.3 1.8-2.3 0-2.8-1.4-2.8-3.4v-6h-1.3v-.7c1.7-.5 2.9-1.7 3.4-3.5h1v3.2h2.4v1h-2.5z"/><path fill="#00AB8E" d="M-193.6 515.1c0-1 .8-1.8 1.8-1.8s1.8.8 1.8 1.8-.8 1.8-1.8 1.8-1.8-.9-1.8-1.8m3.6 11.3c0 .4 0 1.5.2 1.8.3.4.9.4 1.3.4v.8c-1 0-1.9-.1-2.9-.1-1.1 0-2.1.1-3.2.1v-.8c.4 0 1-.1 1.3-.4.2-.3.2-1.4.2-1.8v-4.1c0-1.4-.3-1.9-1.5-1.9v-.8c1.5-.1 3.1-.3 4.6-.7v7.5zM-185.4 524.2c0 1.8.2 4.5 2.5 4.5 2 0 2.1-3 2.1-4.4 0-1.6-.1-4.5-2.2-4.5-2.2.1-2.4 2.8-2.4 4.4m8 .1c0 3.2-2.6 5.4-5.6 5.4-3.1 0-5.9-2.1-5.9-5.4 0-3.1 2.8-5.3 5.8-5.3 3.1-.1 5.7 2.1 5.7 5.3"/><path fill="#00AB8E" d="M-173 526.4c0 .4 0 1.5.2 1.8.3.4.9.4 1.3.4v.8c-1 0-2-.1-3-.1s-2 .1-3 .1v-.8c.4 0 1-.1 1.3-.4.2-.3.2-1.4.2-1.8V523c0-1.3 0-2.4-1.5-2.4v-.8c1.5-.1 2.9-.4 4.4-.9l.3 2.1c.9-1.2 2-2.1 3.5-2.1 1 0 2.2.4 2.8 1.2.6.8.6 2.2.6 3.2v3.1c0 .4 0 1.5.2 1.8.3.4.9.4 1.3.4v.8c-.9 0-1.8-.1-2.8-.1-1.1 0-2.2.1-3.3.1v-.8c.4 0 1 0 1.3-.4.2-.3.2-1.4.2-1.8v-3c0-1.1.1-3-1.5-3-.9 0-1.6.7-1.9 1.5-.3.7-.3 1.7-.3 2.5v2zM-164.4 527.6c0-1.1.9-1.9 1.9-1.9 1 0 1.9.8 1.9 1.9 0 1.1-.8 2-1.9 2-1-.1-1.9-.9-1.9-2z"/><path fill="#C4D600" d="M-222.5 541l4.3-.9.2 2.3c.6-1.1 1.7-2.3 3-2.3 1 0 1.8.8 1.8 1.8 0 .8-.6 1.2-1.4 1.2-1.3 0-1.1-1-1.9-1-1.3 0-1.4 2.3-1.4 3.1v2.4c0 1.7 0 2.2 1.7 2.2v.8c-1.1 0-2.2-.1-3.3-.1-1 0-2 .1-3 .1v-.8c.4 0 1-.1 1.3-.4.2-.3.2-1.4.2-1.8v-3.9c0-1.5-.4-1.9-1.6-2v-.7zM-206.9 544c.5 0 .7-.2.7-.7 0-1.1-.7-2.4-1.9-2.4-1.4 0-1.9 1.8-1.9 3.1h3.1zm-3.2 1c0 2.1.6 4.5 3.1 4.5 1.4 0 2-.7 2.9-1.6l.7.6c-1 1.6-2.7 2.3-4.5 2.3-3.1 0-5.5-2-5.7-5.2-.1-3.3 2.4-5.6 5.6-5.6 2.5 0 4.8 1.7 4.8 4.4 0 .7-.4.6-.9.6h-6zM-201.8 550.5h-.9l-.1-3.2h1c.6 1.3 1.6 2.6 3.2 2.6.9 0 1.9-.5 1.9-1.5 0-1.1-1.4-1.4-2.2-1.6-1.9-.6-3.6-1.3-3.6-3.6 0-2.2 1.8-3.2 3.8-3.2 1.1 0 1.9.3 2.8.8l.4-.8h.9v3.1h-.9c-.5-1.1-1.4-2.2-2.8-2.2-.7 0-1.7.4-1.7 1.2 0 1 1.1 1.2 1.9 1.5 1.9.6 4 1.3 4 3.7 0 2.4-2 3.4-4.1 3.4-1 0-2.3-.3-3.1-1l-.5.8zM-181.4 550.5h-4l-.2-2c-1 1.6-2.2 2.3-4.1 2.3-2.4 0-3-1.4-3-3.5v-3.8c0-.4 0-1.5-.2-1.8-.3-.3-.9-.3-1.3-.4v-.8l4.6-.3v6.5c0 1.2.1 2.5 1.6 2.5 1.8 0 2.2-1.8 2.2-3.3v-2.5c0-.4 0-1.5-.2-1.8-.2-.4-.9-.3-1.3-.4v-.8l4.6-.3v6.8c0 .5.1 1.2.2 1.6.1.3.5 1.1 1.1 1.1v.9zM-179.5 537.9c0-1.3 0-1.9-1.5-2v-.8l4.6-.7v13.1c0 1.5-.1 2.1 1.5 2.2v.8c-1 0-2-.1-3-.1-1.1 0-2.2.1-3.3.1v-.8c1.8 0 1.7-.5 1.7-2.2v-9.6zM-170.8 541.4v6c0 .9 0 2 .9 2 .6 0 1.1-.5 1.4-.9l.8.5c-.8 1.2-1.9 1.8-3.3 1.8-2.3 0-2.8-1.4-2.8-3.4v-6h-1.3v-.7c1.7-.5 2.9-1.7 3.4-3.5h1v3.2h2.4v1h-2.5zM-166.4 550.5h-1l-.1-3.2h.9c.6 1.3 1.6 2.6 3.2 2.6.9 0 1.9-.4 1.9-1.5s-1.4-1.4-2.2-1.6c-1.9-.6-3.6-1.3-3.6-3.6 0-2.2 1.8-3.2 3.8-3.2 1.1 0 1.9.3 2.8.8l.4-.8h.9v3.1h-.9c-.5-1.1-1.4-2.2-2.8-2.2-.7 0-1.7.4-1.7 1.2 0 1 1.1 1.2 1.9 1.5 1.9.6 4 1.3 4 3.7 0 2.4-2 3.4-4.1 3.4-1 0-2.3-.3-3.1-1l-.3.8zM-158.4 548.8c0-1.1.9-1.9 1.9-1.9 1 0 1.9.8 1.9 1.9 0 1.1-.8 2-1.9 2-1-.1-1.9-1-1.9-2z"/></svg>