<svg width="233" height="30" viewBox="0 0 233 30" xmlns="http://www.w3.org/2000/svg"><title>crs-education-logo</title><g fill="#00BCE7" fill-rule="evenodd"><path d="M0 1.17v28.345h21.15V25.06H4.965v-7.613h14.168v-4.454H4.964v-7.37H20.95V1.17H0zM36.97 5.704H31.4V24.98h5.57c5.935 0 9.81-4.01 9.81-9.598 0-5.59-3.875-9.678-9.81-9.678m0 23.81H26.438V1.17H36.97c8.88 0 15.017 6.114 15.017 14.132 0 8.017-6.137 14.212-15.016 14.212M79.31 17.245c0 8.464-4.763 12.715-12.148 12.715-7.347 0-12.03-4.25-12.03-12.473V1.17h4.965v16.115c0 5.264 2.704 8.1 7.144 8.1 4.4 0 7.106-2.674 7.106-7.898V1.17h4.964v16.075z"/><path d="M66.57 8.21c.663.393 1.518.173 1.91-.493.392-.665.173-1.523-.49-1.917l-7.467-4.43c-.663-.394-1.52-.174-1.91.49-.393.666-.174 1.525.49 1.918l7.467 4.43z"/><path d="M66.57 5.8c-.664.394-.883 1.252-.49 1.917.39.666 1.247.886 1.91.492l7.467-4.432c.663-.393.882-1.252.49-1.917-.392-.664-1.247-.884-1.91-.49L66.568 5.8zM96.826 30c-8.234 0-14.37-6.438-14.37-14.617 0-8.1 6.014-14.7 14.572-14.7 5.207 0 8.355 1.822 11.06 4.413l-3.19 3.685c-2.26-2.104-4.682-3.52-7.91-3.52-5.41 0-9.325 4.454-9.325 10.04 0 5.59 3.916 10.125 9.324 10.125 3.472 0 5.69-1.418 8.113-3.685l3.19 3.24C105.34 28.055 102.113 30 96.825 30M124.11 6.92l-4.845 11.336h9.73L124.11 6.92zm14.813 22.594h-5.247l-2.865-6.842h-13.36l-2.907 6.842h-5.086L121.89.967h4.6l12.433 28.547zM150.464 29.514h-5.005V5.784h-8.96V1.17h22.925v4.615h-8.96v23.73zM169.314 29.514h-4.964V1.17h4.964v28.344zM188.726 5.26c-5.61 0-9.527 4.494-9.527 10.04 0 5.55 3.996 10.125 9.606 10.125 5.61 0 9.527-4.495 9.527-10.043 0-5.548-3.996-10.123-9.607-10.123m0 24.74c-8.678 0-14.733-6.6-14.733-14.617 0-8.018 6.136-14.7 14.813-14.7 8.678 0 14.734 6.6 14.734 14.618 0 8.02-6.136 14.7-14.814 14.7M227.675 1.17h4.883v28.344h-4.156l-15.58-20.166v20.166h-4.886V1.17h4.603l15.135 19.598v-19.6z"/></g></svg>