<svg width="130" height="130" viewBox="0 0 130 130" xmlns="http://www.w3.org/2000/svg"><title>emergencies</title><g fill="none" fill-rule="evenodd"><path d="M129.866 65.067c0 35.862-29.072 64.933-64.933 64.933C29.07 130 0 100.93 0 65.067 0 29.205 29.07.134 64.933.134c35.86 0 64.933 29.07 64.933 64.933" fill="#B8D108"/><path d="M33.474 59.63h-3.396V54.8h3.396V41.84h-7.796c-2.253 4.936-3.947 10.375-5.12 16.3-1.15 5.933-1.73 11.434-1.73 16.512 0 .973-.156 1.454-.438 1.433-.297-.016-.784.02-1.462.12-.61 1.423-.61 2.842 0 4.275l8.173 2.587c.564 4.235 4.08 7.54 8.374 7.706v-4.74c-1.892 0-3.432-1.56-3.432-3.48 0-1.914 1.54-3.47 3.43-3.47h.002V59.628zm0-4.83h3.688v-6.94h2.72v-6.02h-6.408V54.8zm6.407 11.92h-2.718v-7.09h-3.688v19.453c1.89 0 3.43 1.556 3.43 3.472 0 1.918-1.54 3.48-3.43 3.48v4.74c.11.002.22.004.333.004 2.353 0 4.493-.945 6.074-2.48V66.72zm2.798-18.86v6.94h7.005v4.83h-7.005v7.09H39.88V88.3c1.33-1.294 2.264-3 2.588-4.917h43.74V55.728H78.3v-11.36h7.907v-2.41l-.85-.118-1.54-3.06H80.76l-1.69 3.06H39.88v6.02h2.798zM95.73 51.94v27.14c-1.89 0-3.432 1.557-3.432 3.473 0 1.918 1.542 3.48 3.432 3.48v4.742c-4.207-.136-7.684-3.298-8.377-7.394h-1.147V55.728h7.908l-4.548-11.36h-3.36v-2.41l4.843.664 4.68 9.32zm0 38.835v-4.743c1.892 0 3.43-1.56 3.43-3.48 0-1.915-1.538-3.47-3.43-3.47V51.94l1.823 3.63 13.918 6.34v14.294l-2.453.988v3.85c-.758.195-1.72.528-2.91.952-.5.188-.945.377-1.336.575-.35 4.58-4.15 8.21-8.758 8.21-.093 0-.185 0-.282-.003z" fill="#FFF"/></g></svg>