<svg width="130" height="130" viewBox="0 0 130 130" xmlns="http://www.w3.org/2000/svg"><title>food</title><g fill="none" fill-rule="evenodd"><path d="M129.866 65.067c0 35.862-29.072 64.933-64.933 64.933C29.07 130 0 100.93 0 65.067 0 29.205 29.07.134 64.933.134c35.86 0 64.933 29.07 64.933 64.933" fill="#14A6DB"/><path d="M62.004 103.333c4.327 0 8.216-.792 11.6-2.16 1.208-.442 2.085-.937 2.563-1.36.23-.2.325-.332.356-.39l.033-3.2c-4.208 2.05-9.056 3.206-14.553 3.206-4.93 0-9.627-1.106-13.892-3.148l.073 3.253c.21.236.635.577 1.382.954 3.834 1.813 8.03 2.843 12.44 2.843zM30.94 65.11c-.08-.515-.12-1.042-.12-1.58 0-.996.14-1.957.402-2.863-1.033.35-1.905.738-2.56 1.17-.21.14-.4.287-.565.433-.354.32-.43.555-.43.695 0 .172.358 1.092 3.274 2.146zm61.616.404c-.796-1.696-2.645-2.715-4.605-2.212-1.568.405-2.16-1.993-.593-2.395.427-.112.854-.177 1.273-.2-.04-1.982-.952-3.746-2.363-4.908l-5.357 7.667c.12.17.238.35.345.536.823 1.42-1.27 2.674-2.09 1.255-1.467-2.543-5.17-2.885-6.866-.186-.874 1.39-2.92.052-2.046-1.334.85-1.352 2.016-2.228 3.294-2.672l2.894-5.785c-1.24-1.35-2.6-2.235-4.748-2.235-.576 0-1.184.056-1.746.086.054-.637.145-1.323.145-1.98 0-3.58-2.848-6.483-6.365-6.483-4.223 0-5.887 3.097-6.304 6.555 2.58-.124 5.235 1.174 6.607 3.837.75 1.46-1.402 2.61-2.152 1.15-1.757-3.41-6.723-3.426-8.248.31-.62 1.525-2.863.572-2.242-.948.736-1.808 2.007-3.045 3.48-3.726-.415-.093-.845-.148-1.298-.148-3.128 0-4.795 1.82-5.94 4.266.942.18 1.857.56 2.684 1.148 1.327.947-.07 2.973-1.395 2.026-2.29-1.636-5.65-.758-6.787 2.017-.62 1.523-2.863.572-2.24-.95.946-2.31 2.878-3.76 5.014-4.21-.872-.364-1.78-.585-2.943-.585-4.46 0-8.075 3.685-8.075 8.223 0 .85.127 1.676.364 2.442l.018.06c2.608.654 5.724 1.147 8.97 1.516 1.586.183 3.18.33 4.74.453 1.06-3.152 4.545-5.206 8.313-5.206 2.464 0 4.73.85 6.33 2.276 1.218 1.088-.38 2.946-1.6 1.863-1.114-.997-2.797-1.668-4.73-1.668-2.734 0-4.84 1.3-5.735 2.912 5.864.366 10.748.387 11.758.387 1.41 0 10.42-.035 19.078-1.016 4.213-.477 8.206-1.165 11.16-2.136zm-1.778-5.736c.018.248.03.5.03.752 0 .076-.002.147-.008.218 1.57.58 2.872 1.835 3.56 3.474 1.525-.794 1.75-1.41 1.75-1.555 0-.12-.16-.578-1.124-1.195-.543-.348-1.34-.744-2.507-1.16-.533-.187-1.1-.363-1.702-.534zm-6.6-7.54l16.34-25.144c1.833-2.678 5.847.074 4.014 2.75L87.454 53.84c1.22.955 2.183 2.226 2.767 3.69 5.133 1.212 8.872 3.028 8.872 5.746 0 1.348-.917 2.473-2.47 3.415-2.08 11.64-7.8 22.17-17.272 27.953v4.654c0 1.992-2.058 3.452-4.816 4.432-3.74 1.46-7.945 2.27-12.614 2.27-4.864 0-9.478-1.106-13.674-3.032-1.897-.918-3.167-2.116-3.167-3.67v-4.6c-9.275-5.496-16.048-15.563-18.01-28.266-1.312-.886-2.07-1.93-2.07-3.156 0-1.23.706-2.14 1.382-2.728 1.312-1.14 3.614-2.042 6.45-2.76 1.875-2.878 5.122-4.78 8.816-4.78 1.407 0 2.754.278 3.983.78 1.52-2.646 4.376-4.43 7.648-4.43.525 0 1.042.045 1.542.133.817-4.022 4.37-7.05 8.634-7.05 4.686 0 8.518 3.66 8.79 8.277 1.974.183 3.758 1.013 5.138 2.275l11.61-22.775c1.542-2.852 5.824-.537 4.28 2.317L82.297 51.98c.648.018 1.277.107 1.88.26zm-5.74 9.318l4.34-7.07c-.226-.027-.456-.042-.687-.042-.41 0-.78.037-1.126.1l-3.52 6.6c.34.11.67.244.994.412z" fill="#FFF"/></g></svg>