<svg width="130" height="130" viewBox="0 0 130 130" xmlns="http://www.w3.org/2000/svg"><title>health</title><g fill="none" fill-rule="evenodd"><path d="M129.866 65.067c0 35.862-29.072 64.933-64.933 64.933C29.07 130 0 100.93 0 65.067 0 29.205 29.07.134 64.933.134c35.86 0 64.933 29.07 64.933 64.933" fill="#00AD91"/><g transform="translate(24 27)" fill="#FFF"><path d="M82 49.777c0-6.817-5.552-12.344-12.402-12.344S57.194 42.96 57.194 49.777c0 5.726 3.92 10.54 9.233 11.935-1.218 6.955-5.538 14.195-18.252 14.195-5.78 0-10.37-1.758-13.638-5.226-3.662-3.884-5.15-9.318-5.753-13.238 1.16-1.715 2.103-4.254 2.34-6.29 15.017-7.482 19.42-39.866 19.452-40.19.103-1.028.346-3.43-6.744-7.208C42.964 1.504 40.777 0 38.352 0c-3.244 0-5.88 2.625-5.88 5.852 0 3.226 2.637 5.85 5.88 5.85 1.535 0 3.022-.61 4.12-1.687.79.486 1.458.943 1.886 1.29-1.154 7.54-7.544 34.46-19.054 35.257-11.51-.796-17.9-27.717-19.055-35.256.427-.347 1.096-.804 1.886-1.29 1.097 1.075 2.584 1.687 4.12 1.687 3.242 0 5.88-2.625 5.88-5.85 0-3.228-2.638-5.853-5.88-5.853-2.425 0-4.612 1.503-5.48 3.755-7.09 3.778-6.848 6.18-6.745 7.21.034.32 4.437 32.706 19.452 40.187.275 2.342 1.547 5.683 3.278 7.453.748 4.678 2.62 11.252 7.29 16.22C34.523 79.584 40.62 82 48.175 82c18.78 0 23.357-12.91 24.437-20.248C78.005 60.41 82 55.56 82 49.777zM69.5 56c-3.59 0-6.5-2.91-6.5-6.5s2.91-6.5 6.5-6.5 6.5 2.91 6.5 6.5-2.91 6.5-6.5 6.5z"/><circle cx="69" cy="50" r="3"/></g></g></svg>