<svg width="87" height="87" viewBox="0 0 87 87" xmlns="http://www.w3.org/2000/svg"><title>icon-give-plain</title><g fill="#FFF" fill-rule="evenodd"><path d="M53.68 29L43.034 39.648 32.385 29c-2.157-2.156-2.157-5.666 0-7.823 1.08-1.08 2.51-1.647 4.043-1.62 1.526.037 2.933.68 3.96 1.81l1.95 2.143c.005.004.01.005.015.01.016.016.022.038.04.053.052.047.115.07.174.105.035.02.066.045.103.06.067.03.135.04.205.05.053.01.104.024.158.024.054 0 .105-.013.158-.023.07-.013.14-.023.207-.052.035-.015.067-.04.1-.06.06-.033.124-.057.177-.105.016-.015.023-.037.038-.053.005-.005.01-.006.015-.01l1.95-2.144c1.028-1.13 2.433-1.772 3.96-1.808 1.518-.036 2.962.54 4.044 1.62 1.045 1.044 1.62 2.433 1.62 3.91 0 1.478-.575 2.868-1.62 3.912m1.337-9.16c-1.45-1.45-3.36-2.245-5.425-2.17-2.048.047-3.934.91-5.312 2.424l-1.247 1.37-1.246-1.37c-1.38-1.516-3.267-2.377-5.315-2.425-2.03-.064-3.974.722-5.424 2.17-2.893 2.895-2.893 7.604 0 10.497l11.317 11.316c.185.184.427.277.668.277.242 0 .484-.093.668-.277l11.317-11.316c1.4-1.402 2.174-3.266 2.174-5.248 0-1.984-.772-3.848-2.173-5.25"/><path d="M83.377 22.902c-1.844 4.24-4.358 9.997-4.643 10.577-.193.392-.348.793-.498 1.18-.184.477-.358.924-.54 1.18-.424.588-4.142 6.425-4.567 7.123-.167.28-.307.673-.488 1.173-.268.75-.72 2.006-1.205 2.308-.73.452-1.782 1.517-3.368 3.13-.935.945-1.995 2.018-3.22 3.2-1.33 1.285-2.644 2.264-3.8 3.128-1.667 1.243-3.11 2.32-4.11 3.88-.588.913-.795 2.893-.8 5.172-.007.72.012 1.53.042 2.34h-11.72V63.64c.038-.328.075-.615.112-.854.25-1.61.51-2.863.757-3.883.3-1.21.58-2.09.814-2.82.142-.43.262-.804.358-1.165.307-1.148 3.703-5.25 5.55-6.873 1.707-1.503 5.433-3.23 7.38-3.652 1.926-.422 4.75-1.282 7.015-3.88l.042-.05.034-.056.316-.508c.46-.743.972-1.568 1.486-2.33.614-.908 1.23-1.723 1.766-2.194.266-.235.58-.425.916-.546.404-.147.834-.192 1.24-.097.2.047.395.128.577.246.04.026.08.055.124.086.063.05.128.104.187.166.432.432.592.595-1.635 4.086l-.017.025-.01.023c-.43.796-.695 1.443-.91 1.966-.118.283-.217.53-.313.716-.142.283-.254.614-.362.936-.083.246-.22.655-.305.768l-.247.225c-1.578 1.41-3.474 3.168-4.127 4.264-.08.133-.17.267-.263.4-.764 1.062-1.956 2.108-1.973 2.124l1.067 1.23c.07-.063 1.726-1.51 2.568-2.915.41-.683 1.69-1.99 3.816-3.89.147-.13.242-.215.294-.266.345-.325.526-.857.716-1.42.09-.267.184-.544.273-.72.124-.245.236-.518.366-.834.2-.482.445-1.08.823-1.79 2.355-3.698 2.767-4.706 1.394-6.083-.093-.095-.192-.18-.295-.262.56-.726 1.375-1.85 2.537-3.568l.066-.096.037-.112c.548-1.728 1.353-3.33 2.21-4.7.577-.918 1.177-1.733 1.74-2.41.184-.22.366-.426.54-.615.198-.22.392-.418.572-.594.183-.18.353-.33.512-.46.016-.017.037-.033.052-.047.57-.46 1.315-.142 1.786.15-.21.48-.435.997-.67 1.54zm-10.13 7.733c.137-.307.295-.648.47-1.008 1.164-2.412 3.026-5.77 4.316-6.91.285-.25.604-.35.918-.362-1.14 1.446-2.34 3.345-3.244 5.506-.213.51-.414 1.032-.59 1.57-.114.164-.217.322-.324.475l-2.72 3.07c.465-.86.88-1.682 1.174-2.34zm-30.71 36.658h-11.72c.03-.81.05-1.62.047-2.34-.01-2.28-.215-4.26-.802-5.17-1-1.562-2.444-2.638-4.11-3.882-1.158-.863-2.47-1.84-3.8-3.126-1.227-1.183-2.286-2.256-3.22-3.202-1.59-1.61-2.637-2.676-3.368-3.13-.486-.3-.937-1.558-1.205-2.307-.18-.5-.324-.894-.49-1.173-.423-.698-4.14-6.535-4.563-7.124-.184-.255-.356-.702-.542-1.18-.15-.386-.305-.787-.497-1.18-.286-.58-2.798-6.336-4.644-10.577l-.668-1.537c.47-.292 1.215-.61 1.784-.15.018.015.038.03.057.048.155.13.325.282.51.46.182.176.374.374.573.594.176.19.355.396.54.615.564.676 1.16 1.49 1.738 2.408.858 1.37 1.665 2.973 2.213 4.7l.036.114.066.096c1.163 1.718 1.977 2.843 2.537 3.568-.104.082-.204.168-.298.262-1.37 1.376-.962 2.384 1.394 6.082.382.71.627 1.31.825 1.79.13.317.243.59.367.833.09.178.184.454.275.722.188.563.367 1.095.714 1.42.05.05.15.137.295.267 2.126 1.9 3.408 3.207 3.814 3.888.844 1.404 2.498 2.852 2.564 2.914l1.07-1.23c-.018-.015-1.208-1.06-1.97-2.123-.097-.132-.185-.266-.266-.398-.655-1.096-2.55-2.855-4.125-4.264-.11-.098-.205-.183-.25-.225-.08-.113-.22-.523-.304-.768-.107-.322-.22-.653-.364-.936-.095-.188-.196-.434-.313-.717-.214-.523-.48-1.17-.906-1.966l-.012-.025-.017-.026c-2.227-3.49-2.067-3.654-1.634-4.085.06-.06.124-.115.19-.166.04-.03.08-.06.122-.087.182-.118.376-.2.575-.246.407-.095.84-.05 1.242.098.335.12.65.31.916.546.536.47 1.155 1.286 1.765 2.196.515.76 1.027 1.585 1.488 2.327l.315.508.035.056.04.05c2.265 2.6 5.092 3.46 7.02 3.88 1.947.424 5.673 2.15 7.38 3.653 1.843 1.624 5.243 5.726 5.547 6.873.1.362.217.734.36 1.166.233.73.514 1.61.812 2.82.248 1.02.508 2.272.76 3.882.034.24.07.527.106.854v3.655h-.002zM8.968 22.718c1.287 1.138 3.15 4.497 4.314 6.91.174.36.332.7.47 1.007.294.658.71 1.48 1.176 2.34l-2.723-3.07-.325-.474c-.174-.537-.374-1.058-.59-1.568-.9-2.16-2.1-4.06-3.244-5.506.315.01.634.112.92.362zM85.602 20.5c-.657-.606-2.056-1.424-3.404-1.05-.328.09-.652.248-.963.497l-.03.024c-.302.25-.65.573-1.022.96-1.005-.325-2.204-.336-3.228.568-1.82 1.603-4.197 6.24-5.198 8.47-.25.557-.572 1.2-.924 1.864-.305.574-.637 1.162-.97 1.73-.296.16-.584.354-.853.59-1.163 1.026-2.435 3.076-3.557 4.887l-.277.44c-1.92 2.18-4.264 2.92-6.098 3.32-2.18.477-6.195 2.337-8.11 4.02-1.74 1.536-5.578 5.932-6.043 7.677-.09.32-.202.675-.336 1.086-.18.567-.406 1.26-.646 2.156-.144.54-.295 1.157-.45 1.864-.15-.707-.3-1.324-.448-1.865-.24-.896-.46-1.59-.646-2.157-.132-.412-.246-.766-.333-1.086-.466-1.745-4.304-6.14-6.047-7.678-1.912-1.683-5.927-3.543-8.105-4.02-1.836-.4-4.18-1.14-6.1-3.32l-.274-.44c-1.122-1.812-2.397-3.862-3.56-4.89-.268-.234-.556-.43-.85-.59-.336-.566-.667-1.154-.972-1.728-.352-.664-.673-1.307-.925-1.863-1-2.23-3.374-6.87-5.194-8.472-1.028-.904-2.224-.892-3.228-.567-.374-.387-.72-.71-1.025-.96l-.027-.023c-.31-.25-.635-.41-.962-.498-1.35-.374-2.747.445-3.403 1.05l-.424.393.23.53L2.57 24.56c1.56 3.587 3.938 9.035 4.234 9.637.16.33.305.695.442 1.05.22.576.432 1.12.738 1.545.393.547 4.088 6.35 4.49 7.012.084.14.226.534.35.882.406 1.132.91 2.54 1.878 3.14.565.355 1.674 1.474 3.07 2.89.94.956 2.008 2.035 3.247 3.23 1.403 1.357 2.76 2.368 3.957 3.263 1.604 1.193 2.872 2.14 3.714 3.45.437.68.573 2.53.542 4.816-.017 1.112-.072 2.353-.157 3.587.553-.04 28.296-.04 28.85 0-.084-1.234-.14-2.475-.158-3.587-.03-2.285.105-4.136.543-4.815.84-1.31 2.107-2.258 3.712-3.45 1.198-.896 2.553-1.908 3.958-3.263 1.24-1.196 2.307-2.275 3.247-3.23 1.398-1.417 2.5-2.536 3.072-2.892.964-.6 1.468-2.007 1.876-3.14.123-.346.265-.74.35-.88.4-.663 4.096-6.466 4.49-7.013.303-.425.516-.968.737-1.544.138-.356.28-.72.443-1.05.295-.604 2.675-6.05 4.236-9.638.738-1.7 1.298-2.982 1.364-3.137l.23-.53-.423-.392z"/></g></svg>