<svg width="87" height="87" viewBox="0 0 87 87" xmlns="http://www.w3.org/2000/svg"><title>icon-learn-plain</title><g fill="#FFF" fill-rule="evenodd"><path d="M74.465 63.254h-61.95c-.413 0-.75-.336-.75-.75V30.977c0-.415.337-.75.75-.75h3.462c.414 0 .75.335.75.75v29.66c3.984-1.836 8.246-2.77 12.69-2.77 7.196 0 12.63 2.414 14.067 3.12 1.438-.74 6.926-3.3 14.137-3.3 4.442 0 8.685.98 12.63 2.915V30.977c0-.415.336-.75.75-.75h3.46c.415 0 .75.335.75.75v31.527c.005.414-.33.75-.745.75zm-2.71-1.5h1.96V31.727h-1.96v30.027zm-26.364 0H69.19c-3.626-1.703-7.508-2.566-11.563-2.566-5.492 0-10 1.593-12.234 2.566zm-27.488 0h23.606c-2.262-.926-6.692-2.387-12.086-2.387-4.024 0-7.89.805-11.52 2.387zm-4.636 0h1.96V31.727h-1.96v30.027z"/><path d="M15.977 62.586c-.137 0-.274-.04-.39-.11-.224-.136-.36-.378-.36-.64v-33.3c0-.27.144-.52.378-.653 3.657-2.078 7.977-3.133 12.84-3.133 7.313 0 13.535 2.355 15.02 2.96 1.418-.667 7.273-3.202 14.578-3.202 4.863 0 9.348 1.133 13.328 3.375.235.133.384.383.384.652v33.3c0 .267-.14.513-.367.645-.227.137-.508.14-.742.016C66.61 60.3 62.23 59.19 57.62 59.19c-7.862 0-13.702 3.267-13.757 3.298-.222.13-.5.133-.726.008-.06-.03-5.867-3.125-13.715-3.125-4.613 0-9.024 1.056-13.102 3.134-.11.055-.226.082-.343.082zm13.445-4.72c7.195 0 12.63 2.415 14.066 3.122 1.438-.742 6.926-3.3 14.137-3.3 4.44 0 8.684.98 12.63 2.914V28.977c-3.657-1.973-7.763-2.97-12.208-2.97-7.863 0-14.152 3.165-14.22 3.196-.198.102-.436.11-.643.02-.067-.032-6.852-2.973-14.74-2.973-4.432 0-8.37.918-11.717 2.727v31.66c3.984-1.836 8.25-2.77 12.695-2.77z"/><path d="M43.492 56.87c-.414 0-.75-.335-.75-.75V33.6c0-.414.336-.75.75-.75s.75.336.75.75V56.12c0 .415-.336.75-.75.75z"/></g></svg>