<svg width="87" height="87" viewBox="0 0 87 87" xmlns="http://www.w3.org/2000/svg"><title>icon-pray-plain</title><g fill="#FFF" fill-rule="evenodd"><path d="M54.788 12.495L43.52 23.762 32.255 12.495c-2.282-2.282-2.282-5.996 0-8.278 1.143-1.143 2.656-1.743 4.278-1.713 1.615.038 3.104.718 4.19 1.913l2.065 2.268c.004.005.01.006.015.01.017.018.023.04.04.057.057.05.124.075.186.11.037.022.07.05.11.066.07.03.142.04.216.053.056.01.11.025.167.025.06 0 .112-.014.17-.024.073-.012.145-.023.216-.053.038-.016.07-.042.107-.064.063-.035.13-.06.187-.11.017-.017.024-.04.04-.057.005-.005.01-.006.016-.01l2.064-2.27c1.087-1.194 2.574-1.874 4.19-1.912 1.606-.038 3.134.57 4.278 1.713 1.105 1.106 1.715 2.575 1.715 4.14 0 1.562-.61 3.033-1.715 4.138m1.414-9.692C54.67 1.27 52.648.427 50.462.505c-2.167.05-4.163.963-5.62 2.566l-1.32 1.45-1.32-1.45C40.745 1.468 38.747.557 36.58.506c-2.148-.067-4.206.765-5.74 2.298-3.062 3.062-3.062 8.045 0 11.106l11.974 11.973c.196.195.452.293.707.293.257 0 .513-.098.708-.293L56.202 13.91c1.483-1.484 2.3-3.456 2.3-5.554 0-2.098-.817-4.07-2.3-5.553M47.528 29.626c1.888 4.334 4.445 10.223 4.68 10.843.16.418.354.813.538 1.193.227.47.443.914.505 1.23.147.727 1.924 7.57 2.152 8.377.094.32.29.7.54 1.183.373.725 1 1.937.886 2.51-.168.864-.103 2.39-.004 4.7.057 1.358.123 2.898.153 4.64.035 1.89-.146 3.554-.306 5.023-.23 2.114-.43 3.943.04 5.78.278 1.076 1.616 2.608 3.313 4.2.616.58 1.345 1.224 2.07 1.843l-13.606 2.8c-.185-.27-.36-.528-.52-.77-.7-1.066-1.162-1.89-1.544-2.574-.226-.406-.422-.756-.624-1.08-.647-1.03-1.35-6.43-1.28-8.942.062-2.323 1.367-6.313 2.408-8.066 1.026-1.736 2.352-4.45 1.983-7.955l-.007-.066-.02-.065-.158-.588c-.234-.863-.496-1.82-.706-2.735-.254-1.093-.436-2.123-.415-2.85.01-.365.087-.734.23-1.068.17-.404.436-.76.79-.998.175-.115.37-.204.586-.257.05-.012.1-.024.152-.033.083-.013.167-.023.255-.027.624-.022.858-.03 1.92 4.07l.007.03.01.03c.3.873.6 1.524.84 2.046.13.287.244.532.32.734.11.302.28.618.446.923.126.234.335.623.363.765l-.005.342c-.044 2.162-.046 4.805.317 6.06.044.15.083.31.114.475.262 1.31.215 2.932.215 2.958l1.663.05c.003-.09.07-2.34-.394-3.947-.224-.78-.31-2.65-.252-5.563.003-.2.007-.333.006-.408-.003-.485-.274-.99-.564-1.524-.137-.252-.278-.516-.348-.707-.097-.26-.224-.536-.37-.853-.223-.483-.498-1.083-.766-1.864-1.126-4.336-1.595-5.348-3.58-5.278-.135.004-.27.02-.4.038-.156-.925-.428-2.316-.907-4.382l-.026-.117-.06-.104c-.91-1.616-1.548-3.337-1.976-4.932-.285-1.07-.474-2.088-.59-2.98-.037-.29-.065-.57-.087-.83-.024-.305-.04-.588-.044-.846-.005-.26 0-.494.013-.703 0-.024 0-.05.003-.074.05-.746.808-1.083 1.354-1.23l.688 1.57m-1.27 12.97c-.135-.318-.278-.673-.427-1.054-.996-2.55-2.21-6.284-2.162-8.043.012-.39.157-.698.367-.942.287 1.862.873 4.083 1.862 6.265.233.514.48 1.03.762 1.534.043.2.087.388.128.572l.4 4.177c-.318-.95-.644-1.833-.93-2.512M44.12 28.103c-.16.306-.266.66-.295 1.068 0 .012-.003.025-.002.038-.026.4-.025.886.004 1.433-.943.527-1.785 1.414-1.825 2.813-.068 2.48 1.75 7.487 2.72 9.788.244.577.5 1.265.75 1.992.218.628.427 1.287.62 1.93-.087.335-.142.685-.152 1.05-.043 1.585.607 3.97 1.178 6.07l.138.514c.295 2.95-.785 5.222-1.764 6.875-1.16 1.962-2.567 6.263-2.638 8.867-.066 2.374.55 8.31 1.532 9.877.182.285.367.618.58 1.005.297.53.663 1.178 1.165 1.982.18.284.378.59.593.91l-1.585.327.36 1.742 20.645-4.25-.36-1.744-1.58.325c-.933-.76-1.85-1.54-2.65-2.264-1.735-1.57-3.024-2.963-3.23-3.758-.395-1.546-.22-3.153.002-5.187.165-1.516.354-3.236.318-5.234-.034-1.76-.097-3.31-.157-4.678-.088-2.033-.153-3.64-.023-4.312.222-1.14-.478-2.5-1.042-3.593-.174-.333-.37-.715-.416-.876-.217-.76-1.984-7.567-2.12-8.244-.104-.524-.364-1.062-.642-1.63-.17-.35-.344-.71-.477-1.06-.247-.644-2.667-6.217-4.262-9.885l-1.398-3.205-.238-.542-.587.045c-.91.068-2.497.546-3.16 1.815"/><path d="M40.17 28.055c.547.148 1.305.485 1.356 1.23.002.023.002.05.003.073.012.21.016.443.012.704-.004.258-.02.54-.044.845-.02.26-.05.54-.086.83-.116.892-.306 1.91-.59 2.98-.43 1.595-1.067 3.316-1.978 4.932l-.06.103-.025.117c-.48 2.066-.752 3.457-.907 4.383-.13-.02-.267-.035-.4-.04-1.986-.07-2.456.943-3.582 5.28-.266.78-.542 1.38-.764 1.864-.146.316-.274.593-.37.854-.07.19-.21.455-.348.708-.29.534-.562 1.038-.565 1.524 0 .074.004.207.007.407.057 2.913-.028 4.783-.253 5.563-.465 1.607-.396 3.855-.394 3.948l1.664-.05c0-.026-.047-1.65.216-2.96.03-.164.07-.324.114-.475.363-1.253.36-3.897.317-6.058l-.005-.343c.027-.14.235-.53.362-.765.165-.305.336-.62.446-.924.075-.202.19-.447.32-.733.24-.523.54-1.174.838-2.047l.01-.03.01-.03c1.06-4.1 1.295-4.092 1.92-4.07.086.004.17.014.253.027l.15.033c.217.053.412.143.585.258.355.24.62.593.792.997.143.336.22.704.23 1.07.02.727-.16 1.756-.414 2.848-.21.915-.472 1.873-.707 2.735l-.16.588-.018.066-.007.067c-.368 3.505.958 6.218 1.984 7.955 1.04 1.752 2.346 5.743 2.408 8.065.068 2.513-.633 7.913-1.28 8.942-.202.324-.398.674-.623 1.08-.384.684-.846 1.508-1.545 2.574-.16.242-.336.5-.52.77l-13.606-2.802c.724-.618 1.452-1.263 2.068-1.843 1.698-1.592 3.035-3.124 3.312-4.2.472-1.837.272-3.665.04-5.78-.16-1.468-.34-3.13-.306-5.023.03-1.74.097-3.28.154-4.64.1-2.31.163-3.836-.005-4.7-.112-.573.513-1.785.886-2.51.25-.483.445-.864.54-1.183.227-.806 2.005-7.65 2.15-8.378.062-.316.278-.758.506-1.23.183-.38.377-.774.537-1.193.236-.62 2.793-6.51 4.68-10.845l.688-1.57m-.348 17.05l.402-4.176c.04-.186.085-.375.13-.574.28-.505.528-1.02.76-1.534.99-2.182 1.576-4.403 1.862-6.265.21.245.356.552.368.94.047 1.76-1.167 5.495-2.164 8.045-.148.38-.29.736-.426 1.052-.287.68-.613 1.56-.932 2.512m-.09-18.818l-.588-.046-.237.542-1.398 3.206c-1.596 3.668-4.017 9.24-4.264 9.884-.133.35-.307.712-.477 1.062-.28.567-.538 1.106-.643 1.63-.135.676-1.902 7.484-2.12 8.244-.045.16-.24.543-.417.877-.564 1.093-1.264 2.45-1.04 3.592.128.67.063 2.278-.024 4.31-.06 1.37-.124 2.92-.158 4.68-.035 1.998.153 3.718.32 5.235.22 2.034.395 3.64 0 5.186-.205.796-1.494 2.19-3.228 3.758-.802.725-1.718 1.505-2.65 2.265l-1.582-.326-.36 1.744 20.647 4.252.36-1.743-1.586-.328c.214-.32.413-.627.59-.91.503-.804.868-1.454 1.164-1.984.215-.386.4-.72.58-1.005.982-1.566 1.6-7.502 1.534-9.877-.072-2.603-1.477-6.905-2.64-8.866-.977-1.653-2.057-3.924-1.763-6.875l.14-.514c.57-2.1 1.22-4.484 1.176-6.07-.01-.364-.063-.713-.15-1.05.192-.64.402-1.3.618-1.93.25-.726.508-1.413.75-1.99.97-2.3 2.79-7.31 2.72-9.787-.038-1.4-.88-2.286-1.824-2.812.03-.547.03-1.032.005-1.433 0-.012-.003-.026-.004-.037-.028-.408-.135-.76-.296-1.068-.662-1.27-2.248-1.746-3.16-1.814"/></g></svg>