<svg width="120" height="120" viewBox="0 0 120 120" xmlns="http://www.w3.org/2000/svg"><title>icon-fundraise</title><g fill="none" fill-rule="evenodd"><circle fill="#C4D600" cx="60" cy="60" r="60"/><path d="M67.085 79.48h-18.77c-.797 0-1.444.652-1.444 1.453v11.615c0 .802.648 1.452 1.445 1.452h18.77c.798 0 1.444-.65 1.444-1.452V80.933c0-.8-.647-1.452-1.445-1.452zm-.343 2.798l-8.664 5.807c-.116.073-.247.108-.378.108-.13 0-.262-.036-.378-.108l-8.663-5.807c-.34-.21-.446-.657-.238-1 .21-.34.654-.448.994-.237l8.285 5.575 8.286-5.574c.34-.21.784-.103.993.24.206.34.102.788-.238.998zm-9.187-32.07c2.592 0 4.693 2.112 4.693 4.718s-2.1 4.718-4.693 4.718c-2.592 0-4.693-2.112-4.693-4.718s2.1-4.72 4.693-4.72zm10.468 3.63c1.994 0 3.61 1.624 3.61 3.63 0 2.003-1.616 3.628-3.61 3.628-1.993 0-3.61-1.625-3.61-3.63 0-2.004 1.617-3.63 3.61-3.63zm5.054 14.518c0-3.61-2.264-6.534-5.054-6.534-1.928 0-3.602 1.396-4.454 3.448-1.167-2.92-3.423-4.9-6.016-4.9-3.79 0-6.858 4.225-6.858 9.437h13.717c0-.495-.036-.978-.09-1.45h8.754zm1.683-23.508h-1.14c-1.258 0-2.278-.956-2.278-2.135v-9.608c0-1.18 1.02-2.135 2.28-2.135H90.72c1.26 0 2.28.956 2.28 2.135v9.608c0 1.18-1.02 2.135-2.28 2.135h-11.4l-4.56 4.27v-4.27zm-40.75.602l1.767-3.554c.122-.246.372-.402.646-.402h.998c.4 0 .723.325.723.726v2.904c0 .402.323.726.722.726h2.887c.4 0 .722.325.722.726v7.26c0 .4-.323.725-.722.725h-6.198c-.19 0-.376-.075-.51-.21L33.3 52.595c-.135-.136-.318-.213-.51-.213h-.423c-.398 0-.722-.324-.722-.725v-5.082c0-.4.324-.726.722-.726h.998c.273.002.523-.154.645-.4zm-3.087.402v7.26c0 .4-.324.725-.722.725h-2.275c-.353 0-.654-.257-.712-.607l-1.203-7.26c-.065-.395.2-.77.593-.834.04-.008.08-.01.12-.01H30.2c.4 0 .723.324.723.726zm42.154 43.34c-.574 0-1.116-.346-1.34-.915-.296-.744.064-1.59.804-1.887 10.37-4.16 17.07-14.1 17.07-25.322 0-3.817-.774-7.52-2.304-11.002-.322-.733.008-1.59.737-1.915.727-.322 1.58.01 1.905.742 1.69 3.856 2.55 7.952 2.55 12.176 0 12.416-7.414 23.414-18.886 28.02-.176.07-.356.104-.535.104zm-30.22-2.698c-.295 0-.59-.09-.848-.277-7.764-5.666-12.4-14.796-12.4-24.422 0-.998.05-2.014.15-3.02.08-.798.786-1.383 1.58-1.3.793.08 1.372.79 1.294 1.587-.09.91-.136 1.83-.136 2.733 0 8.698 4.19 16.95 11.207 22.072.646.47.79 1.38.32 2.028-.28.392-.722.6-1.17.6zm-2.234-46.93c-.364 0-.727-.136-1.008-.412-.57-.56-.582-1.48-.025-2.053 5.697-5.87 13.32-9.1 21.464-9.1 2.196 0 4.41.248 6.584.738.778.175 1.267.95 1.093 1.734-.173.782-.943 1.273-1.724 1.1-1.966-.444-3.967-.668-5.952-.668-7.36 0-14.25 2.92-19.398 8.224-.283.29-.657.437-1.033.437z" fill="#FFF"/></g></svg>