<svg width="120" height="120" viewBox="0 0 120 120" xmlns="http://www.w3.org/2000/svg"><title>icon-donate</title><g fill="none" fill-rule="evenodd"><circle fill="#00AD91" cx="60" cy="60" r="60"/><g fill="#FFF"><path d="M71.273 48.157L60.006 59.424 48.739 48.157c-2.283-2.282-2.283-5.996 0-8.278 1.142-1.144 2.655-1.744 4.277-1.714 1.615.038 3.104.718 4.19 1.913l2.065 2.267c.004.005.01.006.015.01.017.018.023.04.04.057.057.05.124.075.186.11.037.022.07.05.11.066.07.03.142.04.216.053.055.01.11.024.166.024.058 0 .11-.014.168-.024.074-.013.146-.024.217-.054.04-.017.072-.043.108-.065.063-.035.13-.06.187-.11.017-.017.024-.04.04-.057.005-.005.01-.006.016-.01l2.065-2.27c1.087-1.194 2.574-1.874 4.19-1.912 1.606-.038 3.134.57 4.278 1.713 1.105 1.105 1.715 2.574 1.715 4.138 0 1.563-.61 3.034-1.715 4.14m1.414-9.693c-1.533-1.534-3.554-2.376-5.74-2.298-2.167.05-4.163.963-5.62 2.566l-1.32 1.45-1.32-1.45c-1.458-1.604-3.456-2.515-5.623-2.566-2.147-.067-4.205.765-5.74 2.298-3.06 3.062-3.06 8.045 0 11.106L59.3 61.546c.195.195.45.293.706.293.256 0 .512-.098.707-.293L72.687 49.57c1.483-1.482 2.3-3.454 2.3-5.552 0-2.098-.817-4.07-2.3-5.553"/><path d="M102.695 41.705c-1.95 4.487-4.61 10.578-4.912 11.192-.205.415-.37.84-.527 1.248-.195.506-.38.98-.572 1.25-.45.622-4.383 6.798-4.832 7.537-.176.295-.324.712-.516 1.24-.283.794-.762 2.124-1.275 2.443-.77.48-1.884 1.606-3.563 3.31-.988 1.002-2.11 2.138-3.406 3.39-1.407 1.358-2.796 2.394-4.02 3.308-1.764 1.316-3.29 2.455-4.35 4.107-.62.965-.84 3.06-.846 5.47-.006.762.014 1.62.045 2.478h-12.4V84.81c.038-.346.077-.65.116-.903.264-1.703.54-3.03.8-4.108.317-1.282.614-2.212.862-2.984.15-.457.277-.852.38-1.234.323-1.215 3.917-5.555 5.87-7.273 1.807-1.59 5.75-3.417 7.81-3.865 2.038-.446 5.028-1.356 7.423-4.106l.046-.054.037-.06.334-.536c.488-.785 1.03-1.658 1.572-2.463.65-.962 1.302-1.825 1.868-2.323.28-.25.615-.45.97-.578.427-.155.882-.203 1.31-.103.214.05.42.136.612.26.04.03.086.06.13.093.07.054.138.11.2.176.457.457.627.63-1.73 4.323l-.018.027-.012.024c-.453.842-.734 1.527-.96 2.08-.126.3-.23.56-.333.758-.15.3-.268.65-.383.99-.088.26-.234.693-.322.813-.05.044-.146.134-.262.238-1.67 1.49-3.676 3.352-4.367 4.512-.084.14-.18.28-.28.422-.808 1.123-2.07 2.23-2.087 2.246l1.13 1.3c.073-.065 1.825-1.597 2.716-3.082.432-.722 1.787-2.104 4.037-4.114.155-.14.255-.23.31-.283.365-.344.557-.907.758-1.502.096-.283.195-.576.29-.764.13-.257.25-.546.386-.88.21-.51.47-1.143.87-1.895 2.493-3.912 2.93-4.98 1.476-6.436-.098-.1-.203-.19-.312-.278.594-.768 1.455-1.957 2.684-3.775l.07-.102.04-.12c.58-1.828 1.43-3.524 2.34-4.974.608-.97 1.243-1.83 1.84-2.548.194-.232.386-.45.57-.65.21-.233.415-.443.606-.63.193-.187.373-.348.54-.485l.058-.05c.604-.486 1.39-.15 1.89.158l-.71 1.63zm-10.72 8.182c.146-.325.314-.685.498-1.066 1.232-2.552 3.203-6.105 4.568-7.31.302-.266.64-.372.972-.384-1.207 1.53-2.477 3.54-3.434 5.826-.225.54-.438 1.09-.623 1.66-.12.174-.23.34-.344.503l-2.878 3.248c.493-.91.932-1.78 1.243-2.476zM59.48 88.677h-12.4c.03-.857.05-1.716.05-2.477-.01-2.41-.228-4.506-.85-5.47-1.058-1.653-2.585-2.792-4.35-4.108-1.224-.914-2.612-1.95-4.02-3.31-1.297-1.25-2.418-2.386-3.406-3.387-1.682-1.704-2.79-2.83-3.564-3.31-.514-.32-.992-1.65-1.275-2.443-.19-.53-.342-.946-.518-1.24-.447-.74-4.38-6.916-4.828-7.54-.196-.27-.378-.742-.575-1.248-.158-.408-.322-.833-.525-1.248-.303-.614-2.96-6.705-4.914-11.192l-.707-1.628c.497-.31 1.284-.645 1.886-.158.02.015.04.032.06.05.165.138.345.298.54.486.193.186.396.396.607.628.186.2.375.42.57.65.598.718 1.23 1.58 1.84 2.55.908 1.45 1.762 3.146 2.342 4.975l.037.12.07.1c1.23 1.82 2.092 3.01 2.684 3.776-.11.087-.215.178-.314.277-1.45 1.456-1.018 2.523 1.475 6.436.404.752.664 1.385.873 1.895.137.335.256.624.387.882.094.188.195.48.29.764.2.595.39 1.158.757 1.502.053.054.158.145.312.283 2.248 2.01 3.605 3.394 4.035 4.115.894 1.485 2.644 3.017 2.714 3.083l1.133-1.3c-.02-.017-1.28-1.124-2.086-2.248-.1-.14-.194-.282-.28-.422-.693-1.16-2.697-3.02-4.365-4.512-.115-.104-.217-.194-.264-.238-.085-.12-.233-.553-.32-.813-.114-.34-.233-.69-.386-.99-.1-.198-.207-.458-.33-.758-.227-.553-.508-1.238-.96-2.08l-.013-.027-.017-.027c-2.357-3.694-2.188-3.866-1.73-4.323.064-.065.13-.122.2-.176.044-.033.087-.063.13-.092.193-.125.398-.21.61-.26.43-.102.886-.054 1.313.102.354.128.688.33.97.578.565.498 1.22 1.36 1.866 2.323.545.805 1.086 1.678 1.574 2.463l.334.537.037.06.043.052c2.396 2.75 5.387 3.66 7.426 4.106 2.06.448 6.004 2.274 7.81 3.864 1.95 1.72 5.548 6.06 5.87 7.273.104.383.23.777.38 1.234.247.772.544 1.702.86 2.983.262 1.08.537 2.405.803 4.108.036.253.075.558.112.904v3.867h-.002zM23.96 41.51c1.364 1.204 3.337 4.758 4.567 7.31.184.383.352.742.498 1.067.31.696.75 1.565 1.244 2.477l-2.882-3.248-.344-.503c-.184-.57-.396-1.12-.623-1.66-.954-2.287-2.224-4.296-3.433-5.826.333.01.67.118.974.383zm81.09-2.346c-.694-.642-2.175-1.508-3.6-1.113-.347.096-.69.264-1.02.528l-.03.025c-.32.264-.688.605-1.082 1.016-1.064-.346-2.332-.358-3.416.6-1.926 1.695-4.44 6.603-5.5 8.962-.264.59-.604 1.27-.977 1.972-.322.607-.674 1.23-1.025 1.83-.314.17-.62.375-.904.624-1.23 1.086-2.576 3.256-3.764 5.172l-.293.468c-2.03 2.305-4.51 3.087-6.452 3.51-2.307.506-6.555 2.474-8.58 4.254-1.844 1.627-5.904 6.278-6.396 8.125-.094.34-.213.714-.354 1.15-.19.6-.43 1.333-.684 2.28-.152.572-.312 1.225-.475 1.973-.16-.748-.32-1.4-.476-1.973-.254-.947-.488-1.682-.684-2.28-.14-.437-.26-.812-.352-1.15-.494-1.847-4.555-6.498-6.4-8.125-2.023-1.78-6.27-3.748-8.576-4.253-1.943-.425-4.424-1.207-6.453-3.512l-.292-.468c-1.188-1.916-2.537-4.086-3.768-5.172-.283-.25-.588-.455-.9-.625-.354-.6-.705-1.222-1.027-1.83-.373-.702-.713-1.382-.98-1.97-1.058-2.36-3.57-7.268-5.495-8.964-1.088-.958-2.354-.945-3.416-.6-.396-.41-.762-.753-1.084-1.017-.01-.01-.023-.018-.03-.025-.327-.265-.67-.433-1.017-.527-1.43-.394-2.907.473-3.6 1.114l-.45.415.244.56 1.445 3.32c1.65 3.795 4.167 9.56 4.48 10.196.17.35.323.736.468 1.112.232.61.457 1.185.78 1.634.417.58 4.327 6.72 4.753 7.42.09.148.24.565.372.933.428 1.198.963 2.688 1.986 3.322.598.376 1.77 1.56 3.248 3.06.994 1.01 2.125 2.152 3.436 3.418 1.486 1.434 2.922 2.504 4.188 3.45 1.697 1.265 3.04 2.267 3.93 3.654.46.717.605 2.676.572 5.094-.018 1.177-.076 2.49-.166 3.795.586-.042 29.94-.042 30.527 0-.088-1.306-.148-2.62-.166-3.796-.033-2.418.11-4.377.574-5.095.89-1.39 2.23-2.39 3.93-3.654 1.267-.947 2.7-2.018 4.187-3.45 1.312-1.267 2.44-2.41 3.436-3.42 1.48-1.5 2.646-2.683 3.25-3.06 1.02-.634 1.555-2.123 1.986-3.32.13-.368.28-.785.37-.934.422-.7 4.334-6.84 4.75-7.42.322-.45.547-1.024.78-1.634.147-.376.296-.763.47-1.112.312-.638 2.83-6.4 4.482-10.197.78-1.8 1.373-3.156 1.443-3.32l.245-.56-.45-.416z"/></g></g></svg>