<svg width="87" height="87" viewBox="0 0 87 87" xmlns="http://www.w3.org/2000/svg"><title>icon-act-plain</title><path d="M75.078 26.598c-3.715 2.074-7.926 4.32-9.453 4.757l-.016.028-.798.187c-.02.004-1.886.438-3.68.48-.1.005-.202.005-.308.005-1.988 0-4.613-.356-5.074-.57-.742-.344-1.22-.563-1.805-.84l-5.328-2.485c-.113-.055-.22-.086-.293-.11l-.035-.01c-.013-.005-.02-.01-.032-.013h-.004c-.402-.156-.816-.254-1.22-.29l-7.077-.632c-1.023-.093-2.043.176-2.887.758l-.1.07c-.15.11-.34.262-.525.45-.707.617-1.664 1.472-2.617 2.324-2.308.39-4.473 1.223-6.582 2.043-1.98-1.062-7.492-4.04-11.598-6.512l-.097-.058-.1-.047c-.57-.254-1.145-.383-1.712-.383-.906 0-2.222.328-3.34 1.902-1.55 2.184-2.11 5.953-2.304 8.735-.188 2.69-.117 6.16.468 7.843.868 2.493 3.864 4.172 7.036 5.95 1.64.918 3.332 1.867 4.246 2.726.844.922 1.785 1.762 2.84 2.578-.028 1.282.754 2.485 2.015 2.918.726.25 1.484.2 2.144-.082.008.004.015.012.023.016l.31.19.147.03-.105.303c-.548 1.585.28 3.312 1.85 3.85 1.067.368 2.203.09 2.992-.624-.117 1.352.676 2.656 2.004 3.113 1.067.366 2.204.09 2.993-.626-.12 1.352.674 2.656 2.002 3.114 1.567.54 3.282-.31 3.83-1.9l.104-.308 4.98 3.11c.684.426 1.47.652 2.274.652 1.492 0 2.852-.754 3.64-2.015.47-.75.688-1.602.65-2.465l.058.035c.683.426 1.468.652 2.273.652 1.493 0 2.853-.755 3.642-2.016.496-.797.703-1.696.64-2.567.485.184 1 .28 1.524.28 1.492 0 2.85-.752 3.64-2.018.524-.837.72-1.782.63-2.692.363.1.742.152 1.124.152 1.492 0 2.852-.754 3.64-2.016 1.153-1.847.728-4.242-.913-5.59l-.008-.027c1.855-.465 7.847-2.16 10.82-5.29 3.542-3.73-.063-21.397-6.532-17.07zM52.3 66.242c-.46.735-1.25 1.14-2.058 1.14-.437 0-.883-.12-1.285-.366l-5.344-3.34 1.203-3.488c.16-.465.2-.942.14-1.395l6.575 4.11c1.138.706 1.482 2.206.77 3.34zm17.83-12.656c-.462.738-1.25 1.14-2.06 1.14-.44 0-.882-.12-1.285-.367L56.082 47.67s0 .004-.004.004l-3.152-1.97c-.153-.097-.324-.14-.492-.14-.313 0-.614.157-.793.438-.273.437-.14 1.012.298 1.285l3.21 2.007-.003.004 8.808 5.505c1.137.71 1.48 2.207.77 3.343-.46.74-1.25 1.14-2.06 1.14-.436 0-.882-.12-1.284-.366l-8.958-5.598-.004.004-3.063-1.914c-.152-.098-.324-.14-.492-.14-.312 0-.613.156-.793.437-.273.438-.14 1.013.297 1.286l2.817 1.762s0 .004-.004.004l6.965 4.35c1.136.712 1.48 2.208.773 3.345-.46.738-1.25 1.14-2.06 1.14-.436 0-.88-.12-1.284-.367l-8.64-5.398s-.004 0-.008.004l-1.137-.71c-.153-.1-.325-.142-.493-.142-.31 0-.613.157-.793.438-.016.027-.03.058-.043.086-.35-.524-.862-.942-1.5-1.16-1.003-.348-2.07-.12-2.847.504l.02-.05c.547-1.587-.28-3.314-1.852-3.853-1.507-.52-3.147.25-3.757 1.722-.226-.98-.925-1.82-1.937-2.168-1.27-.438-2.633.035-3.398 1.074-.153-1.09-.887-2.05-1.985-2.43-1.566-.54-3.28.31-3.828 1.9l-.168.483c-.754-.616-1.418-1.245-2.023-1.913-2.696-2.605-9.8-4.965-10.86-8-.984-2.828-.62-16.004 3.414-16 .297 0 .61.07.946.223C19.78 30.91 27.12 34.8 27.12 34.8c1.247-.48 2.474-.968 3.704-1.386l-.437.39c-.61.548-.887 1.27-.774 2.04.102.683.516 1.344 1.004 1.574.2.09.473.207.774.305.122.043.247.082.383.117.567.148 1.15.222 1.735.222 1.527 0 3.03-.5 4.457-1.484.223-.148 1.414-.976 1.78-1.242.278-.203.92-.543 2.07-.543.158 0 .318.008.482.02.77.058 1.797.273 2.598.46.703.442 1.43.903 2.17 1.368.38.028.76.145 1.103.36l21.19 13.242c1.134.71 1.482 2.207.77 3.344z" fill="#FFF" fill-rule="evenodd"/></svg>