<svg width="120" height="120" viewBox="0 0 120 120" xmlns="http://www.w3.org/2000/svg"><title>icon-gift</title><g fill="none" fill-rule="evenodd"><circle fill="#00B4E0" cx="60" cy="60" r="60"/><g fill="#FFF"><path d="M69.232 76.56l-3.808-1.448-2.25 3.4-4.54-14.114-5.308 10.34-1.668-3.718-3.993.812 6.02-11.733H38.18v28.176c0 1.008 1.017 1.826 2.025 1.826h39.81c.997 0 1.805-.81 1.805-1.805V60.1H63.937l5.295 16.46zM74.436 46.47c-1.918 1.13-4.718 1.728-8.1 1.728-.93 0-1.783-.045-2.495-.105.55-3.613 2.367-10.73 8.17-11.402 2.984-.345 5.04.75 5.65 2.983.554 2.03-.218 5.025-3.224 6.797zm-20.308 1.397c-1.487 0-2.732-.22-3.703-.65-2.052-.91-2.827-2.786-2.533-4.17.27-1.274 1.415-1.976 3.225-1.976 3.54 0 5.337 3.977 6.123 6.516-.89.15-1.983.28-3.112.28zm24.29 1.322c3.198-2.716 4.675-6.877 3.628-10.714-1.198-4.392-5.347-6.905-10.557-6.3-4.915.567-8.632 3.93-10.75 9.722-.148.407-.28.81-.405 1.21-1.597-3.226-4.414-6.583-9.218-6.583-4.786 0-7.1 2.882-7.673 5.58-.536 2.528.304 5.147 2.086 7.084H35.452v8.182h49.096V49.19h-6.13z"/></g></g></svg>