<svg width="208" height="208" viewBox="0 0 208 208" xmlns="http://www.w3.org/2000/svg"><title>rose-window-1</title><path d="M102.98.4C91.55.4 82.045 8.785 80.284 19.727c-7.06-8.243-19.22-10.582-28.95-4.962-5.32 3.07-9.125 8.028-10.716 13.96-1.27 4.74-.978 9.64.744 14.135-10.238-3.625-21.954.428-27.575 10.168-5.718 9.9-3.19 22.31 5.41 29.307C8.515 84.315.4 93.695.4 104.94c0 6.14 2.39 11.916 6.735 16.26 3.47 3.47 7.86 5.666 12.613 6.422-8.26 7.054-10.607 19.228-4.985 28.966 3.07 5.32 8.03 9.124 13.964 10.713 1.98.532 3.99.794 5.988.794 2.773 0 5.518-.517 8.128-1.514-1.542 4.344-1.747 9.044-.53 13.592 1.59 5.933 5.395 10.892 10.713 13.963 3.545 2.044 7.476 3.09 11.46 3.09 2 0 4.01-.263 5.992-.793 4.734-1.268 8.827-3.967 11.858-7.7 1.983 10.676 11.36 18.788 22.602 18.788 11.43 0 20.932-8.382 22.7-19.32 4.435 5.18 10.89 8.032 17.49 8.032 3.9 0 7.847-.99 11.46-3.076 9.902-5.717 13.916-17.73 9.966-28.09 2.493.885 5.07 1.32 7.628 1.32 7.952-.002 15.698-4.126 19.95-11.493 3.074-5.32 3.89-11.516 2.3-17.45-1.27-4.735-3.966-8.83-7.7-11.86 10.676-1.982 18.786-11.36 18.786-22.602 0-6.14-2.39-11.915-6.734-16.26-3.47-3.468-7.858-5.666-12.614-6.422 8.26-7.054 10.608-19.228 4.985-28.966-3.07-5.32-8.03-9.124-13.962-10.713-4.737-1.27-9.633-.982-14.124.738 1.546-4.348 1.755-9.055.536-13.61-1.59-5.933-5.395-10.892-10.714-13.963-5.32-3.072-11.516-3.888-17.448-2.296-4.735 1.268-8.832 3.964-11.86 7.698C123.6 8.512 114.224.4 102.98.4zm1.195 26.968V2.846c2.696.155 5.25.83 7.57 1.927-4.438 7.62-5.58 18.145-5.875 22.958-.542-.177-1.11-.303-1.695-.362zM93.413 5.154c2.524-1.334 5.365-2.134 8.374-2.306v24.635c-.842.17-1.634.47-2.358.876-.3-4.864-1.463-15.564-6.017-23.206zm14.79 23.79c.186-3.905 1.112-15.304 5.64-23.035 1.845 1.153 3.49 2.59 4.882 4.25-3.72 3.204-6.564 8.286-8.232 14.832-.482 1.888-.805 3.646-1.024 5.136-.38-.437-.803-.836-1.266-1.185zm-13.4-3.332c-1.65-6.485-4.458-11.534-8.13-14.742 1.324-1.725 2.907-3.238 4.702-4.47 4.92 8.28 5.646 20.883 5.75 23.88-.447.545-.825 1.15-1.12 1.795-.206-1.716-.567-3.977-1.2-6.463zm16.63 8.603c.177-2.773 1.382-15.727 8.705-22.15.922 1.395 1.69 2.903 2.255 4.51-5.57 3.595-8.31 14.13-9.124 17.87-.592-.14-1.203-.225-1.837-.23zM83.293 17.46c.49-1.635 1.173-3.184 2.032-4.62 6.77 6.108 8.212 17.824 8.5 21.44-.652.08-1.276.24-1.868.467-.875-3.898-3.505-13.573-8.665-17.287zm54.505 18.836c2.163-4.324 6.56-14.245 6.43-23.19 2.905.113 5.757.866 8.407 2.2l-12.357 21.402c-.812-.272-1.648-.404-2.48-.412zm-2.593-4.763c1.813-6.455 1.904-12.242.32-16.86.823-.34 1.662-.644 2.536-.88 1.25-.335 2.517-.54 3.78-.638.13 9.75-5.688 21.2-7.01 23.67-.657.25-1.283.588-1.86 1.007.687-1.6 1.527-3.78 2.235-6.3zm-65.068 5.363c-1.78-3.45-6.698-13.804-6.644-22.79 2.176.076 4.318.498 6.356 1.238-1.623 4.635-1.544 10.46.285 16.96.526 1.882 1.13 3.57 1.684 4.972-.546-.185-1.11-.315-1.683-.38zm-16.55-20.612c2.414-1.213 4.963-1.906 7.52-2.116-.03 8.845 4.266 18.564 6.413 22.86-.557.12-1.11.296-1.644.54L53.588 16.284zm74.564 21.8c1.183-3.768 3.794-13.556 1.153-19.386 1.227-1.163 2.594-2.162 4.074-2.986 2.837 8.736-1.858 19.704-3.385 22.9-.597-.25-1.213-.426-1.84-.528zm-56.13-21.8c1.5.75 2.917 1.672 4.21 2.78-3.038 5.924-.106 16.477 1.05 20.086-.578.173-1.15.408-1.696.723-1.188-2.382-6.718-14.288-3.563-23.588zm70.39 21.507l12.292-21.29c2.232 1.464 4.123 3.31 5.61 5.457-4.098 2.34-8.282 6.13-12.46 11.32-1.79 2.222-3.2 4.242-4.15 5.67-.383-.423-.81-.813-1.29-1.156zM58.11 35.13c-4.26-5.296-8.53-9.13-12.705-11.456 1.552-2.466 3.633-4.563 6.118-6.194l12.354 21.396c-.643.57-1.177 1.23-1.6 1.95-.946-1.432-2.366-3.46-4.166-5.696zm57.403.24c.862-4.198 3.42-13.022 7.56-16.347.22 1.015.39 2.05.455 3.112-.014.025.007.26-.024.406l-4.423 17.344c-.598-1.906-1.886-3.502-3.566-4.513zM82.487 23.055c-.03-.126-.062-.274-.076-.39.03-.884.138-1.75.278-2.602 1.897 1.748 3.657 4.787 5.142 8.97 1.04 2.926 1.674 5.647 1.95 6.958-1.197.96-2.114 2.25-2.613 3.735l-4.68-16.67zm43.308.19c.04-.14.1-.346.166-.487.467-.747.99-1.443 1.54-2.115 1.766 5.553-.997 14.806-1.86 17.436-.284.044-.57.1-.853.177-1.237.33-2.347.942-3.276 1.77l4.284-16.78zm-46.11 15.57c-.904-2.768-3.8-12.53-1.644-17.97.698.767 1.36 1.577 1.95 2.465 0 .028.118.186.152.238l4.867 17.335c-1.474-1.326-3.377-2.047-5.325-2.07zm65.44 2.332c2.09-3.26 8.605-12.716 16.426-17.163.735 1.377 1.336 2.837 1.75 4.384.154.576.28 1.156.382 1.737-4.835.906-9.85 3.89-14.58 8.734-1.368 1.4-2.532 2.768-3.47 3.954-.113-.564-.28-1.118-.51-1.646zm-88.266-.46c-4.683-4.796-9.65-7.77-14.44-8.707.12-.88.272-1.762.506-2.637.335-1.25.79-2.447 1.335-3.59 8.507 4.76 15.512 15.52 16.994 17.9-.11.697-.132 1.41-.057 2.12-1.042-1.397-2.51-3.212-4.34-5.086zm40.814-5.28c0-3.14 2.553-5.693 5.693-5.693.862 0 1.67.208 2.403.553v.038h.073c1.896.926 3.216 2.857 3.216 5.11l-.012 1.49 1.396-.23c.31-.05.62-.074.924-.074 3.14 0 5.693 2.553 5.693 5.69 0 3.14-2.553 5.693-5.693 5.693l-.94.047c-.49-.883-1.012-1.792-1.6-2.752-2.422-3.938-4.773-7.028-4.873-7.156l-.74-.97-.71 1.008c-.097.14-2.438 3.49-4.79 7.696-.417.746-.804 1.468-1.167 2.168l-1.72-.04c-3.14 0-5.692-2.555-5.692-5.693 0-3.137 2.554-5.69 5.692-5.69.46 0 .924.056 1.373.168l1.522.377-.045-1.74zM145.27 47.35c1.46-2.21 9.028-12.994 18.683-14.894.102 1.693.002 3.385-.314 5.042-6.67.306-14.355 8.148-16.898 10.957-.445-.417-.935-.792-1.472-1.105zM42.79 39.38c-.39-1.644-.573-3.327-.548-5.02 8.98 1.91 16.13 11.448 18.136 14.376-.52.394-.976.843-1.373 1.333-2.67-2.91-9.842-10.074-16.215-10.69zm90 2.14c1.57-2.717 5.06-3.652 7.775-2.083 2.72 1.57 3.653 5.06 2.08 7.78l-.745 1.294 1.314.496c.29.11.57.243.836.396 1.318.76 2.26 1.987 2.652 3.455.393 1.47.193 3.003-.57 4.32-.76 1.317-1.985 2.26-3.455 2.652-1.467.393-3 .19-4.32-.57l-.72-.393c.03-.903.05-1.835.045-2.828-.025-4.623-.433-8.485-.45-8.646l-.13-1.217-1.13.495c-.155.07-3.896 1.72-8.09 4.094-.723.41-1.415.814-2.072 1.215l-1.777-.99c-1.317-.76-2.26-1.988-2.653-3.458-.392-1.467-.192-3.003.568-4.318.762-1.317 1.988-2.26 3.457-2.652 1.47-.394 3.003-.19 4.32.567.4.23.77.512 1.106.832l1.13 1.088.83-1.53zM68.7 39.267c.665-.064 1.34-.024 2.002.153 1.21.325 2.238 1.036 2.995 2.008l.002.008v-.002c.162.208.326.41.46.64l.742 1.296 1.09-.89c.242-.198.498-.375.76-.527 2.72-1.57 6.207-.636 7.777 2.082 1.57 2.717.637 6.207-2.082 7.776l-.786.39c-.88-.53-1.805-1.068-2.816-1.618-4.065-2.205-7.645-3.708-7.795-3.77l-1.126-.47-.11 1.227c-.016.17-.373 4.24-.31 9.06.01.925.04 1.8.08 2.648l-1.462.804c-2.72 1.57-6.207.636-7.776-2.083-1.57-2.72-.634-6.208 2.084-7.777.4-.23.828-.413 1.273-.54l1.5-.433-.9-1.485c-1.57-2.72-.637-6.206 2.08-7.776.72-.418 1.51-.65 2.313-.724h.006zM149.01 52.24c-.18-.665-.444-1.29-.772-1.873.882-.983 2.807-3.046 5.195-5.082 3.66-3.118 6.933-4.94 9.564-5.333-.32.996-.702 1.975-1.176 2.924.024-.033-.11.206-.255.376l-12.46 12.76c.263-1.23.24-2.518-.096-3.772zm-54.07 6.668c-.168-4.5 5.422-13.82 8.33-18.158 2.946 4.034 8.62 12.69 8.79 17.2.102 2.803-.69 5.487-2.233 7.56-1.542 2.07-3.652 3.284-5.937 3.41-.135.01-.27.013-.405.013-4.573 0-8.337-4.408-8.546-10.025zm-49.85-14.11s-.273-.26-.442-.47c-.415-.777-.758-1.58-1.067-2.395 2.526.565 5.563 2.32 8.947 5.2 2.41 2.055 4.348 4.136 5.22 5.11-.554 1.433-.693 3.013-.378 4.55L45.09 44.798zm112.81 14.16c2.94-2.71 10.015-9.836 10.638-16.167 1.645-.39 3.328-.573 5.022-.546-1.9 8.928-11.343 16.046-14.33 18.1-.387-.518-.835-.98-1.33-1.386zm9.332-2.1c4.798-4.682 7.77-9.647 8.707-14.438.88.117 1.76.27 2.634.506 1.25.333 2.45.79 3.594 1.335-4.706 8.41-15.27 15.35-17.82 16.94-.69-.115-1.4-.14-2.108-.072 1.382-1.038 3.16-2.48 4.992-4.27zm-3.956-11.933c.1-.09.222-.2.316-.277.777-.414 1.58-.757 2.39-1.065-.563 2.518-2.316 5.564-5.196 8.945-2.013 2.362-4.05 4.27-5.05 5.163-.277-.108-.562-.206-.856-.284-1.222-.328-2.477-.357-3.68-.113l12.076-12.368zM32.463 44c1.672-.1 3.36-.01 5.034.303.33 6.654 8.157 14.332 10.96 16.875-.42.435-.8.92-1.125 1.463-2.24-1.482-12.954-9.02-14.87-18.64zm-8.476 2.376c1.92-1.02 3.99-1.727 6.123-2.103.913 4.824 3.893 9.827 8.728 14.544 1.42 1.387 2.81 2.567 4.007 3.51-.57.106-1.127.27-1.662.494-3.222-2.064-12.73-8.595-17.196-16.444zm15.97-1.438c.988.317 1.967.69 2.92 1.165-.006-.008.3.165.425.296L56.128 58.92c-1.96-.463-4.007-.163-5.742.784-3.188-2.816-9.618-9.486-10.43-14.768zm127.202 17.296c1.425-.948 3.43-2.352 5.632-4.126 5.296-4.26 9.13-8.53 11.456-12.705 2.466 1.553 4.563 3.633 6.192 6.118L169.1 63.844c-.567-.647-1.224-1.183-1.94-1.61zM16.5 53.216c1.485-2.26 3.348-4.137 5.463-5.6 2.34 4.095 6.127 8.277 11.313 12.45 2.227 1.792 4.246 3.206 5.677 4.154-.43.38-.826.806-1.173 1.282L16.5 53.216zm97.505 4.625c-.073-1.93-.874-4.443-2.36-7.484 2.07-.07 3.947-.92 5.34-2.27l-3.064 12.007c.078-.737.112-1.49.085-2.252zM89.62 48.465c1.407 1.188 3.222 1.906 5.202 1.906l.58-.003c-1.67 3.623-2.487 6.53-2.408 8.65.032.87.135 1.717.3 2.53L89.62 48.464zm29.656.317c.642 1.805 1.886 3.31 3.563 4.277l.712.376c-3.297 2.227-5.5 4.284-6.53 6.134-.517.924-.913 1.872-1.22 2.824l3.474-13.61zm-29.67 10.104c-1.01-1.61-2.91-3.356-5.64-5.214 1.682-1.082 2.84-2.695 3.372-4.494l3.238 11.532c-.285-.62-.6-1.232-.97-1.824zm31.59 14.803c-4.205-2.236-5.272-8.148-2.456-13.203 2.193-3.934 11.808-8.998 16.547-11.197.423 4.976.782 15.32-1.417 19.262-1.366 2.45-3.435 4.333-5.83 5.304-1.13.458-2.27.686-3.37.686-1.23 0-2.41-.284-3.474-.853zm-47.58-4.364c-2.39-3.818-2.198-14.682-1.843-19.895 4.566 2.027 13.804 6.696 16.198 10.52 1.49 2.377 2.145 5.1 1.842 7.664-.304 2.566-1.527 4.667-3.443 5.92-1.213.792-2.582 1.167-3.99 1.167-3.217 0-6.625-1.966-8.763-5.377zm96.774-3.47l21.245-12.263c1.198 2.377 1.91 4.92 2.128 7.517-8.82-.035-18.524 4.245-22.84 6.398-.118-.56-.29-1.113-.533-1.65zM15.306 55.286l21.362 12.333c-.278.796-.428 1.628-.443 2.468-4.36-2.174-14.212-6.518-23.107-6.394.108-2.854.835-5.716 2.188-8.407zm132.553 12.77c-1.57-2.716-.634-6.205 2.083-7.774 1.316-.76 2.85-.96 4.32-.568 1.468.395 2.695 1.336 3.454 2.65.232.402.416.83.543 1.277l.436 1.504 1.48-.908c2.72-1.57 6.208-.635 7.777 2.083.432.748.657 1.554.725 2.363-.01.004-.02.013-.025.015l.025.05c.152 2.106-.86 4.223-2.813 5.35l-1.294.742.892 1.088c.198.24.374.498.528.762.76 1.317.962 2.85.568 4.32-.393 1.467-1.335 2.696-2.652 3.456-2.72 1.57-6.206.633-7.777-2.084l-.586-.93c.55-.978 1.106-2.013 1.672-3.15 2.055-4.14 3.43-7.773 3.487-7.926l.43-1.144-1.23-.065c-.173-.007-4.256-.22-9.067.017-.786.037-1.54.087-2.27.145l-.707-1.274zm-98.92-3.282c.11-.292.243-.572.396-.838 1.567-2.718 5.056-3.652 7.775-2.083 2.717 1.57 3.654 5.057 2.084 7.775l-.394.713c-1.052-.032-2.144-.05-3.323-.03-4.624.078-8.48.528-8.642.546L45.62 71l.508 1.124c.072.155 1.762 3.878 4.182 8.044.484.833.96 1.608 1.43 2.352l-.817 1.434c-.76 1.317-1.988 2.258-3.458 2.65-1.467.395-3 .193-4.318-.567-1.317-.762-2.26-1.988-2.652-3.457-.394-1.47-.192-3.003.568-4.32.23-.4.512-.77.832-1.106l1.088-1.13-1.528-.827c-2.718-1.57-3.654-5.06-2.084-7.776 1.57-2.72 5.06-3.652 7.78-2.083l1.292.75.497-1.314zm86.65 4.694c.973-1.747 1.602-4.435 1.897-7.98 1.16.605 2.42.928 3.704.928.634 0 1.268-.087 1.896-.24l-8.133 8.333c.224-.337.437-.683.638-1.04zM69.318 62.15l.457-.268c.367 3.87 1.1 6.737 2.21 8.506 3.495 5.576 9.74 7.99 14.54 5.768l3.496 6.054c-1.314.847-2.548 1.807-3.686 2.87l-22.53-22.002c.49.09.985.153 1.485.153 1.37 0 2.755-.346 4.027-1.08zm101.72 7.982c3.464-1.79 13.798-6.7 22.787-6.638-.053 1.56-.263 3.125-.677 4.67-.156.576-.338 1.142-.54 1.696-4.64-1.632-10.474-1.558-16.99.273-1.883.53-3.572 1.13-4.974 1.688.19-.548.325-1.114.395-1.688zm-77.165-6.52c1.53 4.283 4.89 7.312 8.857 7.662v6.87c-1.576.074-3.11.294-4.598.64l-4.26-15.17zm28.968 22.722l.604-.62 21.395-21.908c-.32 1.81-.036 3.733.95 5.444l.21.337c-4.07.502-7.036 1.36-8.825 2.575-5.303 3.595-7.52 9.687-5.423 14.362l-6.048 3.49c-.844-1.31-1.803-2.543-2.864-3.68zM111.5 79.24l3.816-14.944c-.806 4.478.63 8.783 3.987 11.024l-3.33 5.764c-1.418-.746-2.914-1.368-4.472-1.845zm-6.384-1.098v-6.98c2.364-.444 4.515-1.848 6.15-4.043.632-.85 1.15-1.79 1.573-2.784l-3.65 14.308c-1.323-.273-2.686-.44-4.074-.502zm-36.19-5.887c-1.673-.91-4.192-1.497-7.49-1.77.947-1.837 1.13-3.884.637-5.758l10.12 9.88c-.963-.903-2.06-1.697-3.266-2.352zM88.54 74.87c1.832-1.564 3-3.858 3.322-6.582.118-.998.104-2.016-.01-3.033l3.98 14.174c-1.297.43-2.548.96-3.746 1.585L88.54 74.87zm-75.363-8.793c9.64-.118 20.925 5.562 23.564 6.965.24.66.552 1.28.946 1.844-1.587-.674-3.708-1.483-6.153-2.172-6.443-1.81-12.22-1.904-16.835-.33-.832-2.008-1.35-4.135-1.52-6.307zm154.916 9.486c2.473-1.23 14.322-6.693 23.573-3.53-.757 1.518-1.688 2.932-2.792 4.21-5.896-3.048-16.417-.14-20.067 1.027-.17-.59-.408-1.16-.714-1.707zm-27.5 14.314c-2.574-.21-4.72-1.356-6.042-3.225-2.747-3.89-1.04-9.65 3.75-12.9 3.726-2.526 14.59-2.725 19.813-2.558-1.86 4.636-6.193 14.034-9.93 16.566-2.063 1.403-4.426 2.15-6.735 2.15-.287 0-.572-.01-.856-.033zm-80.463-.675c-3.958-2.15-9.128-11.706-11.38-16.422 4.97-.477 15.31-.95 19.278 1.204 2.465 1.337 4.37 3.387 5.367 5.77.997 2.383.966 4.815-.09 6.847-1.38 2.672-4.245 4.11-7.448 4.11-1.868 0-3.852-.49-5.727-1.508zM15.728 74.537c8.704-2.815 19.612 1.83 22.85 3.376-.26.593-.438 1.21-.546 1.84-3.8-1.19-13.512-3.76-19.316-1.144-1.17-1.245-2.17-2.61-2.988-4.073zm112.707 1.438c.887-.36 1.73-.83 2.532-1.382l-7.93 8.122-1.905 1.948c-.97-.863-2.008-1.655-3.102-2.366l3.426-5.937c.918.3 1.883.45 2.874.45 1.34 0 2.727-.276 4.105-.835zM75.83 86.78c.858-2.282.753-4.886-.317-7.444-.665-1.59-1.66-3.06-2.917-4.333l12.037 11.753.032.03c-.985 1.105-1.876 2.296-2.663 3.557l-6.17-3.564zm93.033-5.152c.173-.646.255-1.3.27-1.952 2.803-.915 12.534-3.792 17.957-1.63-.775.702-1.595 1.36-2.48 1.944-.028 0-.24.138-.374.188l-17.24 4.842c.88-.95 1.523-2.106 1.867-3.392zm-145.467.535s-.444-.123-.638-.203c-.75-.47-1.443-.994-2.11-1.542 5.5-1.746 14.628.947 17.352 1.834.046.318.105.633.188.947.32 1.19.9 2.26 1.68 3.168l-16.472-4.205zm66.45 3.073c3.93-2.97 8.82-4.736 14.115-4.736 5.424 0 10.42 1.856 14.4 4.96l-10.847 10.846v-2.09c1.26-1.038 1.994-2.58 1.994-4.237 0-2.764-3.907-6.506-4.69-7.23l-.81-.745-.81.745c-.782.724-4.69 4.466-4.69 7.23 0 1.668.74 3.213 2.013 4.252v1.674l-10.673-10.67zm78.268 1.954l16.57-4.652c.118-.03.394-.096.573-.13.882.033 1.748.137 2.607.276-1.748 1.9-4.79 3.66-8.975 5.145-2.963 1.052-5.716 1.69-7.005 1.96-.972-1.196-2.277-2.11-3.77-2.6zm5.024 4.775c3.878-.868 13.616-3.502 17.333-8.69 1.62.484 3.17 1.167 4.623 2.036-6.12 6.8-17.898 8.235-21.482 8.516-.082-.647-.245-1.27-.472-1.86zm-23.83-2.61c1.534-1.04 3.163-2.92 4.87-5.603 1.103 1.796 2.798 3.016 4.694 3.55l-11.77 3.305c.758-.353 1.497-.772 2.206-1.253zm-130.29-4.506c1.017-.222 2.05-.39 3.115-.455.123.002.523.06.65.076l17.147 4.38c-1.9.598-3.494 1.89-4.502 3.57-4.173-.848-13.066-3.408-16.41-7.57zm29.84 3.813c1.74-.657 3.19-1.884 4.132-3.515l.234-.4c2.186 3.113 4.2 5.202 6.008 6.184.627.34 1.264.62 1.905.865l-12.28-3.134zm54.05 11.32v-7.02l-.558-.35c-.912-.575-1.456-1.56-1.456-2.634 0-1.06 1.648-3.168 3.114-4.68 1.465 1.51 3.113 3.617 3.113 4.68 0 1.067-.54 2.05-1.443 2.626l-.552.35v7.027h6.986l.353-.542c.58-.885 1.554-1.413 2.61-1.413 1.058 0 3.165 1.648 4.68 3.114-1.513 1.465-3.62 3.113-4.68 3.113-1.174 0-2.237-.65-2.774-1.7l-.333-.65h-6.842v13.1l.527.356c.86.58 1.373 1.545 1.373 2.58 0 1.06-1.65 3.168-3.114 4.68-1.463-1.51-3.11-3.617-3.11-4.68 0-1.108.568-2.108 1.524-2.676l.583-.347v-13.013h-6.983l-.34.624c-.545 1.006-1.595 1.63-2.737 1.63-1.06 0-3.167-1.65-4.68-3.115 1.51-1.465 3.618-3.11 4.68-3.11 1.09 0 2.082.552 2.653 1.48l.35.57h7.057zm-90.846-12.2c1.4-.924 2.904-1.69 4.513-2.256 3.614 5.6 14.246 8.338 17.935 9.136-.14.59-.225 1.197-.23 1.827-2.638-.16-15.736-1.317-22.218-8.708zm163.692 8.235c1.728-.207 4.025-.57 6.553-1.212 6.496-1.657 11.552-4.47 14.76-8.15.703.54 1.39 1.114 2.028 1.752.917.917 1.727 1.91 2.445 2.955-8.347 4.97-21.107 5.67-23.97 5.766-.55-.447-1.16-.822-1.816-1.112zM80.5 103.96c0-6.78 2.895-12.896 7.512-17.184l10.82 10.82h-1.7c-1.037-1.297-2.594-2.053-4.285-2.053-2.762 0-6.505 3.91-7.228 4.692l-.747.808.746.81c.722.782 4.465 4.69 7.227 4.69 1.77 0 3.414-.847 4.44-2.252h1.544L85.154 117.97c-2.92-3.912-4.652-8.76-4.652-14.008zm39.67-16.934c4.462 4.273 7.25 10.282 7.25 16.934 0 5.235-1.725 10.075-4.636 13.98l-13.65-13.65h1.43c1.02 1.467 2.688 2.35 4.51 2.35 2.76 0 6.504-3.907 7.226-4.69l.746-.81-.746-.81c-.722-.784-4.465-4.69-7.227-4.69-1.64 0-3.167.72-4.206 1.955h-1.264l10.568-10.57zm6.734 5.053l6.12-3.533c1.635 1.96 4.075 3.166 6.965 3.403.81.067 1.632.052 2.453-.035l-13.954 3.918c-.43-1.3-.963-2.553-1.586-3.754zm-52.217-3.204l6.15 3.552c-.636 1.274-1.176 2.607-1.598 3.99l-14.756-3.767c.6.08 1.196.12 1.783.12 3.438 0 6.555-1.35 8.42-3.894zm86.893 26.558c-1.074-1.075-1.668-2.505-1.668-4.025l-.02-.963c.904-.497 1.83-1.03 2.813-1.633 3.938-2.422 7.026-4.773 7.157-4.872l.97-.742-1.008-.71c-.14-.097-3.492-2.44-7.698-4.79-.774-.433-1.52-.83-2.244-1.205l.03-1.63c0-3.136 2.554-5.69 5.694-5.69s5.693 2.554 5.693 5.69c0 .463-.06.925-.17 1.376l-.374 1.522 1.735-.046c3.14 0 5.695 2.554 5.695 5.693 0 .843-.196 1.638-.528 2.36h-.04l-.003.074c-.807 1.69-2.41 2.906-4.332 3.177h-.046v.005c-.248.034-.493.076-.75.076l-1.492-.01.227 1.396c.054.308.08.618.08.923 0 1.52-.593 2.95-1.67 4.024-1.073 1.075-2.504 1.666-4.023 1.666-1.522 0-2.95-.59-4.027-1.666zM5.91 94.077c1.153-1.845 2.59-3.49 4.25-4.882 3.204 3.72 8.286 6.564 14.83 8.23 1.912.488 3.692.814 5.194 1.035-.436.377-.832.798-1.177 1.26-3.843-.178-15.317-1.086-23.096-5.643zm153.568-4.462c-1.213 1.412-1.952 3.245-1.952 5.25l-.01.482c-3.574-1.637-6.45-2.44-8.55-2.364-.94.037-1.848.158-2.722.346l13.234-3.715zM36.74 97.478c-.05-.308-.075-.62-.075-.923 0-3.14 2.553-5.693 5.693-5.693 3.138 0 5.69 2.554 5.69 5.693l.033.795c-.947.52-1.93 1.082-2.967 1.72-3.94 2.423-7.028 4.775-7.157 4.875l-.973.74 1.01.707c.142.1 3.492 2.442 7.697 4.792.825.463 1.616.882 2.387 1.276l-.028 1.636c0 3.14-2.554 5.692-5.692 5.692-3.14 0-5.693-2.552-5.693-5.69 0-.463.056-.925.168-1.374l.378-1.523-1.738.048c-3.14 0-5.693-2.554-5.693-5.692 0-3.14 2.553-5.693 5.692-5.693l1.495.002-.226-1.387zm11.423-6.528l11.887 3.033c-.778-.088-1.572-.123-2.374-.092-1.883.07-4.32.832-7.26 2.25-.104-2.012-.94-3.83-2.253-5.19zm131.352 8.48c4.844-.292 15.597-1.45 23.26-6.025 1.355 2.575 2.13 5.42 2.3 8.382h-24.672c-.172-.84-.475-1.632-.888-2.356zm-50.38-1.298l15.38-4.317c-4.337 1.497-7.425 4.862-7.803 8.848h-6.94c-.076-1.55-.296-3.062-.636-4.53zm13.338 11.685c-2.072-1.542-3.282-3.65-3.41-5.938-.27-4.756 4.23-8.734 10.01-8.95 4.503-.167 13.82 5.422 18.16 8.332-4.034 2.945-12.69 8.618-17.2 8.787-.164.005-.328.008-.49.008-2.624 0-5.118-.787-7.07-2.24zm-75.52-13.19c-.882-.654-1.857-1.19-2.894-1.62l14.584 3.722c-.288 1.408-.458 2.857-.508 4.338h-7.094c-.382-2.477-1.805-4.74-4.09-6.44zm-26.37 7.996c4.036-2.945 12.69-8.62 17.202-8.787 2.802-.103 5.487.69 7.558 2.23 2.072 1.544 3.283 3.65 3.413 5.938.27 4.755-4.233 8.736-10.012 8.95-.067.003-.135.004-.203.004-4.57 0-13.68-5.47-17.958-8.335zm-35.81-8.45c7.653 4.458 18.24 5.593 23.023 5.88-.176.54-.304 1.106-.363 1.69H2.846c.154-2.695.828-5.25 1.927-7.57zm175.407 9.697c.176-.543.3-1.107.353-1.694h24.54c-.154 2.694-.828 5.248-1.927 7.568-7.622-4.438-18.155-5.58-22.966-5.874zm-50.906 3.32c.277-1.344.446-2.728.505-4.14h7.028c.433 2.386 1.843 4.56 4.056 6.207.887.66 1.87 1.202 2.916 1.63l-14.506-3.698zm-70.422 5.71c6.462-.24 11.613-4.305 12.24-9.445h7.066c.087 1.48.3 2.928.626 4.333l-2.952.83-27.28 7.655c1.175-1.402 1.886-3.207 1.886-5.177l-.012-.502c3.357 1.526 6.092 2.312 8.14 2.312.096 0 .192 0 .286-.006zm27.834 4.912l13.834-13.832v7.632c-1.316 1.035-2.11 2.636-2.11 4.33 0 2.76 3.91 6.504 4.692 7.226l.81.748.81-.748c.782-.722 4.69-4.467 4.69-7.227 0-1.61-.698-3.12-1.9-4.158v-7.734l13.743 13.742c-4.292 4.685-10.455 7.63-17.294 7.63-6.828 0-12.984-2.936-17.274-7.608zm-83.84-13.68H27.55c.167.84.467 1.632.872 2.357-4.834.288-15.604 1.446-23.28 6.025-1.353-2.574-2.128-5.42-2.296-8.382zm180.082 4.362c-1.877-.48-3.627-.8-5.112-1.02.432-.382.828-.804 1.173-1.27 3.915.188 15.297 1.117 23.02 5.64-1.153 1.844-2.592 3.488-4.253 4.88-3.202-3.72-8.285-6.56-14.83-8.23zM8.823 119.512c-.917-.917-1.726-1.91-2.443-2.955 8.34-4.966 21.09-5.67 23.965-5.764.54.444 1.14.82 1.784 1.113-1.725.207-4.006.57-6.516 1.208-6.498 1.657-11.553 4.472-14.76 8.15-.705-.54-1.393-1.114-2.03-1.752zm164.64-6.243c.14-.598.22-1.21.22-1.837 2.734.17 15.733 1.366 22.173 8.705-1.396.922-2.906 1.69-4.51 2.255-3.6-5.573-14.148-8.312-17.884-9.124zm-46.45 2.353c.67-1.315 1.23-2.69 1.668-4.12l15.898 4.057c-4.46-.992-8.825.21-11.29 3.263l-6.275-3.2zm23.128-1.63c1.914-.07 4.398-.857 7.4-2.317.065 1.983.837 3.84 2.202 5.28l-11.99-3.057c.603.068 1.213.105 1.832.105.185 0 .37-.003.557-.01zm-76.45-.295l5.738-1.613c.415 1.246.92 2.45 1.51 3.603l-6.48 3.74c-1.537-1.666-3.703-2.75-6.264-3.08-1.74-.223-3.543-.09-5.303.382l10.8-3.032zm-60.865 8.91c6.146-6.823 17.98-8.242 21.52-8.518.08.648.238 1.27.463 1.858-3.86.863-13.634 3.495-17.36 8.697-1.62-.484-3.168-1.167-4.623-2.037zm172.45.858l-17.167-4.376c1.198-.39 2.296-1.054 3.21-1.968.49-.488.9-1.03 1.24-1.61 4.205.863 13.02 3.42 16.34 7.56-1.013.22-2.048.388-3.112.453-.024-.014-.33-.01-.512-.06zm-36.907-6.523c-.99-.516-2-.9-3.013-1.186l13.884 3.545c-1.83.637-3.356 1.888-4.334 3.58l-.222.418c-2.317-3.235-4.437-5.38-6.316-6.357zm-99.196 3.638l13.355-3.747c-1.295.38-2.562.942-3.76 1.677-1.583.97-3.302 2.777-5.135 5.387-1.082-1.654-2.68-2.788-4.46-3.316zm90.692 13.457c-2.488-1.294-4.43-3.312-5.466-5.678-1.038-2.367-1.047-4.8-.027-6.85 2.12-4.266 7.997-5.496 13.13-2.824 3.994 2.082 9.325 11.55 11.66 16.225-2.373.27-5.974.56-9.522.56-3.874 0-7.687-.345-9.774-1.433zm-15.655-11.972l-.956-.932c.952-1.068 1.815-2.216 2.582-3.432l6.22 3.174c-1.032 2.416-.966 5.21.23 7.94.425.967.983 1.88 1.635 2.734l-9.71-9.483zm-48.382-.67l6.294-3.635c.866 1.368 1.857 2.648 2.957 3.826l-11.933 12.21c3.49-3.613 4.658-8.508 2.68-12.4zm-55.77 3.84c1.747-1.898 4.788-3.66 8.97-5.147 2.973-1.055 5.73-1.692 7.017-1.96.955 1.194 2.24 2.11 3.718 2.612l-16.727 4.698v.002c-.12.032-.26.062-.373.07-.882-.03-1.75-.135-2.606-.274zm29.073 11.01c2.074-4.546 6.835-13.734 10.685-16.092 2.39-1.466 5.118-2.09 7.68-1.76 2.564.327 4.653 1.57 5.885 3.5 2.568 4.013.597 9.688-4.338 12.71-2.455 1.504-7.778 1.923-12.66 1.923-2.756 0-5.37-.134-7.25-.28zm103.344 1.252c4.622-.158 8.47-.672 8.63-.695l1.214-.164-.527-1.115c-.073-.155-1.826-3.847-4.317-7.97-.404-.67-.802-1.305-1.195-1.913l.697-1.564c.76-1.316 1.986-2.258 3.456-2.65 1.47-.394 3.003-.194 4.32.568 1.317.758 2.26 1.986 2.652 3.457.393 1.47.19 3.002-.568 4.32-.23.4-.512.77-.832 1.105L164.918 132l1.524.834c1.317.76 2.26 1.988 2.652 3.456.394 1.468.193 3.002-.568 4.32-.42.73-.986 1.316-1.63 1.776l-.052-.03-.058.097c-1.525 1.033-3.488 1.285-5.265.587-.048-.03-.083-.052-.093-.06l-.01.013c-.225-.094-.453-.178-.67-.302l-1.288-.758-.502 1.326c-.11.29-.243.572-.396.836-.76 1.32-1.988 2.26-3.456 2.653-1.47.392-3.003.19-4.32-.568-1.316-.762-2.258-1.99-2.65-3.458-.395-1.47-.192-3.002.568-4.32l.57-.878c.328.005.66.008.997.008.708 0 1.438-.01 2.204-.035zm17.407-11.842c-.04-.276-.1-.55-.17-.824-.337-1.252-.96-2.38-1.807-3.315l16.794 4.286c.138.045.33.107.466.16.747.467 1.443.99 2.115 1.54-1.3.413-2.8.58-4.37.58-5.115 0-10.975-1.755-13.027-2.425zM39.99 141.535c-.416-.72-.648-1.51-.724-2.31l.003-.005-.003-.003c-.06-.664-.02-1.338.156-2 .323-1.21 1.033-2.238 2.008-2.996l.007-.002v-.002c.207-.16.41-.325.64-.46l1.293-.742-.89-1.09c-.196-.24-.373-.495-.527-.76-.76-1.316-.96-2.85-.568-4.32.395-1.468 1.335-2.696 2.654-3.456 2.718-1.57 6.205-.636 7.775 2.084l.35.664c-.593.947-1.193 1.948-1.803 3.048-2.247 4.042-3.786 7.606-3.85 7.756l-.483 1.123 1.226.122c.173.017 4.24.417 9.06.404 1.036-.004 2.007-.033 2.947-.073l.825 1.28c1.57 2.718.635 6.208-2.083 7.777-1.318.76-2.852.962-4.32.57-1.47-.395-2.697-1.337-3.456-2.654-.23-.4-.415-.828-.544-1.273l-.434-1.507-1.482.91c-.894.515-1.872.76-2.836.76-1.97 0-3.887-1.02-4.94-2.844zm78.02-15.896c1.276-.828 2.47-1.766 3.577-2.8l11.654 11.38c-3.49-3.175-8.06-4.275-11.785-2.612l-3.448-5.97zm-97.165 4.238c.768-.696 1.58-1.36 2.47-1.948.028 0 .266-.148.446-.213l17.12-4.807c-.844.935-1.467 2.062-1.803 3.317-.18.664-.26 1.34-.27 2.01-2.048.67-7.908 2.424-13.023 2.424-1.808 0-3.52-.22-4.94-.782zm65.943-6.623c1.096.977 2.276 1.86 3.525 2.64l-3.994 5.96c-2.177-.69-4.614-.55-7.013.46-1.22.51-2.364 1.227-3.407 2.095l10.89-11.155zm28.674 17.257l-3.373-12.02c1.338-.446 2.63-.996 3.863-1.646l3.478 6.024c-1.9 1.58-3.102 3.927-3.413 6.716-.11.984-.09 1.982.022 2.98l-.577-2.054zm-26.965-7.618l3.904-5.826c1.28.643 2.624 1.187 4.017 1.613l-3.835 15c.69-4.408-.78-8.602-4.087-10.786zm80.866-2.878c.25-.598.426-1.218.524-1.85 2.604.815 7.988 2.283 12.99 2.283 2.303 0 4.52-.317 6.35-1.147 1.16 1.23 2.16 2.596 2.986 4.074-1.958.636-4.028.894-6.096.894-7.116 0-14.225-3.05-16.753-4.254zm-64.016 6.65v-6.897c1.52-.083 3.002-.302 4.442-.633l4.34 15.466c-1.46-4.372-4.8-7.51-8.782-7.938zm-6.592-7.387c1.364.28 2.77.446 4.203.503l.002 6.952c-2.43.408-4.646 1.83-6.32 4.076-.6.808-1.097 1.7-1.507 2.636l3.622-14.167zm-59.603 1.36c.174.583.41 1.15.723 1.696-2.386 1.187-14.302 6.71-23.588 3.563.75-1.503 1.672-2.92 2.783-4.213 1.903.976 4.274 1.343 6.75 1.343 5.238 0 10.886-1.61 13.33-2.39zm131.955 4.197c-.262-.674-.608-1.3-1.032-1.873 1.602.69 3.785 1.53 6.313 2.24 3.445.968 6.703 1.452 9.695 1.452 2.617 0 5.01-.392 7.165-1.13.34.822.646 1.66.88 2.535.336 1.253.54 2.517.638 3.78-.112.003-.226.004-.338.004-9.65 0-20.856-5.69-23.32-7.007zM119.96 147.9c-1.507-2.364-2.177-5.082-1.89-7.65.286-2.567 1.494-4.677 3.403-5.94 3.97-2.632 9.678-.757 12.78 4.126 2.416 3.8 2.293 14.667 1.972 19.882-4.58-1.997-13.844-6.607-16.266-10.417zm-46-8.096c1.334-2.465 3.382-4.374 5.763-5.374 2.382-1 4.814-.97 6.848.083 4.23 2.185 5.37 8.085 2.617 13.17-2.146 3.962-11.698 9.143-16.41 11.4-.485-4.97-.967-15.31 1.183-19.28zm-11.81-1.2l-.165-.273c3.66-.342 6.39-1.034 8.107-2.085 1.065-.65 2.01-1.407 2.84-2.23l-9.837 10.067c.332-1.818.047-3.757-.946-5.48zm74.806-4.092c.64.467 1.32.895 2.038 1.27 1.69.882 4.222 1.427 7.53 1.644-.946 1.756-1.208 3.762-.74 5.703l-8.828-8.618zm-1.08 2.848c-.577-.913-1.237-1.727-1.944-2.46l10.153 9.917c-1.806-.32-3.73-.034-5.437.952l-.485.256c-.387-3.96-1.148-6.877-2.286-8.666zm-103.572.425c1.887-.53 3.582-1.134 4.99-1.692-.06.17-.134.33-.18.504-.107.393-.172.787-.217 1.185-3.45 1.78-13.807 6.705-22.794 6.644.078-2.174.5-4.318 1.242-6.356 2.18.763 4.608 1.167 7.264 1.167 2.992 0 6.25-.484 9.694-1.452zm41.45-1.182c-.563.715-1.08 1.483-1.527 2.305-.906 1.676-1.49 4.198-1.763 7.5-1.748-.898-3.73-1.132-5.642-.65l8.933-9.155zm97.51 3.707c.27-.806.404-1.642.408-2.487 4.285 2.14 13.94 6.41 22.754 6.41.13 0 .26-.007.39-.008-.115 2.906-.868 5.76-2.203 8.41l-21.348-12.325zm-75.418 9.67c-.104-2.804.688-5.488 2.23-7.56 1.543-2.072 3.652-3.285 5.938-3.412 4.754-.27 8.736 4.23 8.95 10.013.168 4.5-5.422 13.82-8.33 18.16-2.946-4.035-8.62-12.692-8.788-17.2zm-58.823-9.577c.12.56.302 1.11.545 1.64l-21.283 12.29c-1.214-2.414-1.907-4.963-2.115-7.52l.095.002c8.815 0 18.476-4.275 22.758-6.412zm137.62 7.45c-2.195-1.768-4.19-3.167-5.62-4.115.426-.384.818-.814 1.16-1.296l21.236 12.262c-1.485 2.26-3.348 4.137-5.465 5.6-2.338-4.097-6.127-8.277-11.312-12.45zM17.478 156.4l21.398-12.354c.568.643 1.228 1.177 1.948 1.6-1.43.946-3.46 2.366-5.698 4.165-5.293 4.262-9.128 8.53-11.456 12.707-2.464-1.553-4.56-3.633-6.192-6.118zm151.604-7.297c-1.383-1.35-2.73-2.497-3.903-3.428.567-.113 1.122-.283 1.653-.514 3.314 2.133 12.676 8.613 17.1 16.384-1.923 1.02-3.99 1.725-6.126 2.103-.912-4.823-3.893-9.828-8.725-14.544zm1.338 14.514c-.33-6.62-8.072-14.25-10.91-16.832.42-.447.797-.94 1.11-1.482 2.31 1.532 12.93 9.043 14.835 18.617-.43.026-.864.038-1.296.038-1.247 0-2.497-.108-3.74-.34zm-55.51-14.705c-.036-1.005-.176-1.97-.388-2.898l3.763 13.407c-1.405-1.18-3.214-1.892-5.188-1.892l-.588.022c1.665-3.617 2.48-6.52 2.4-8.638zm-29.764 5.95l-.465-.226c3.145-2.204 5.25-4.234 6.237-6.055.387-.715.707-1.444.97-2.178l-3.222 12.613c-.636-1.69-1.836-3.18-3.52-4.152zm-55.8 10.134c-1.253-.337-2.45-.79-3.594-1.337 4.76-8.51 15.523-15.516 17.905-16.995.696.11 1.406.132 2.116.056-1.394 1.045-3.21 2.512-5.086 4.342-4.8 4.682-7.77 9.65-8.708 14.44-.88-.12-1.76-.272-2.635-.506zm87.948-17.952c.302.66.642 1.31 1.04 1.935 1.028 1.614 2.96 3.364 5.742 5.22-1.7 1.063-2.925 2.684-3.477 4.616l-3.306-11.772zm20.904 13.122c.015-.173.342-4.247.25-9.063-.015-.845-.044-1.657-.084-2.435l1.477-.832c2.72-1.57 6.21-.633 7.777 2.085.76 1.318.962 2.852.568 4.32-.393 1.47-1.334 2.697-2.652 3.456-.4.23-.83.414-1.273.54l-1.5.434.9 1.485c.763 1.318.965 2.852.57 4.32-.392 1.47-1.335 2.697-2.65 3.457-.747.43-1.55.654-2.357.724l-.002-.003-.004.003c-2.13.177-4.276-.84-5.414-2.81l-.744-1.296-1.088.89c-.243.198-.498.375-.763.528-1.317.76-2.85.963-4.32.568-1.47-.393-2.696-1.334-3.455-2.652-.762-1.316-.963-2.85-.57-4.32.394-1.468 1.338-2.695 2.654-3.455l.886-.452c.86.51 1.76 1.026 2.744 1.55 4.08 2.18 7.668 3.66 7.818 3.72l1.132.466.102-1.228zm-103.838 5.51c1.91-8.977 11.447-16.125 14.375-18.134.392.514.838.975 1.333 1.376-2.91 2.675-10.06 9.843-10.686 16.21-1.543.368-3.118.552-4.705.552-.105 0-.21 0-.317-.003zm33.06 2.807c-1.317-.76-2.26-1.988-2.652-3.457-.395-1.47-.19-3.003.57-4.32l.762-1.29-1.327-.502c-.292-.11-.573-.243-.838-.396-2.718-1.57-3.652-5.056-2.084-7.775.76-1.317 1.99-2.26 3.456-2.652 1.47-.392 3.005-.19 4.322.57l.695.45c-.03 1.03-.044 2.1-.025 3.25.082 4.624.538 8.48.556 8.64l.144 1.216 1.124-.51c.157-.07 3.876-1.766 8.04-4.19.814-.476 1.573-.94 2.3-1.4l1.49.815c2.72 1.57 3.654 5.06 2.085 7.776-.76 1.317-1.988 2.26-3.458 2.654-1.47.392-3.003.19-4.32-.57-.4-.23-.772-.512-1.104-.832l-1.136-1.093-.825 1.533c-1.05 1.825-2.97 2.846-4.94 2.846-.964 0-1.94-.244-2.836-.76zM93.97 147.98c-.066.692-.098 1.396-.07 2.108.07 1.925.867 4.428 2.345 7.456-2.053.076-3.912.918-5.296 2.253l3.022-11.818zm61.75 1.073c.67-.18 1.297-.445 1.883-.776 3.213 2.855 9.553 9.466 10.358 14.704-.99-.315-1.968-.687-2.92-1.16-.016-.027-.267-.142-.415-.29l-12.692-12.395c.554.12 1.115.197 1.684.197.702 0 1.408-.092 2.103-.28zm-108.588 6.34c2.05-2.407 4.13-4.343 5.103-5.216.27.103.542.196.824.27.698.187 1.404.28 2.106.28.545 0 1.082-.072 1.615-.183l-11.998 12.28s-.277.304-.455.448c-.778.416-1.58.757-2.39 1.065.562-2.518 2.316-5.564 5.197-8.943zm108.258 5.392c-2.38-2.027-4.3-4.082-5.186-5.07.11-.278.208-.562.285-.857.327-1.22.358-2.47.117-3.675l12.223 11.94s.264.268.448.485c.412.775.75 1.572 1.053 2.376-2.518-.566-5.56-2.32-8.938-5.2zm-109.294 4.26c.026-.014.138-.27.302-.418l12.495-12.8c-.434 1.945-.115 3.97.834 5.68-2.808 3.183-9.51 9.654-14.806 10.46.32-.995.7-1.973 1.174-2.92zm101.46-5.838c.516-.39.98-.836 1.383-1.33 2.692 2.925 9.824 10.023 16.168 10.66.39 1.663.576 3.346.55 5.018-8.947-1.913-16.07-11.394-18.1-14.348zM44.28 170.422c6.684-.314 14.415-8.22 16.928-10.992.437.416.923.792 1.46 1.11-1.41 2.14-9 13.015-18.702 14.924-.103-1.695-.003-3.387.314-5.042zm46.582-4.816c0-3.138 2.555-5.692 5.693-5.692l.927-.012c.49.883 1.01 1.79 1.6 2.748 2.42 3.94 4.773 7.027 4.87 7.157l.744.97.708-1.008c.1-.14 2.438-3.492 4.79-7.696.412-.733.794-1.445 1.152-2.137l1.75-.023c3.14 0 5.693 2.554 5.693 5.692 0 3.14-2.555 5.693-5.693 5.693-.463 0-.925-.057-1.375-.17l-1.516-.376.04 1.74c0 3.137-2.552 5.69-5.692 5.69-.86 0-1.67-.207-2.403-.552v-.016h-.033c-1.917-.917-3.254-2.862-3.254-5.13l.002-1.49-1.39.227c-.304.05-.614.076-.92.076-3.14 0-5.693-2.555-5.693-5.694zm55.822-1.31c.115-.702.143-1.406.073-2.103 1.04 1.39 2.495 3.185 4.305 5.04 4.673 4.788 9.63 7.76 14.413 8.703-.284 2.155-.898 4.255-1.836 6.22-8.465-4.744-15.435-15.42-16.956-17.86zM44.62 179.555c-.156-.58-.28-1.16-.382-1.74 4.834-.907 9.85-3.89 14.58-8.732 1.398-1.434 2.584-2.833 3.534-4.038.036.2.055.4.108.598.1.368.232.722.378 1.066-2.05 3.202-8.6 12.75-16.47 17.227-.734-1.376-1.334-2.837-1.748-4.382zm83.31 5.055c0-.028-.163-.292-.246-.556l-4.79-17.066c.948.872 2.096 1.51 3.376 1.855.652.174 1.313.256 1.972.268 1.354 4.054 3.566 13.003 1.636 17.965-.697-.768-1.36-1.578-1.947-2.464zm16.132-15.534c.64-.558 1.178-1.214 1.608-1.94.95 1.43 2.36 3.442 4.14 5.657 4.257 5.29 8.523 9.123 12.696 11.45-1.522 2.422-3.586 4.54-6.108 6.198l-12.336-21.364zm-61.787.774c.308-.044.616-.103.923-.185 1.192-.32 2.265-.9 3.174-1.683l-4.23 16.542s-.1.42-.183.64c-.468.746-.993 1.442-1.54 2.114-1.764-5.548.99-14.79 1.855-17.428zm2.118 15.937c.015-.024-.013-.27.053-.536l4.4-17.22c.6 1.9 1.888 3.494 3.565 4.5-.855 4.19-3.413 13.04-7.563 16.37-.22-1.015-.387-2.05-.454-3.113zm47.295 3.068c3.036-5.916.114-16.45-1.044-20.072.584-.174 1.155-.41 1.698-.718 1.205 2.422 6.698 14.305 3.555 23.57-1.498-.75-2.916-1.67-4.21-2.78zm-11.6-9.965c-1.044-2.942-1.678-5.676-1.95-6.978 1.19-.956 2.106-2.242 2.608-3.722l4.613 16.444s.116.44.148.638c-.032.88-.138 1.74-.277 2.588-1.897-1.75-3.654-4.79-5.14-8.97zm-72.483 7.073c4.098-2.34 8.285-6.13 12.462-11.32 1.806-2.242 3.228-4.277 4.176-5.71.384.43.81.822 1.285 1.163L53.216 191.42c-2.23-1.464-4.123-3.312-5.61-5.457zm30.333-16.675c.592.254 1.208.432 1.835.536-1.182 3.76-3.8 13.563-1.156 19.4-1.23 1.16-2.595 2.16-4.075 2.984-2.845-8.758 1.88-19.754 3.396-22.92zm-4.86 1.827c.653-.243 1.275-.573 1.85-.98-.683 1.597-1.51 3.756-2.212 6.252-1.815 6.455-1.907 12.24-.322 16.858-.822.34-1.66.646-2.535.88-1.253.335-2.517.542-3.78.64-.132-9.723 5.654-21.135 6.997-23.65zm67.32-.224c.56-.114 1.11-.29 1.647-.535l12.285 21.28c-2.413 1.214-4.96 1.907-7.518 2.115.03-8.843-4.267-18.56-6.413-22.86zm-2.327 21.684c1.62-4.633 1.543-10.456-.284-16.958-.53-1.885-1.13-3.577-1.69-4.982.545.19 1.11.316 1.68.384 1.78 3.445 6.705 13.805 6.65 22.798-2.174-.077-4.317-.5-6.355-1.242zm-82.786.04l12.373-21.43c.807.276 1.637.426 2.466.44-2.164 4.323-6.562 14.243-6.432 23.19-2.905-.113-5.757-.866-8.406-2.2zm58.81-18.995c.648-.083 1.27-.242 1.863-.465.87 3.88 3.5 13.583 8.67 17.304-.492 1.635-1.174 3.184-2.034 4.62-6.78-6.122-8.215-17.873-8.5-21.46zm-28.567 17.725c5.58-3.602 8.316-14.17 9.126-17.893.59.14 1.202.225 1.834.23-.172 2.727-1.365 15.733-8.705 22.175-.925-1.397-1.69-2.905-2.255-4.512zm25.267-13.728c.446-.543.822-1.144 1.116-1.79.207 1.72.57 3.987 1.204 6.48 1.654 6.484 4.46 11.535 8.133 14.743-1.325 1.724-2.907 3.238-4.702 4.47-4.933-8.3-5.65-20.947-5.75-23.903zm-21.6 20.142c3.72-3.206 6.563-8.286 8.232-14.83.484-1.897.807-3.662 1.027-5.158.378.437.8.835 1.264 1.184-.185 3.884-1.106 15.31-5.64 23.053-1.845-1.153-3.49-2.59-4.883-4.25zm16.94-17.346c.84-.167 1.63-.47 2.356-.874.295 4.852 1.454 15.574 6.017 23.226-2.525 1.333-5.367 2.134-8.374 2.306v-24.658zm-9.958 22.733c4.44-7.63 5.582-18.176 5.875-22.98.543.177 1.107.305 1.694.362v24.544c-2.696-.155-5.248-.83-7.568-1.927zM108.83 57.59c-.594.702-1.487 1.642-2.47 2.278-1.777 1.144-2.39 2.57-2.607 3.165-.506 1.41-.403 3.438 1.114 3.996 1.445.53 2.606-.736 3.258-1.757.54-.848 1.152-2.49 1.405-4.443.115-.886.117-2.073.096-2.957-.008-.27-.23-.443-.457-.443-.124 0-.247.048-.34.16zm22.344 9.138c-.876.282-2.13.608-3.302.63-2.112.033-3.383.915-3.884 1.31-1.176.93-2.158 2.706-1.166 3.98.947 1.214 2.6.752 3.694.23.91-.433 2.293-1.504 3.54-3.028.566-.692 1.194-1.7 1.643-2.462.184-.314-.054-.684-.383-.684-.046 0-.095.008-.143.025zm8.054 16.684c-1.47.296-3.147 1.437-2.84 3.023.296 1.51 1.98 1.846 3.19 1.875 1.006.024 2.726-.303 4.528-1.1.818-.363 1.833-.976 2.578-1.452.35-.225.242-.763-.17-.827-.91-.145-2.174-.42-3.23-.932-1.14-.556-2.15-.7-2.91-.7-.504 0-.897.064-1.146.114zm1.618 21.36c-.57 1.433.668 2.625 1.672 3.3.835.563 2.46 1.215 4.408 1.515.883.14 2.068.17 2.953.17.416 0 .612-.514.302-.788-.687-.613-1.605-1.53-2.217-2.528-1.1-1.802-2.508-2.452-3.1-2.683-.505-.196-1.092-.315-1.664-.315-1.01 0-1.975.37-2.354 1.328zm-5.313 18.533c-1.208.958-.732 2.607-.2 3.693.443.904 1.525 2.28 3.06 3.516.698.56 1.71 1.18 2.477 1.62.36.207.787-.138.657-.532-.292-.87-.63-2.123-.66-3.294-.052-2.112-.947-3.378-1.345-3.874-.665-.826-1.75-1.55-2.775-1.55-.426 0-.842.127-1.214.42zm-13.94 13.002c-1.517.258-1.895 1.933-1.953 3.143-.047 1.004.24 2.73.993 4.55.342.828.93 1.857 1.39 2.615.215.355.757.26.83-.15.166-.905.473-2.166 1.01-3.207.97-1.877.793-3.415.683-4.04-.24-1.373-1.206-2.94-2.617-2.94-.11 0-.222.01-.337.03zm-21.827 6.108c-.555.84-1.19 2.47-1.474 4.422-.128.884-.148 2.07-.14 2.954.004.418.52.61.792.298.604-.695 1.51-1.62 2.506-2.24 1.79-1.12 2.427-2.532 2.65-3.127.53-1.4.458-3.428-1.052-4.01-.243-.095-.48-.136-.71-.136-1.112 0-2.02 1.002-2.572 1.84zm-18.532-7.067c-.9.45-2.267 1.545-3.487 3.09-.552.705-1.164 1.722-1.598 2.492-.206.363.145.786.538.65.868-.296 2.118-.645 3.29-.686 2.11-.073 3.367-.98 3.857-1.38 1.16-.95 2.11-2.744 1.094-4-.44-.547-1.022-.742-1.626-.742-.723 0-1.48.28-2.07.576zm-17.348-14.435c-.83.33-1.87.9-2.634 1.347-.36.21-.272.752.137.832.9.18 2.153.508 3.188 1.063 1.86 1 3.4.85 4.028.75 1.482-.237 3.205-1.308 2.96-2.906-.233-1.522-1.903-1.927-3.11-2.004-.098-.006-.202-.01-.31-.01-1.028 0-2.602.273-4.26.927zM57.91 98.326c-.416.003-.61.516-.3.79.692.607 1.614 1.518 2.232 2.515 1.11 1.797 2.52 2.44 3.113 2.667 1.4.534 3.428.47 4.015-1.035.56-1.435-.683-2.62-1.69-3.292-.838-.56-2.466-1.2-4.414-1.492-.827-.123-1.917-.152-2.778-.152h-.178zm8.325-21.61c.29.874.627 2.127.657 3.298.05 2.11.945 3.378 1.345 3.873.937 1.168 2.722 2.136 3.987 1.132 1.208-.96.733-2.608.202-3.696-.443-.905-1.523-2.28-3.06-3.516-.697-.56-1.708-1.18-2.474-1.622-.074-.043-.153-.062-.227-.062-.287 0-.533.28-.43.593zm18.76-15.254c-.165.904-.473 2.164-1.01 3.206-.97 1.876-.794 3.414-.683 4.04.258 1.48 1.356 3.184 2.95 2.913 1.52-.257 1.895-1.932 1.954-3.142.047-1.004-.237-2.73-.99-4.553-.34-.827-.93-1.856-1.39-2.613-.09-.15-.238-.22-.385-.22-.2 0-.4.133-.445.37z" fill="#676767" opacity=".161" fill-rule="evenodd"/></svg>