<?xml version="1.0" encoding="UTF-8" standalone="no"?>
<svg width="233px" height="30px" viewBox="0 0 233 30" version="1.1" xmlns="http://www.w3.org/2000/svg" xmlns:xlink="http://www.w3.org/1999/xlink" xmlns:sketch="http://www.bohemiancoding.com/sketch/ns">
    <!-- Generator: Sketch 3.3.2 (12043) - http://www.bohemiancoding.com/sketch -->
    <title>crs-education-logo-white </title>
    <desc>Created with Sketch.</desc>
    <defs></defs>
    <g id="Page-1" stroke="none" stroke-width="1" fill="none" fill-rule="evenodd" sketch:type="MSPage">
        <g id="crs-education-logo-white" sketch:type="MSArtboardGroup" fill="#FFFFFF">
            <g id="crs-education-logo" sketch:type="MSLayerGroup">
                <path d="M0,1.169625 L0,29.514625 L21.1506684,29.514625 L21.1506684,25.059625 L4.96402139,25.059625 L4.96402139,17.447125 L19.1321658,17.447125 L19.1321658,12.993375 L4.96402139,12.993375 L4.96402139,5.623375 L20.9488182,5.623375 L20.9488182,1.169625 L0,1.169625 Z" id="Fill-1" sketch:type="MSShapeGroup"></path>
                <path d="M36.971493,5.704375 L31.4006749,5.704375 L31.4006749,24.979375 L36.971493,24.979375 C42.9048941,24.979375 46.7799209,20.970625 46.7799209,15.381875 C46.7799209,9.793125 42.9048941,5.704375 36.971493,5.704375 M36.971493,29.514375 L26.4366535,29.514375 L26.4366535,1.169375 L36.971493,1.169375 C45.8504128,1.169375 51.9869102,7.284375 51.9869102,15.301875 C51.9869102,23.319375 45.8504128,29.514375 36.971493,29.514375" id="Fill-2" sketch:type="MSShapeGroup"></path>
                <path d="M79.310085,17.244875 C79.310085,25.708625 74.5466679,29.959875 67.1616893,29.959875 C59.8153364,29.959875 55.1329086,25.708625 55.1329086,17.487375 L55.1329086,1.169875 L60.0969299,1.169875 L60.0969299,17.284875 C60.0969299,22.548625 62.8007267,25.383625 67.2414326,25.383625 C71.6410209,25.383625 74.3460636,22.711125 74.3460636,17.487375 L74.3460636,1.169875 L79.310085,1.169875 L79.310085,17.244875 Z" id="Fill-4" sketch:type="MSShapeGroup"></path>
                <path d="M66.569519,8.20930985 C67.2325757,8.60278593 68.0880413,8.38251746 68.4802548,7.71732645 C68.8724684,7.05213545 68.6529067,6.19391622 67.98985,5.80044015 L60.5226361,1.36919015 C59.8595794,0.975714073 59.0041138,1.19598254 58.6119002,1.86117355 C58.2196866,2.52636455 58.4392484,3.38458378 59.1023051,3.77805985 L66.569519,8.20930985 Z" id="Stroke-17" sketch:type="MSShapeGroup"></path>
                <path d="M66.5692698,5.80044015 C65.9062131,6.19391622 65.6866514,7.05213545 66.0788649,7.71732645 C66.4710785,8.38251746 67.3265441,8.60278593 67.9896008,8.20930985 L75.4568147,3.77805985 C76.1198714,3.38458378 76.3394331,2.52636455 75.9472196,1.86117355 C75.555006,1.19598254 74.6995404,0.975714073 74.0364837,1.36919015 L66.5692698,5.80044015 Z" id="Stroke-20" sketch:type="MSShapeGroup"></path>
                <path d="M96.8258289,30 C88.5923316,30 82.4558342,23.5625 82.4558342,15.3825 C82.4558342,7.28375 88.4702246,0.68375 97.0276791,0.68375 C102.234668,0.68375 105.383283,2.505 108.08708,5.09625 L104.898594,8.78125 C102.638369,6.67625 100.216166,5.25875 96.9865615,5.25875 C91.5789679,5.25875 87.6628235,9.71375 87.6628235,15.30125 C87.6628235,20.88875 91.5789679,25.425 96.9865615,25.425 C100.459134,25.425 102.678241,24.0075 105.100444,21.74 L108.28893,24.97875 C105.342166,28.05625 102.113807,30 96.8258289,30" id="Fill-6" sketch:type="MSShapeGroup"></path>
                <path d="M124.109755,6.919 L119.265349,18.2565 L128.994033,18.2565 L124.109755,6.919 Z M138.923322,29.514 L133.676461,29.514 L130.810686,22.6715 L117.449942,22.6715 L114.543049,29.514 L109.456921,29.514 L121.890648,0.9665 L126.490841,0.9665 L138.923322,29.514 Z" id="Fill-8" sketch:type="MSShapeGroup"></path>
                <path d="M150.464173,29.514125 L145.459034,29.514125 L145.459034,5.785375 L136.499125,5.785375 L136.499125,1.169125 L159.425328,1.169125 L159.425328,5.785375 L150.464173,5.785375 L150.464173,29.514125 Z" id="Fill-10" sketch:type="MSShapeGroup"></path>
                <path d="M169.313749,29.51375 L164.349727,29.51375 L164.349727,1.16875 L169.313749,1.16875 L169.313749,29.51375 Z" id="Fill-12" sketch:type="MSShapeGroup"></path>
                <path d="M188.726013,5.25875 C183.115323,5.25875 179.199179,9.75375 179.199179,15.30125 C179.199179,20.84875 183.196312,25.425 188.805756,25.425 C194.416446,25.425 198.33259,20.93 198.33259,15.3825 C198.33259,9.83375 194.336703,5.25875 188.726013,5.25875 M188.726013,30 C180.047697,30 173.993435,23.4 173.993435,15.3825 C173.993435,7.365 180.128687,0.68375 188.805756,0.68375 C197.484072,0.68375 203.53958,7.28375 203.53958,15.30125 C203.53958,23.31875 197.404328,30 188.726013,30" id="Fill-14" sketch:type="MSShapeGroup"></path>
                <path d="M227.675389,1.169375 L232.558421,1.169375 L232.558421,29.514375 L228.401801,29.514375 L212.820705,9.348125 L212.820705,29.514375 L207.936427,29.514375 L207.936427,1.169375 L212.539111,1.169375 L227.675389,20.768125 L227.675389,1.169375 Z" id="Fill-15" sketch:type="MSShapeGroup"></path>
            </g>
        </g>
    </g>
</svg>