<?xml version="1.0" encoding="utf-8"?>
<!-- Generator: Adobe Illustrator 18.1.0, SVG Export Plug-In . SVG Version: 6.00 Build 0)  -->
<!DOCTYPE svg PUBLIC "-//W3C//DTD SVG 1.1//EN" "http://www.w3.org/Graphics/SVG/1.1/DTD/svg11.dtd">
<svg version="1.1" id="Layer_1" xmlns:xl="http://www.w3.org/1999/xlink" xmlns:dc="http://purl.org/dc/elements/1.1/"
	 xmlns="http://www.w3.org/2000/svg" xmlns:xlink="http://www.w3.org/1999/xlink" x="0px" y="0px" viewBox="-384 452 230 98"
	 enable-background="new -384 452 230 98" xml:space="preserve">
<title>Canvas 1</title>
<title>Layer 1</title>
<path fill="#011F74" d="M-376.3,542.9c-0.7-0.4-1.3-0.6-2.2-0.6c-2.1,0-3.4,1.5-3.4,3.8c0,2.3,1.4,3.8,3.5,3.8
	c0.8,0,1.5-0.2,2.2-0.7l0,1.2c-0.7,0.2-1.5,0.3-2.3,0.3c-2.7,0-4.6-1.8-4.6-4.5c0-2.7,2.1-4.8,4.9-4.8c0.7,0,1.3,0.1,1.9,0.3
	L-376.3,542.9z"/>
<path fill="#011F74" d="M-371.5,543.5l-1.4,3.2h2.7L-371.5,543.5z M-373.2,547.5l-0.7,1.7c-0.1,0.3-0.2,0.6-0.2,0.9
	c0,0.2,0,0.3,0.1,0.5h-1.6c0.2-0.4,0.4-0.8,0.7-1.3l3.5-8.1l3.6,8.1c0.3,0.6,0.4,0.9,0.6,1.2h-1.7c0.1-0.2,0.1-0.4,0.1-0.5
	c0-0.2-0.1-0.5-0.2-0.8l-0.8-1.8H-373.2z"/>
<path fill="#011F74" d="M-364.5,549.2c0,0.7,0.1,0.9,0.3,1.3h-1.6c0.2-0.4,0.3-0.6,0.3-1.3v-6.9h-0.1c-1,0-1.5,0.1-2.4,0.5l0.5-1.2
	h5.9l-0.4,1.2c-0.6-0.3-1.1-0.5-2.3-0.5V549.2z"/>
<path fill="#011F74" d="M-359,546.3v2.9c0,0.7,0,0.9,0.3,1.3h-1.6c0.2-0.4,0.3-0.6,0.3-1.3V543c0-0.7-0.1-0.9-0.3-1.3h1.6
	c-0.2,0.4-0.3,0.6-0.3,1.3v2.7h4.2V543c0-0.7-0.1-0.9-0.3-1.3h1.6c-0.2,0.4-0.3,0.6-0.3,1.3v6.3c0,0.7,0,0.9,0.3,1.3h-1.6
	c0.2-0.4,0.3-0.6,0.3-1.3v-2.9H-359z"/>
<path fill="#011F74" d="M-347.6,542.3c-2,0-3.4,1.5-3.4,3.7c0,2.3,1.5,4,3.5,4c1.9,0,3.2-1.5,3.2-3.7
	C-344.2,543.9-345.7,542.3-347.6,542.3 M-347.8,550.7c-2.6,0-4.3-1.8-4.3-4.5c0-2.7,2-4.7,4.8-4.7c2.6,0,4.3,1.8,4.3,4.5
	C-343.1,548.7-345,550.7-347.8,550.7"/>
<path fill="#011F74" d="M-342,550.5c0.2-0.4,0.3-0.6,0.3-1.3V543c0-0.7-0.1-0.9-0.3-1.3h1.6c-0.2,0.4-0.3,0.6-0.3,1.3v6.9h1.1
	c1,0,1.6-0.1,2.5-0.6l-0.6,1.3H-342z"/>
<path fill="#011F74" d="M-335.9,550.5c0.2-0.4,0.3-0.6,0.3-1.3V543c0-0.7-0.1-0.9-0.3-1.3h1.6c-0.2,0.4-0.3,0.6-0.3,1.3v6.3
	c0,0.7,0,0.9,0.3,1.3H-335.9z"/>
<path fill="#011F74" d="M-326,542.9c-0.7-0.4-1.3-0.6-2.2-0.6c-2.1,0-3.4,1.5-3.4,3.8c0,2.3,1.4,3.8,3.5,3.8c0.8,0,1.5-0.2,2.2-0.7
	l0,1.2c-0.7,0.2-1.5,0.3-2.3,0.3c-2.7,0-4.6-1.8-4.6-4.5c0-2.7,2.1-4.8,4.9-4.8c0.7,0,1.3,0.1,1.9,0.3L-326,542.9z"/>
<path fill="#011F74" d="M-317,544.1c0-0.8-0.5-1.4-1.3-1.6c-0.4-0.1-0.6-0.1-1.2-0.1h-0.1v3.6C-318,546-317,545.2-317,544.1
	 M-319.6,549.3c0,0.7,0.1,0.9,0.3,1.3h-1.6c0.2-0.4,0.3-0.6,0.3-1.3V543c0-0.7,0-0.9-0.3-1.3h1.7c1.1,0,1.8,0.2,2.4,0.6
	c0.6,0.4,0.9,1,0.9,1.7c0,1.1-0.8,2-2.2,2.5l0.2,0.3c1.2,1.5,2.1,2.7,2.8,3.4c0.1,0.1,0.1,0.1,0.2,0.2c-0.3,0.1-0.5,0.2-0.6,0.2
	c-0.4,0-0.9-0.5-1.9-1.6l-2.3-2.5V549.3z"/>
<path fill="#011F74" d="M-309.6,545.6l-0.6,1.1c-0.5-0.3-0.9-0.4-1.7-0.4h-0.8v3.6h1.2c1,0,1.5-0.1,2.5-0.4l-0.5,1.1h-4.5
	c0.2-0.4,0.3-0.6,0.3-1.3V543c0-0.7,0-0.9-0.3-1.3h4.9l-0.6,1.1c-0.4-0.3-0.9-0.3-1.8-0.3h-1.2v3.2H-309.6z"/>
<path fill="#011F74" d="M-307.8,550.5c0.2-0.4,0.3-0.6,0.3-1.3V543c0-0.7-0.1-0.9-0.3-1.3h1.6c-0.2,0.4-0.3,0.6-0.3,1.3v6.9h1.1
	c1,0,1.6-0.1,2.5-0.6l-0.6,1.3H-307.8z"/>
<path fill="#011F74" d="M-301.7,550.5c0.2-0.4,0.3-0.6,0.3-1.3V543c0-0.7-0.1-0.9-0.3-1.3h1.6c-0.2,0.4-0.3,0.6-0.3,1.3v6.3
	c0,0.7,0,0.9,0.3,1.3H-301.7z"/>
<path fill="#011F74" d="M-294,545.6l-0.6,1.1c-0.5-0.3-0.9-0.4-1.7-0.4h-0.8v3.6h1.2c1,0,1.5-0.1,2.5-0.4l-0.5,1.1h-4.5
	c0.2-0.4,0.3-0.6,0.3-1.3V543c0-0.7,0-0.9-0.3-1.3h4.9l-0.6,1.1c-0.4-0.3-0.9-0.3-1.8-0.3h-1.2v3.2H-294z"/>
<path fill="#011F74" d="M-290.8,549.2c0,0.7,0,0.9,0.3,1.3h-1.6c0.2-0.4,0.3-0.6,0.3-1.3V543c0-0.7-0.1-0.9-0.3-1.3h4.9l-0.6,1.1
	c-0.4-0.3-0.9-0.4-1.5-0.4h-1.4v3.3h3.1l-0.6,1.1c-0.3-0.2-0.7-0.3-1.4-0.3h-1.1V549.2z"/>
<path fill="#011F74" d="M-278.6,542.8c-0.6-0.4-1.1-0.6-1.7-0.6c-0.9,0-1.4,0.5-1.4,1.3c0,0.4,0.1,0.7,0.3,1c0.3,0.3,0.5,0.5,1.3,1
	c0.8,0.5,1,0.7,1.3,0.9c0.4,0.4,0.6,1,0.6,1.6c0,1.5-1.3,2.6-2.9,2.6c-0.6,0-1.1-0.1-1.7-0.3v-1.3c0.7,0.6,1.2,0.9,1.9,0.9
	c0.9,0,1.7-0.7,1.7-1.7c0-0.8-0.2-1-1.5-1.9c-0.7-0.5-1.1-0.7-1.4-1.1c-0.4-0.4-0.6-0.9-0.6-1.5c0-1.4,1.2-2.3,2.8-2.3
	c0.5,0,0.9,0.1,1.4,0.2V542.8z"/>
<path fill="#011F74" d="M-272.4,545.6l-0.6,1.1c-0.5-0.3-0.9-0.4-1.7-0.4h-0.8v3.6h1.2c1,0,1.5-0.1,2.5-0.4l-0.5,1.1h-4.5
	c0.2-0.4,0.3-0.6,0.3-1.3V543c0-0.7,0-0.9-0.3-1.3h4.9l-0.6,1.1c-0.4-0.3-0.9-0.3-1.8-0.3h-1.2v3.2H-272.4z"/>
<path fill="#011F74" d="M-266.7,544.1c0-0.8-0.5-1.4-1.3-1.6c-0.4-0.1-0.6-0.1-1.2-0.1h-0.1v3.6C-267.8,546-266.7,545.2-266.7,544.1
	 M-269.3,549.3c0,0.7,0.1,0.9,0.3,1.3h-1.6c0.2-0.4,0.3-0.6,0.3-1.3V543c0-0.7,0-0.9-0.3-1.3h1.7c1.1,0,1.8,0.2,2.4,0.6
	c0.6,0.4,0.9,1,0.9,1.7c0,1.1-0.8,2-2.2,2.5l0.2,0.3c1.2,1.5,2.1,2.7,2.8,3.4c0.1,0.1,0.1,0.1,0.2,0.2c-0.3,0.1-0.5,0.2-0.6,0.2
	c-0.4,0-0.9-0.5-1.9-1.6l-2.3-2.5V549.3z"/>
<path fill="#011F74" d="M-261.8,550.5l-2.6-7.2c-0.3-0.8-0.5-1.3-0.8-1.7h1.6c0,0.1,0,0.2,0,0.3c0,0.3,0.1,0.7,0.3,1.3l2,5.7l2-5.6
	c0.2-0.5,0.3-0.9,0.3-1.2c0-0.2,0-0.3-0.1-0.5h1.5c-0.3,0.4-0.5,0.9-0.8,1.8l-2.6,7.1H-261.8z"/>
<path fill="#011F74" d="M-256.6,550.5c0.2-0.4,0.3-0.6,0.3-1.3V543c0-0.7-0.1-0.9-0.3-1.3h1.6c-0.2,0.4-0.3,0.6-0.3,1.3v6.3
	c0,0.7,0,0.9,0.3,1.3H-256.6z"/>
<path fill="#011F74" d="M-247.2,542.9c-0.7-0.4-1.3-0.6-2.2-0.6c-2.1,0-3.4,1.5-3.4,3.8c0,2.3,1.4,3.8,3.5,3.8
	c0.8,0,1.5-0.2,2.2-0.7l0,1.2c-0.7,0.2-1.5,0.3-2.3,0.3c-2.7,0-4.6-1.8-4.6-4.5c0-2.7,2.1-4.8,4.9-4.8c0.7,0,1.3,0.1,1.9,0.3
	L-247.2,542.9z"/>
<path fill="#011F74" d="M-241.4,545.6l-0.6,1.1c-0.5-0.3-0.9-0.4-1.7-0.4h-0.8v3.6h1.2c1,0,1.5-0.1,2.5-0.4l-0.5,1.1h-4.5
	c0.2-0.4,0.3-0.6,0.3-1.3V543c0-0.7,0-0.9-0.3-1.3h4.9l-0.6,1.1c-0.4-0.3-0.9-0.3-1.8-0.3h-1.2v3.2H-241.4z"/>
<path fill="#011F74" d="M-235.6,542.8c-0.6-0.4-1.1-0.6-1.7-0.6c-0.9,0-1.4,0.5-1.4,1.3c0,0.4,0.1,0.7,0.3,1c0.3,0.3,0.5,0.5,1.3,1
	c0.8,0.5,1,0.7,1.3,0.9c0.4,0.4,0.6,1,0.6,1.6c0,1.5-1.3,2.6-2.9,2.6c-0.6,0-1.1-0.1-1.7-0.3v-1.3c0.7,0.6,1.2,0.9,1.9,0.9
	c0.9,0,1.7-0.7,1.7-1.7c0-0.8-0.2-1-1.5-1.9c-0.7-0.5-1.1-0.7-1.4-1.1c-0.4-0.4-0.6-0.9-0.6-1.5c0-1.4,1.2-2.3,2.8-2.3
	c0.5,0,0.9,0.1,1.4,0.2V542.8z"/>
<path fill="#011F74" d="M-290.7,498c-3.5-2-6.9-2.8-11.2-2.8c-10.4,0-17,7.1-17,18.1c0,10.7,7,18.2,17.3,18.2c4.1,0,7.4-1,11.3-3.5
	v5.6c-3.8,1-7.6,1.6-11.5,1.6c-13.7,0-23.1-8.7-23.1-21.2c0-12.9,10.7-22.7,24.8-22.7c3.5,0,6.5,0.6,9.4,1.6V498z"/>
<path fill="#011F74" d="M-264.9,526c-4.8-4.9-8.2-11-8.2-11c7.3-2.4,11.3-6.6,11.3-11.8c0-3.2-1.6-6.1-4.6-8.1
	c-3.1-2-6.5-2.8-12.4-2.8h-8.8c1.1,1.8,1.3,2.9,1.3,6.1v29.9c0,3.3-0.2,4.3-1.3,6.1h8.1c-1.1-1.9-1.3-2.9-1.3-6.1V515
	c8,10.1,9.8,12.1,9.8,12.1c3.3,3.5,9.7,9.5,20.7,8.8c8.3-0.6,14.8-5.4,14.8-12.4c0-2.8-1.1-5.5-3.2-7.5c-1.3-1.3-2.6-2.2-6.5-4.4
	c-3.7-2.2-5.1-3.3-6.4-4.8c-1.1-1.2-1.7-2.9-1.7-4.6c0-3.9,2.8-6.3,7.3-6.3c3,0,5.5,0.8,8.5,2.6v-5.6c-2.2-0.6-4.5-0.9-6.9-0.9
	c-8.4,0-14.2,4.6-14.2,11c0,2.5,1.1,5,3.2,7c1.6,1.6,3.3,2.9,6.9,5.1c6.3,3.7,7.7,5,7.8,8.9c0,4-3.7,8.1-8.4,8.5
	C-255.1,533.1-260,531-264.9,526 M-280.7,512.9v-17.2h0.5c3,0,4.1,0.1,6,0.5c4,0.8,6.6,3.7,6.6,7.5
	C-267.6,509.1-272.9,512.8-280.7,512.9"/>
<path fill="#011F74" d="M-334.9,454.3c-0.2,0.2-0.8,0.4-1.6,0.8c-2.1,1.1-4.7,2.8-9.2,6.5c-9.7,8.1-23,21.9-25,41
	c-2,18.8,3.5,25.8,9.1,27.1c5.5,1.3,17.3-3.7,23.1-14.8c6.3-12.2,3.6-27.5,2.5-31.9c-0.9-3.6-1.6-5.9-1.8-9.4
	c-0.3-5.2,2.9-12.3,4.7-14.8c1-1.4,2.8-1.9,3.7,0.7c3.8,11.5,6.3,36.3-5.2,55.3c-11.4,18.8-25.5,22.9-34.6,20.7
	c-7.8-1.8-15-10-13.2-25.9c1.8-15.9,9.5-26.7,14.9-32.9c14.4-16.6,30.4-22.6,32.5-22.8C-334.8,453.9-334.7,454.1-334.9,454.3z"/>
<path fill="#011F74" d="M-353.2,510.7c-5.1,1.1-7.8,3.9-8.8,5.1c-2.4,2.8-3.9,7.7-0.8,10.3c2.9,2.5,6.7,0.5,9.1-1.3
	c2-1.5,4.8-4.8,7.1-9.1c1.9-3.6,3.2-6.5,3.6-8.2c0.2-0.7,0.2-1.2,0.1-1.6c-0.2-0.6-0.7-0.6-1.3,0c-0.2,0.2-0.3,0.4-0.5,0.7
	C-346,508.1-348.2,509.6-353.2,510.7z"/>
<path fill="#011F74" d="M-236.6,533.6L-236.6,533.6L-236.6,533.6c0-0.1,0-0.2-0.1-0.2c0,0-0.1-0.1-0.1-0.1h-0.1h-0.2v0.5h0.3
	c0.1,0,0.1,0,0.1-0.1C-236.7,533.7-236.6,533.6-236.6,533.6 M-236.7,534.9v-0.4c0-0.1,0-0.3-0.1-0.4c-0.1-0.1-0.1-0.2-0.2-0.2h-0.1
	v0.9h-0.2h-0.2v-2h0.8c0.2,0,0.4,0,0.5,0.1c0.1,0.1,0.2,0.2,0.2,0.3v0.1v0.1c0,0.1,0,0.2-0.1,0.3c-0.1,0.1-0.1,0.1-0.2,0.1
	c0.1,0.1,0.2,0.2,0.3,0.3c0.1,0.1,0.1,0.2,0.1,0.4v0.3H-236.7z M-235.5,534c0-0.4-0.1-0.7-0.4-1c-0.3-0.3-0.6-0.4-1-0.4
	c-0.4,0-0.7,0.1-1,0.4c-0.3,0.3-0.4,0.6-0.4,1c0,0.4,0.1,0.7,0.4,1c0.3,0.3,0.6,0.4,1,0.4c0.4,0,0.7-0.1,1-0.4
	C-235.6,534.7-235.5,534.3-235.5,534 M-235.1,534c0,0.5-0.2,1-0.5,1.3c-0.4,0.4-0.8,0.5-1.3,0.5c-0.5,0-1-0.2-1.3-0.5
	c-0.4-0.4-0.5-0.8-0.5-1.3c0-0.5,0.2-1,0.5-1.3c0.4-0.4,0.8-0.5,1.3-0.5c0.5,0,1,0.2,1.3,0.5C-235.2,533-235.1,533.4-235.1,534"/>
<path fill="#00B5E2" d="M-218,498.9v5.8c0,2.3,0.1,2.3,2.3,2.4v0.8c-1.3,0-2.6-0.1-3.9-0.1c-1.1,0-2.2,0.1-3.3,0.1v-0.8
	c1.8-0.1,1.7-0.6,1.7-2.2v-5.9h-1.6v-1h1.6v-1.7c0-1,0.1-2.1,0.7-2.9c0.9-1.3,2.6-1.6,4.1-1.6c1.1,0,3,0.3,3,1.8
	c0,0.7-0.5,1.3-1.3,1.3c-1.6,0-1.2-2.2-2.4-2.2c-0.8,0-1.1,0.9-1.1,1.5v3.8h2.9v1H-218z"/>
<path fill="#00B5E2" d="M-208.8,502c-1.2,0.5-2.8,1.2-2.8,2.7c0,0.8,0.3,1.6,1.2,1.6c0.7,0,1.6-0.7,1.6-1.5V502z M-203.9,506.6
	c-0.5,0.9-1.9,1.5-2.9,1.5c-1.1,0-1.8-0.5-2.1-1.6c-0.9,0.9-2.1,1.6-3.3,1.6c-1.5,0-2.7-1-2.7-2.6c0-2.4,2.7-3.2,4.8-4
	c0.7-0.3,1.3-0.3,1.3-1.2c0-1-0.1-2.1-1.4-2.1c-0.9,0-1.2,0.4-1.5,1.2c-0.3,0.8-0.6,1.5-1.5,1.5c-0.7,0-1.3-0.5-1.3-1.3
	c0-2,3.1-2.4,4.6-2.4c2,0,4.2,0.5,4.2,2.9v4.8c0,0.4,0,1.2,0.5,1.2c0.4,0,0.5-0.1,0.8-0.3L-203.9,506.6z"/>
<path fill="#00B5E2" d="M-202.9,493.5c0-1,0.8-1.8,1.8-1.8c1,0,1.8,0.8,1.8,1.8c0,1-0.8,1.8-1.8,1.8
	C-202.1,495.3-202.9,494.4-202.9,493.5 M-199.3,504.9c0,0.4,0,1.5,0.2,1.8c0.3,0.4,0.9,0.4,1.3,0.4v0.8c-1,0-1.9-0.1-2.9-0.1
	c-1.1,0-2.1,0.1-3.2,0.1v-0.8c0.4,0,1-0.1,1.3-0.4c0.2-0.3,0.2-1.4,0.2-1.8v-4.1c0-1.4-0.3-1.9-1.5-1.9v-0.8
	c1.5-0.1,3.1-0.3,4.6-0.7V504.9z"/>
<path fill="#00B5E2" d="M-193.9,498.7v6c0,0.9,0,2,0.9,2c0.6,0,1.1-0.5,1.4-0.9l0.8,0.5c-0.8,1.2-1.9,1.8-3.4,1.8
	c-2.3,0-2.8-1.4-2.8-3.4v-6h-1.3V498c1.7-0.5,2.9-1.7,3.4-3.5h1v3.2h2.4v0.9H-193.9z"/>
<path fill="#00B5E2" d="M-186.2,499.3L-186.2,499.3c0.7-1.3,2.2-1.9,3.6-1.9c1.7,0,3.3,1,3.3,2.9v4.7c0,0.4,0,1.5,0.2,1.8
	c0.3,0.4,0.9,0.4,1.3,0.4v0.8c-0.9,0-1.9-0.1-2.8-0.1c-1.1,0-2.2,0.1-3.3,0.1v-0.8c0.4,0,1-0.1,1.3-0.4c0.2-0.3,0.2-1.4,0.2-1.8V501
	c0-1-0.4-2.1-1.6-2.1c-1.4,0-2.2,1.8-2.2,2.9v3c0,0.4,0,1.5,0.2,1.8c0.3,0.4,0.9,0.4,1.3,0.4v0.8c-1,0-2-0.1-3.1-0.1
	c-1,0-2,0.1-3,0.1v-0.8c0.4,0,1-0.1,1.3-0.4c0.2-0.3,0.2-1.4,0.2-1.8v-9.8c0-1.3-0.1-1.7-1.5-1.8v-0.8l4.6-0.7V499.3z"/>
<path fill="#00B5E2" d="M-177.6,506c0-1.1,0.9-1.9,1.9-1.9c1,0,1.9,0.8,1.9,1.9c0,1.1-0.8,2-1.9,2C-176.7,508-177.6,507.1-177.6,506
	z"/>
<path fill="#00AB8E" d="M-216.1,523.6c-1.2,0.5-2.8,1.2-2.8,2.7c0,0.8,0.3,1.6,1.2,1.6c0.7,0,1.6-0.7,1.6-1.5V523.6z M-211.2,528.2
	c-0.5,0.9-1.9,1.5-2.9,1.5c-1.1,0-1.8-0.5-2.1-1.6c-0.9,0.9-2.1,1.6-3.3,1.6c-1.5,0-2.7-1-2.7-2.6c0-2.4,2.7-3.2,4.8-4
	c0.7-0.3,1.3-0.3,1.3-1.2c0-1-0.1-2.1-1.4-2.1c-0.9,0-1.2,0.4-1.5,1.2c-0.3,0.8-0.6,1.5-1.5,1.5c-0.7,0-1.3-0.5-1.3-1.3
	c0-2,3.1-2.4,4.6-2.4c2,0,4.2,0.5,4.2,2.9v4.8c0,0.4,0,1.2,0.5,1.2c0.4,0,0.5-0.1,0.8-0.3L-211.2,528.2z"/>
<path fill="#00AB8E" d="M-202,527.3c-1.1,1.6-2.7,2.4-4.6,2.4c-3.1,0-5.3-2.1-5.3-5.2c0-3.4,2.7-5.5,5.9-5.5c1.3,0,3.8,0.6,3.8,2.3
	c0,0.7-0.5,1.3-1.2,1.3c-1.9,0-1.2-2.6-2.9-2.6c-1.9,0-2.1,2.8-2.1,4.2c0,1.9,0.5,4.3,2.9,4.3c1.3,0,2-0.8,2.8-1.7L-202,527.3z"/>
<path fill="#00AB8E" d="M-197.7,520.3v6c0,0.9,0,2,0.9,2c0.6,0,1.1-0.5,1.4-0.9l0.8,0.5c-0.8,1.2-1.9,1.8-3.3,1.8
	c-2.3,0-2.8-1.4-2.8-3.4v-6h-1.3v-0.7c1.7-0.5,2.9-1.7,3.4-3.5h1v3.2h2.4v1H-197.7z"/>
<path fill="#00AB8E" d="M-193.6,515.1c0-1,0.8-1.8,1.8-1.8c1,0,1.8,0.8,1.8,1.8c0,1-0.8,1.8-1.8,1.8
	C-192.8,516.9-193.6,516-193.6,515.1 M-190,526.4c0,0.4,0,1.5,0.2,1.8c0.3,0.4,0.9,0.4,1.3,0.4v0.8c-1,0-1.9-0.1-2.9-0.1
	c-1.1,0-2.1,0.1-3.2,0.1v-0.8c0.4,0,1-0.1,1.3-0.4c0.2-0.3,0.2-1.4,0.2-1.8v-4.1c0-1.4-0.3-1.9-1.5-1.9v-0.8
	c1.5-0.1,3.1-0.3,4.6-0.7V526.4z"/>
<path fill="#00AB8E" d="M-185.4,524.2c0,1.8,0.2,4.5,2.5,4.5c2,0,2.1-3,2.1-4.4c0-1.6-0.1-4.5-2.2-4.5
	C-185.2,519.9-185.4,522.6-185.4,524.2 M-177.4,524.3c0,3.2-2.6,5.4-5.6,5.4c-3.1,0-5.9-2.1-5.9-5.4c0-3.1,2.8-5.3,5.8-5.3
	C-180,518.9-177.4,521.1-177.4,524.3"/>
<path fill="#00AB8E" d="M-173,526.4c0,0.4,0,1.5,0.2,1.8c0.3,0.4,0.9,0.4,1.3,0.4v0.8c-1,0-2-0.1-3-0.1c-1,0-2,0.1-3,0.1v-0.8
	c0.4,0,1-0.1,1.3-0.4c0.2-0.3,0.2-1.4,0.2-1.8v-3.4c0-1.3,0-2.4-1.5-2.4v-0.8c1.5-0.1,2.9-0.4,4.4-0.9l0.3,2.1
	c0.9-1.2,2-2.1,3.5-2.1c1,0,2.2,0.4,2.8,1.2c0.6,0.8,0.6,2.2,0.6,3.2v3.1c0,0.4,0,1.5,0.2,1.8c0.3,0.4,0.9,0.4,1.3,0.4v0.8
	c-0.9,0-1.8-0.1-2.8-0.1c-1.1,0-2.2,0.1-3.3,0.1v-0.8c0.4,0,1,0,1.3-0.4c0.2-0.3,0.2-1.4,0.2-1.8v-3c0-1.1,0.1-3-1.5-3
	c-0.9,0-1.6,0.7-1.9,1.5c-0.3,0.7-0.3,1.7-0.3,2.5V526.4z"/>
<path fill="#00AB8E" d="M-164.4,527.6c0-1.1,0.9-1.9,1.9-1.9c1,0,1.9,0.8,1.9,1.9c0,1.1-0.8,2-1.9,2
	C-163.5,529.5-164.4,528.7-164.4,527.6z"/>
<path fill="#C4D600" d="M-222.5,541l4.3-0.9l0.2,2.3h0c0.6-1.1,1.7-2.3,3-2.3c1,0,1.8,0.8,1.8,1.8c0,0.8-0.6,1.2-1.4,1.2
	c-1.3,0-1.1-1-1.9-1c-1.3,0-1.4,2.3-1.4,3.1v2.4c0,1.7,0,2.2,1.7,2.2v0.8c-1.1,0-2.2-0.1-3.3-0.1c-1,0-2,0.1-3,0.1v-0.8
	c0.4,0,1-0.1,1.3-0.4c0.2-0.3,0.2-1.4,0.2-1.8v-3.9c0-1.5-0.4-1.9-1.6-2V541z"/>
<path fill="#C4D600" d="M-206.9,544c0.5,0,0.7-0.2,0.7-0.7c0-1.1-0.7-2.4-1.9-2.4c-1.4,0-1.9,1.8-1.9,3.1H-206.9z M-210.1,545
	c0,2.1,0.6,4.5,3.1,4.5c1.4,0,2-0.7,2.9-1.6l0.7,0.6c-1,1.6-2.7,2.3-4.5,2.3c-3.1,0-5.5-2-5.7-5.2c-0.1-3.3,2.4-5.6,5.6-5.6
	c2.5,0,4.8,1.7,4.8,4.4c0,0.7-0.4,0.6-0.9,0.6H-210.1z"/>
<path fill="#C4D600" d="M-201.8,550.5h-0.9l-0.1-3.2h1c0.6,1.3,1.6,2.6,3.2,2.6c0.9,0,1.9-0.5,1.9-1.5c0-1.1-1.4-1.4-2.2-1.6
	c-1.9-0.6-3.6-1.3-3.6-3.6c0-2.2,1.8-3.2,3.8-3.2c1.1,0,1.9,0.3,2.8,0.8l0.4-0.8h0.9v3.1h-0.9c-0.5-1.1-1.4-2.2-2.8-2.2
	c-0.7,0-1.7,0.4-1.7,1.2c0,1,1.1,1.2,1.9,1.5c1.9,0.6,4,1.3,4,3.7c0,2.4-2,3.4-4.1,3.4c-1,0-2.3-0.3-3.1-1L-201.8,550.5z"/>
<path fill="#C4D600" d="M-181.4,550.5h-4l-0.2-2h0c-1,1.6-2.2,2.3-4.1,2.3c-2.4,0-3-1.4-3-3.5v-3.8c0-0.4,0-1.5-0.2-1.8
	c-0.3-0.3-0.9-0.3-1.3-0.4v-0.8l4.6-0.3v6.5c0,1.2,0.1,2.5,1.6,2.5c1.8,0,2.2-1.8,2.2-3.3v-2.5c0-0.4,0-1.5-0.2-1.8
	c-0.2-0.4-0.9-0.3-1.3-0.4v-0.8l4.6-0.3v6.8c0,0.5,0.1,1.2,0.2,1.6c0.1,0.3,0.5,1.1,1.1,1.1V550.5z"/>
<path fill="#C4D600" d="M-179.5,537.9c0-1.3,0-1.9-1.5-2v-0.8l4.6-0.7v13.1c0,1.5-0.1,2.1,1.5,2.2v0.8c-1,0-2-0.1-3-0.1
	c-1.1,0-2.2,0.1-3.3,0.1v-0.8c1.8,0,1.7-0.5,1.7-2.2V537.9z"/>
<path fill="#C4D600" d="M-170.8,541.4v6c0,0.9,0,2,0.9,2c0.6,0,1.1-0.5,1.4-0.9l0.8,0.5c-0.8,1.2-1.9,1.8-3.3,1.8
	c-2.3,0-2.8-1.4-2.8-3.4v-6h-1.3v-0.7c1.7-0.5,2.9-1.7,3.4-3.5h1v3.2h2.4v1H-170.8z"/>
<path fill="#C4D600" d="M-166.4,550.5h-1l-0.1-3.2h0.9c0.6,1.3,1.6,2.6,3.2,2.6c0.9,0,1.9-0.4,1.9-1.5c0-1.1-1.4-1.4-2.2-1.6
	c-1.9-0.6-3.6-1.3-3.6-3.6c0-2.2,1.8-3.2,3.8-3.2c1.1,0,1.9,0.3,2.8,0.8l0.4-0.8h0.9v3.1h-0.9c-0.5-1.1-1.4-2.2-2.8-2.2
	c-0.7,0-1.7,0.4-1.7,1.2c0,1,1.1,1.2,1.9,1.5c1.9,0.6,4,1.3,4,3.7c0,2.4-2,3.4-4.1,3.4c-1,0-2.3-0.3-3.1-1L-166.4,550.5z"/>
<path fill="#C4D600" d="M-158.4,548.8c0-1.1,0.9-1.9,1.9-1.9c1,0,1.9,0.8,1.9,1.9c0,1.1-0.8,2-1.9,2
	C-157.5,550.7-158.4,549.8-158.4,548.8z"/>
</svg>
