<?xml version="1.0" encoding="UTF-8" standalone="no"?>
<svg width="130px" height="130px" viewBox="0 0 130 130" version="1.1" xmlns="http://www.w3.org/2000/svg" xmlns:xlink="http://www.w3.org/1999/xlink" xmlns:sketch="http://www.bohemiancoding.com/sketch/ns">
    <!-- Generator: Sketch 3.2.2 (9983) - http://www.bohemiancoding.com/sketch -->
    <title>emergencies</title>
    <desc>Created with Sketch.</desc>
    <defs></defs>
    <g id="Page-1" stroke="none" stroke-width="1" fill="none" fill-rule="evenodd" sketch:type="MSPage">
        <g id="icons" sketch:type="MSArtboardGroup" transform="translate(-817.000000, -27.000000)">
            <g id="emergencies" sketch:type="MSLayerGroup" transform="translate(817.000000, 27.000000)">
                <g id="image85" fill="#B8D108" sketch:type="MSShapeGroup">
                    <path d="M129.866,65.067 C129.866,100.929 100.794,130 64.933,130 C29.071,130 0,100.929 0,65.067 C0,29.205 29.071,0.134 64.933,0.134 C100.794,0.134 129.866,29.205 129.866,65.067" id="Fill-1"></path>
                </g>
                <path d="M33.4735167,59.6286829 L30.0780552,59.6286829 L30.0780552,54.7986453 L33.4735167,54.7986453 L33.4735167,41.8385568 L25.6783437,41.8385568 C23.4251433,46.7756862 21.7308384,52.2145604 20.5592133,58.1393139 C19.4071643,64.0729917 18.827714,69.5743361 18.827714,74.6522713 C18.827714,75.6250216 18.6720846,76.1059431 18.3901898,76.0851196 C18.0926342,76.0692542 17.60617,76.1059431 16.9278608,76.2051021 C16.3190464,77.6280345 16.3190464,79.0470006 16.9278608,80.479849 L25.100851,83.0669087 C25.6636617,87.3019919 29.1814733,90.6079548 33.4735167,90.7725589 L33.4735167,86.032756 L33.4725379,86.032756 C31.5824727,86.032756 30.0418396,84.4719925 30.0418396,82.5542564 C30.0418396,80.6385035 31.5824727,79.0817063 33.4725379,79.0817063 L33.4735167,79.0817063 L33.4735167,59.6286829 L33.4735167,59.6286829 Z M33.4735167,54.7996369 L37.1616397,54.7996369 L37.1616397,47.8585031 L39.8807495,47.8585031 L39.8807495,41.8395484 L33.4735167,41.8395484 L33.4735167,54.7996369 L33.4735167,54.7996369 Z M39.8807495,66.7195469 L37.1616397,66.7195469 L37.1616397,59.6296745 L33.4735167,59.6296745 L33.4735167,79.0826979 C35.3635819,79.0826979 36.9032362,80.639495 36.9032362,82.555248 C36.9032362,84.4729841 35.3635819,86.0337476 33.4735167,86.0337476 L33.4735167,90.7735505 C33.5841212,90.7765252 33.6947258,90.7795 33.8072879,90.7795 C36.1603261,90.7795 38.2999855,89.8345142 39.8807495,88.3005236 L39.8807495,66.7195469 L39.8807495,66.7195469 Z M42.6781634,47.8585031 L42.6781634,54.7996369 L49.6834438,54.7996369 L49.6834438,59.6296745 L42.6781634,59.6296745 L42.6781634,66.7195469 L39.8807495,66.7195469 L39.8807495,88.3005236 C41.2109404,87.006498 42.143738,85.2999706 42.4677212,83.3832261 L86.2074116,83.3832261 L86.2074116,55.7277657 L78.3006552,55.7277657 L78.3006552,44.3681043 L86.2074116,44.3681043 L86.2074116,41.9585393 L85.3578121,41.8395484 L83.8181578,38.7795 L80.7603827,38.7795 L79.069993,41.8395484 L39.8807495,41.8395484 L39.8807495,47.8585031 L42.6781634,47.8585031 L42.6781634,47.8585031 Z M95.7301687,51.941873 L95.7301687,79.0826979 C93.8401035,79.0826979 92.2975128,80.639495 92.2975128,82.555248 C92.2975128,84.4729841 93.8401035,86.0337476 95.7301687,86.0337476 L95.7301687,90.7765252 C91.523281,90.6406773 88.0456003,87.4794867 87.352609,83.3832261 L86.2064328,83.3832261 L86.2064328,55.7277657 L94.1141679,55.7277657 L89.5656786,44.3681043 L86.2064328,44.3681043 L86.2064328,41.9585393 L91.0485624,42.6219134 L95.7301687,51.941873 L95.7301687,51.941873 Z M95.7301687,90.7765252 L95.7301687,86.0337476 C97.6221915,86.0337476 99.1589094,84.4729841 99.1589094,82.555248 C99.1589094,80.639495 97.6221915,79.0826979 95.7301687,79.0826979 L95.7301687,51.941873 L97.5526966,55.572086 L111.47125,61.9113243 L111.47125,76.2060937 L109.017395,77.1937179 L109.017395,81.044064 C108.258824,81.2394073 107.296663,81.5715902 106.10644,81.9959909 C105.608231,82.1843931 105.161897,82.3727953 104.771356,82.5711134 C104.420945,87.1502786 100.621238,90.7795 96.0120634,90.7795 C95.9190773,90.7795 95.82707,90.7795 95.7301687,90.7765252 L95.7301687,90.7765252 Z" id="Shape" fill="#FFFFFF" sketch:type="MSShapeGroup"></path>
            </g>
        </g>
    </g>
</svg>