<?xml version="1.0" encoding="UTF-8" standalone="no"?>
<svg width="130px" height="130px" viewBox="0 0 130 130" version="1.1" xmlns="http://www.w3.org/2000/svg" xmlns:xlink="http://www.w3.org/1999/xlink" xmlns:sketch="http://www.bohemiancoding.com/sketch/ns">
    <!-- Generator: Sketch 3.2.2 (9983) - http://www.bohemiancoding.com/sketch -->
    <title>food</title>
    <desc>Created with Sketch.</desc>
    <defs></defs>
    <g id="Page-1" stroke="none" stroke-width="1" fill="none" fill-rule="evenodd" sketch:type="MSPage">
        <g id="icons" sketch:type="MSArtboardGroup" transform="translate(-978.000000, -28.000000)">
            <g id="food" sketch:type="MSLayerGroup" transform="translate(978.000000, 28.000000)">
                <g id="image85"></g>
                <path d="M129.866,65.067 C129.866,100.929 100.794,130 64.933,130 C29.071,130 0,100.929 0,65.067 C0,29.205 29.071,0.134 64.933,0.134 C100.794,0.134 129.866,29.205 129.866,65.067" id="Fill-1" fill="#14A6DB" sketch:type="MSShapeGroup"></path>
                <path d="M62.0039614,103.333333 C66.3310196,103.333333 70.2202493,102.541097 73.6044154,101.174116 C74.8122458,100.73086 75.6887032,100.236332 76.167353,99.812924 C76.3970728,99.6127974 76.4923226,99.4813092 76.5227384,99.4242483 L76.5555556,96.2222222 C72.3477596,98.2731067 67.4996295,99.4292101 62.003161,99.4292101 C57.0717875,99.4292101 52.3757367,98.3243788 48.1111111,96.281764 L48.1831487,99.5350622 C48.3936586,99.7707485 48.81788,100.112287 49.5646697,100.489385 C53.3986706,102.302929 57.5952607,103.333333 62.0039614,103.333333 L62.0039614,103.333333 L62.0039614,103.333333 Z M30.9406297,65.1111111 C30.8592488,64.5953453 30.8203587,64.0683183 30.8203587,63.5285285 C30.8203587,62.5337838 30.9607949,61.5728228 31.2222222,60.6666667 C30.1894763,61.0165165 29.3173317,61.4054054 28.661963,61.8378378 C28.452389,61.9774775 28.2629802,62.1238739 28.0973376,62.2695195 C27.7430063,62.5908408 27.6666667,62.8250751 27.6666667,62.9647147 C27.668107,63.1373874 28.025319,64.0570571 30.9406297,65.1111111 L30.9406297,65.1111111 L30.9406297,65.1111111 Z M92.5555556,65.513952 C91.7603784,63.8180257 89.9113521,62.7988432 87.9505539,63.302334 C86.3817557,63.7065907 85.7909615,61.3087056 87.3565662,60.906889 C87.7844929,60.7946406 88.2108228,60.7303825 88.6299673,60.7084209 C88.5900488,58.7245532 87.6783096,56.9611153 86.2667904,55.7987754 L80.9097236,63.4666396 C81.031076,63.6366389 81.1484364,63.8163989 81.2546197,64.0034795 C82.0777398,65.4236652 79.9852105,66.6771052 79.1652839,65.2577329 C77.6978787,62.7150636 73.9950359,62.3734382 72.2992967,65.0722791 C71.4258793,66.4607424 69.3796555,65.1243363 70.2538713,63.7383131 C71.104136,62.3864525 72.269757,61.5096139 73.5479484,61.0663142 L76.4420418,55.2814569 C75.2029706,53.9287828 73.8417487,53.0446237 71.6941318,53.0446237 C71.1177083,53.0446237 70.5101482,53.1007479 69.9480953,53.1308434 C70.0015862,52.4931426 70.0933988,51.8066382 70.0933988,51.1502293 C70.0933988,47.5696694 67.2448125,44.6666667 63.72799,44.6666667 C59.5054079,44.6666667 57.8408052,47.7640706 57.4240558,51.221808 C60.0043895,51.0981721 62.6589718,52.3963488 64.0305725,55.0594003 C64.7802424,56.5194424 62.6278353,57.6695813 61.8781653,56.2095393 C60.1209516,52.7997921 55.1550865,52.7843376 53.6301987,56.5202558 C53.0090663,58.0445559 50.7672417,57.0920717 51.388374,55.5718385 C52.1244717,53.7644773 53.3954777,52.5273052 54.8668747,51.8456811 C54.4525204,51.7529542 54.022997,51.6984568 53.5695225,51.6984568 C50.4423049,51.6984568 48.7745087,53.5180189 47.631242,55.9638943 C48.5717226,56.142841 49.4866553,56.5235093 50.3137672,57.1124065 C51.6414575,58.059197 50.2451073,60.0845478 48.9190138,59.1377573 C46.6292869,57.5020222 43.268945,58.3796742 42.1328637,61.1549741 C41.5133281,62.6776475 39.2699067,61.72679 39.8926358,60.2041167 C40.8387049,57.8948914 42.7707618,56.4454235 44.9072015,55.9956167 C44.0353808,55.6312162 43.1268351,55.4099731 41.9636091,55.4099731 C37.503911,55.4099731 33.8888889,59.0946474 33.8888889,63.6333853 C33.8888889,64.4833819 34.0174266,65.3089767 34.2537443,66.0751937 L34.2721068,66.1361983 C36.8795851,66.7885402 39.996424,67.2822703 43.2410021,67.6507377 C44.8281628,67.8329379 46.4233073,67.9793488 47.9833234,68.1029847 C49.0411645,64.9510834 52.5268505,62.8972638 56.2951597,62.8972638 C58.7589314,62.8972638 61.0263039,63.7464471 62.6238435,65.1731399 C63.8429554,66.2606476 62.2462142,68.1192526 61.0263039,67.0358119 C59.9109802,66.0394044 58.2280149,65.3683545 56.2951597,65.3683545 C53.5607404,65.3683545 51.4546388,66.6681579 50.5604637,68.2803046 C56.4236974,68.6463318 61.3081287,68.6666667 62.3180675,68.6666667 C63.7271916,68.6666667 72.7384006,68.6316907 81.3959313,67.6507377 C85.608933,67.1732755 89.6023827,66.4851443 92.5555556,65.513952 L92.5555556,65.513952 L92.5555556,65.513952 Z M90.7777778,59.7777778 C90.7958876,60.0264626 90.8072062,60.2767416 90.8072062,60.5302088 C90.8072062,60.6059302 90.805697,60.6768691 90.7996604,60.7478081 C92.3714394,61.3288698 93.672326,62.5834529 94.360498,64.2222222 C95.8854933,63.4283437 96.1111111,62.8106169 96.1111111,62.6671449 C96.1111111,62.548382 95.9488776,62.0892715 94.9860404,61.4715447 C94.4427467,61.1240236 93.6466704,60.7278814 92.4793435,60.3126096 C91.9466138,60.1252989 91.3799283,59.9491471 90.7777778,59.7777778 L90.7777778,59.7777778 L90.7777778,59.7777778 Z M84.1773994,52.2394316 L100.516544,27.0941338 C102.350938,24.4164288 106.364524,27.1677586 104.53173,29.8430628 L87.4541883,53.8407728 C88.6741841,54.7946952 89.6373809,56.0663249 90.2213789,57.5292193 C95.3525615,58.741629 99.0917488,60.558243 99.0917488,63.2759614 C99.0917488,64.6244171 98.1749519,65.7487971 96.6213572,66.6907154 C94.5421642,78.3314494 88.8213836,88.8598075 79.3502157,94.643362 L79.3502157,99.2969347 C79.3502157,101.288808 77.2918227,102.749301 74.5342321,103.728832 C70.7926447,105.190126 66.589459,106 61.9198748,106 C57.0558913,106 52.441507,104.894026 48.2455212,102.967775 C46.3487276,102.049865 45.0791319,100.85186 45.0791319,99.2969347 L45.0791319,94.6985807 C35.8047634,89.201523 29.0319863,79.1349209 27.070393,66.4322281 C25.7583974,65.5455284 25,64.502776 25,63.2759614 C25,62.0459457 25.7063976,61.1360382 26.3823953,60.5478394 C27.6935909,59.4090546 29.9959831,58.5063495 32.8311734,57.7885069 C34.7071671,54.9099341 37.9543561,53.0084915 41.6479436,53.0084915 C43.0551388,53.0084915 44.4015342,53.2861854 45.6311301,53.7887552 C47.1487249,51.1422608 50.0063152,49.3568575 53.2783041,49.3568575 C53.8031023,49.3568575 54.3199006,49.4032731 54.8198989,49.4913029 C55.6366961,45.4675431 59.1910841,42.4409202 63.4542696,42.4409202 C68.1398537,42.4409202 71.9718408,46.100557 72.2446398,50.7173172 C74.2182331,50.8997789 76.0022271,51.7296593 77.3822224,52.9916858 L88.9909831,30.2167891 C90.5341778,27.3646252 94.8157633,29.6798076 93.2709685,32.5343723 L82.2982057,51.9793437 C82.9462035,51.9977499 83.5750014,52.0873802 84.1773994,52.2394316 L84.1773994,52.2394316 L84.1773994,52.2394316 Z M78.4382958,61.5555556 L82.7777778,54.4862504 C82.5523602,54.4591995 82.3222948,54.4444444 82.0906802,54.4444444 C81.6809005,54.4444444 81.3114016,54.4805123 80.964367,54.5452706 L77.4444444,61.1440538 C77.7829581,61.2530772 78.1152748,61.387512 78.4382958,61.5555556 L78.4382958,61.5555556 L78.4382958,61.5555556 Z" id="Shape" fill="#FFFFFF" sketch:type="MSShapeGroup"></path>
            </g>
        </g>
    </g>
</svg>