<?xml version="1.0" encoding="UTF-8" standalone="no"?>
<svg width="130px" height="130px" viewBox="0 0 130 130" version="1.1" xmlns="http://www.w3.org/2000/svg" xmlns:xlink="http://www.w3.org/1999/xlink" xmlns:sketch="http://www.bohemiancoding.com/sketch/ns">
    <!-- Generator: Sketch 3.2.2 (9983) - http://www.bohemiancoding.com/sketch -->
    <title>health</title>
    <desc>Created with Sketch.</desc>
    <defs></defs>
    <g id="Page-1" stroke="none" stroke-width="1" fill="none" fill-rule="evenodd" sketch:type="MSPage">
        <g id="icons" sketch:type="MSArtboardGroup" transform="translate(-656.000000, -26.000000)">
            <g id="unruly-mob" sketch:type="MSLayerGroup" transform="translate(656.000000, 26.000000)">
                <g id="image85" fill="#00AD91" sketch:type="MSShapeGroup">
                    <path d="M129.866,65.067 C129.866,100.929 100.794,130 64.933,130 C29.071,130 0,100.929 0,65.067 C0,29.205 29.071,0.134 64.933,0.134 C100.794,0.134 129.866,29.205 129.866,65.067" id="Fill-1"></path>
                </g>
                <g id="Group" transform="translate(24.000000, 27.000000)" fill="#FFFFFF" sketch:type="MSShapeGroup">
                    <path d="M82,49.77728 C82,42.9598 76.4480104,37.433 69.597618,37.433 C62.7472257,37.433 57.1944122,42.9598 57.1944122,49.77728 C57.1944122,55.50334 61.1143361,60.31838 66.4265826,61.71238 C65.2089181,68.6668 60.8894224,75.9074 48.1747977,75.9074 C42.3937751,75.9074 37.8057011,74.1485 34.5374502,70.68072 C30.8745706,66.79556 29.3866802,61.36224 28.7844388,57.44182 C29.9427854,55.7272 30.8869285,53.18848 31.1250239,51.15078 C46.1406884,43.66992 50.5433939,11.28566 50.5763483,10.9634 C50.6793307,9.9343 50.9215455,7.53252 43.8322339,3.75396 C42.9638859,1.50306 40.7765387,0 38.3510962,0 C35.1083849,0 32.4720343,2.62482 32.4720343,5.85152 C32.4720343,9.07822 35.1092087,11.70304 38.3510962,11.70304 C39.8867704,11.70304 41.3738369,11.09132 42.4712179,10.01548 C43.2612992,10.50092 43.9302732,10.95848 44.3578563,11.30534 C43.203629,18.8436 36.8137742,45.76502 25.3036322,46.56206 C13.7926662,45.76584 7.40363529,18.84524 6.24940803,11.30616 C6.67699115,10.9593 7.34596512,10.50174 8.13604645,10.0163 C9.23342739,11.09132 10.7204939,11.70304 12.2561682,11.70304 C15.4980556,11.70304 18.13523,9.07822 18.13523,5.85152 C18.13523,2.62482 15.4980556,0 12.256992,0 C9.83072558,0 7.64420228,1.50306 6.77503044,3.75478 C-0.313457298,7.53252 -0.0720664445,9.93512 0.0309160017,10.96422 C0.0638703845,11.28648 4.46739978,43.67074 19.4822404,51.1516 C19.7574095,53.49352 21.0286248,56.83502 22.7595538,58.6054 C23.5076183,63.28268 25.381075,69.85662 30.0498871,74.82418 C34.5234446,79.58592 40.6208293,82 48.1747977,82 C66.9555004,82 71.5320403,69.0891 72.6121202,61.75174 C78.0051049,60.41022 82,55.5591 82,49.77728 L82,49.77728 Z M69.5004156,56 C65.9102244,56 63,53.0897756 63,49.5004156 C63,45.9102244 65.9102244,43 69.5004156,43 C73.0897756,43 76,45.9102244 76,49.5004156 C76,53.0897756 73.0897756,56 69.5004156,56 L69.5004156,56 Z" id="Shape"></path>
                    <circle id="Oval" cx="69" cy="50" r="3"></circle>
                </g>
            </g>
        </g>
    </g>
</svg>