<?xml version="1.0" encoding="UTF-8" standalone="no"?>
<svg width="87px" height="87px" viewBox="0 0 87 87" version="1.1" xmlns="http://www.w3.org/2000/svg" xmlns:xlink="http://www.w3.org/1999/xlink" xmlns:sketch="http://www.bohemiancoding.com/sketch/ns">
    <!-- Generator: Sketch 3.3.1 (12002) - http://www.bohemiancoding.com/sketch -->
    <title>icon-learn-plain</title>
    <desc>Created with Sketch.</desc>
    <defs></defs>
    <g id="Page-1" stroke="none" stroke-width="1" fill="none" fill-rule="evenodd" sketch:type="MSPage">
        <g id="icon-learn-plain" sketch:type="MSArtboardGroup" transform="translate(0.500000, 0.500000)" fill="#FFFFFF">
            <g id="learn" sketch:type="MSLayerGroup" transform="translate(10.500000, 23.500000)">
                <path d="M63.465,39.254 L1.516,39.254 C1.102,39.254 0.766,38.918 0.766,38.504 L0.766,6.977 C0.766,6.562 1.102,6.227 1.516,6.227 L4.977,6.227 C5.391,6.227 5.727,6.562 5.727,6.977 L5.727,36.637 C9.711,34.801 13.973,33.867 18.418,33.867 C25.613,33.867 31.047,36.281 32.484,36.988 C33.922,36.246 39.41,33.688 46.621,33.688 C51.062,33.688 55.305,34.668 59.25,36.602 L59.25,6.977 C59.25,6.562 59.586,6.227 60,6.227 L63.461,6.227 C63.875,6.227 64.211,6.562 64.211,6.977 L64.211,38.504 C64.215,38.918 63.879,39.254 63.465,39.254 L63.465,39.254 Z M60.754,37.754 L62.715,37.754 L62.715,7.727 L60.754,7.727 L60.754,37.754 Z M34.391,37.754 L58.188,37.754 C54.562,36.051 50.68,35.188 46.625,35.188 C41.133,35.188 36.625,36.781 34.391,37.754 L34.391,37.754 Z M6.902,37.754 L30.508,37.754 C28.246,36.828 23.816,35.367 18.422,35.367 C14.398,35.367 10.531,36.172 6.902,37.754 L6.902,37.754 Z M2.266,37.754 L4.227,37.754 L4.227,7.727 L2.266,7.727 L2.266,37.754 Z" id="Fill-1" sketch:type="MSShapeGroup"></path>
                <path d="M4.977,38.586 C4.84,38.586 4.703,38.547 4.586,38.477 C4.363,38.34 4.227,38.098 4.227,37.836 L4.227,4.535 C4.227,4.266 4.371,4.016 4.605,3.883 C8.262,1.805 12.582,0.75 17.445,0.75 C24.758,0.75 30.98,3.105 32.465,3.711 C33.883,3.043 39.738,0.508 47.043,0.508 C51.906,0.508 56.391,1.641 60.371,3.883 C60.605,4.016 60.754,4.266 60.754,4.535 L60.754,37.836 C60.754,38.102 60.613,38.348 60.387,38.48 C60.16,38.617 59.879,38.621 59.645,38.496 C55.609,36.301 51.23,35.191 46.621,35.191 C38.758,35.191 32.918,38.457 32.863,38.488 C32.641,38.617 32.363,38.621 32.137,38.496 C32.078,38.465 26.27,35.371 18.422,35.371 C13.809,35.371 9.398,36.426 5.32,38.504 C5.211,38.559 5.094,38.586 4.977,38.586 L4.977,38.586 Z M18.422,33.867 C25.617,33.867 31.051,36.281 32.488,36.988 C33.926,36.246 39.414,33.688 46.625,33.688 C51.066,33.688 55.309,34.668 59.254,36.602 L59.254,4.977 C55.598,3.004 51.492,2.008 47.047,2.008 C39.184,2.008 32.895,5.172 32.828,5.203 C32.629,5.305 32.391,5.312 32.184,5.223 C32.117,5.191 25.332,2.25 17.445,2.25 C13.012,2.25 9.074,3.168 5.727,4.977 L5.727,36.637 C9.711,34.801 13.977,33.867 18.422,33.867 L18.422,33.867 Z" id="Fill-2" sketch:type="MSShapeGroup"></path>
                <path d="M32.492,32.871 C32.078,32.871 31.742,32.535 31.742,32.121 L31.742,9.598 C31.742,9.184 32.078,8.848 32.492,8.848 C32.906,8.848 33.242,9.184 33.242,9.598 L33.242,32.121 C33.242,32.535 32.906,32.871 32.492,32.871 L32.492,32.871 Z" id="Fill-3" sketch:type="MSShapeGroup"></path>
            </g>
        </g>
    </g>
</svg>