<?xml version="1.0" encoding="UTF-8" standalone="no"?>
<svg width="120px" height="120px" viewBox="0 0 120 120" version="1.1" xmlns="http://www.w3.org/2000/svg" xmlns:xlink="http://www.w3.org/1999/xlink" xmlns:sketch="http://www.bohemiancoding.com/sketch/ns">
    <!-- Generator: Sketch 3.3 (11970) - http://www.bohemiancoding.com/sketch -->
    <title>icon-fundraise</title>
    <desc>Created with Sketch.</desc>
    <defs></defs>
    <g id="Page-1" stroke="none" stroke-width="1" fill="none" fill-rule="evenodd" sketch:type="MSPage">
        <g id="icon-fundraise" sketch:type="MSArtboardGroup">
            <circle id="Oval-1" fill="#C4D600" sketch:type="MSShapeGroup" cx="60" cy="60" r="60"></circle>
            <g id="campaign" sketch:type="MSLayerGroup" transform="translate(26.000000, 28.000000)" fill="#FFFFFF">
                <path d="M41.085263,51.4812631 L22.3148384,51.4812631 C21.5178173,51.4812631 20.8709596,52.1317025 20.8709596,52.9331368 L20.8709596,64.5481263 C20.8709596,65.3495606 21.5178173,66 22.3148384,66 L41.085263,66 C41.883006,66 42.5291418,65.3495606 42.5291418,64.5481263 L42.5291418,52.9331368 C42.5291418,52.1324285 41.883006,51.4812631 41.085263,51.4812631 L41.085263,51.4812631 Z M40.7416198,54.2775719 L32.0783469,60.0850666 C31.9621147,60.1576603 31.8307217,60.1925053 31.7000507,60.1925053 C31.5693797,60.1925053 31.4379867,60.1569343 31.3224764,60.0850666 L22.6592035,54.2775719 C22.31917,54.0677761 22.2137669,53.6213249 22.4224074,53.2794087 C22.6317698,52.9374924 23.0757625,52.8300538 23.415796,53.0413014 L31.7007726,58.6150445 L39.9864712,53.0413014 C40.3250608,52.8300538 40.7704974,52.9374924 40.9791379,53.2794087 C41.1863345,53.6191471 41.0816533,54.0677761 40.7416198,54.2775719 L40.7416198,54.2775719 Z M31.5549409,22.207134 C34.1467034,22.207134 36.247547,24.3196102 36.247547,26.9257235 C36.247547,29.5318367 34.1467034,31.6443129 31.5549409,31.6443129 C28.9631784,31.6443129 26.8623347,29.5318367 26.8623347,26.9257235 C26.8623347,24.3196102 28.9631784,22.207134 31.5549409,22.207134 L31.5549409,22.207134 Z M42.0230623,25.8368182 C44.0170589,25.8368182 45.6327593,27.4621908 45.6327593,29.4665024 C45.6327593,31.470814 44.0170589,33.0961866 42.0230623,33.0961866 C40.0297876,33.0961866 38.4133653,31.470814 38.4133653,29.4665024 C38.4133653,27.4621908 40.0297876,25.8368182 42.0230623,25.8368182 L42.0230623,25.8368182 Z M47.0766382,40.3555551 C47.0766382,36.746923 44.8133581,33.8221235 42.0230623,33.8221235 C40.0954841,33.8221235 38.4213066,35.2181 37.5686961,37.2703235 C36.402764,34.3513314 34.1467034,32.3702498 31.5542189,32.3702498 C27.7654809,32.3702498 24.6957946,36.5952022 24.6957946,41.8074288 L38.4126433,41.8074288 C38.4126433,41.3123398 38.3772683,40.8288659 38.3238448,40.3555551 L47.0766382,40.3555551 L47.0766382,40.3555551 Z M48.7602009,16.8482682 L47.6209805,16.8482682 C46.3619181,16.8482682 45.3418178,15.8922094 45.3418178,14.7132879 L45.3418178,5.10478788 C45.3418178,3.92514051 46.3626401,2.96980763 47.6209805,2.96980763 L64.7201153,2.96980763 C65.9791777,2.96980763 67,3.92586645 67,5.10478788 L67,14.712562 C67,15.8922094 65.9791777,16.8475423 64.7201153,16.8475423 L53.3206921,16.8475423 L48.7602009,21.1182287 L48.7602009,16.8482682 L48.7602009,16.8482682 Z M8.01033096,17.4500698 L9.77691669,13.8958831 C9.89892445,13.6497905 10.1494374,13.49444 10.4230525,13.49444 L11.4207727,13.49444 C11.8192833,13.49444 12.1427121,13.8189338 12.1427121,14.2203768 L12.1427121,17.1241242 C12.1427121,17.5255673 12.466141,17.850061 12.8646515,17.850061 L12.8646515,17.850061 L15.7524092,17.850061 C16.1509197,17.850061 16.4743486,18.1745548 16.4743486,18.5759979 L16.4743486,18.5759979 L16.4743486,25.8353663 C16.4743486,26.2368094 16.1509197,26.5613032 15.7524092,26.5613032 L9.55383741,26.5613032 C9.36252347,26.5613032 9.17842892,26.4850798 9.04342625,26.3486037 L7.30066452,24.5961921 C7.16493991,24.459716 6.9815673,24.3834926 6.79025336,24.3834926 L6.36719686,24.3834926 C5.96868631,24.3834926 5.64525746,24.0589989 5.64525746,23.6575558 L5.64525746,18.5759979 C5.64525746,18.1745548 5.96868631,17.850061 6.36719686,17.850061 L6.36719686,17.850061 L7.36491713,17.850061 C7.63781022,17.8515129 7.88760126,17.6961624 8.01033096,17.4500698 L8.01033096,17.4500698 Z M4.92259611,17.8515129 L4.92259611,25.1108814 C4.92259611,25.5123244 4.59916725,25.8368182 4.2006567,25.8368182 L1.92510368,25.8368182 C1.57207531,25.8368182 1.27102658,25.5798366 1.21327143,25.229935 L0.00979843468,17.9705666 C-0.0551761121,17.574931 0.209775651,17.2010735 0.603232628,17.1357392 C0.642217356,17.1284798 0.681924024,17.1255761 0.722352631,17.1255761 L4.20137864,17.1255761 C4.59988919,17.1255761 4.92259611,17.4500698 4.92259611,17.8515129 L4.92259611,17.8515129 Z M47.0766382,61.1921203 C46.5026963,61.1921203 45.9612418,60.8458484 45.7359967,60.2774399 C45.4407235,59.5333546 45.8009712,58.6883641 46.5409591,58.3900041 C56.9101748,54.2289341 63.6104945,44.2886809 63.6104945,33.0678751 C63.6104945,29.2508992 62.8358535,25.5493472 61.3060639,22.0663022 C60.9840789,21.333106 61.3140052,20.4757746 62.043164,20.1512808 C62.770157,19.8282389 63.6242113,20.1585402 63.9476402,20.8924624 C65.6391442,24.7479129 66.4975302,28.8443745 66.4975302,33.0678751 C66.4975302,45.4842989 59.0839344,56.4815161 47.6123172,61.0875854 C47.436164,61.1580013 47.2556791,61.1921203 47.0766382,61.1921203 L47.0766382,61.1921203 L47.0766382,61.1921203 Z M16.8562545,58.493813 C16.5617032,58.493813 16.2657081,58.4045228 16.0094196,58.2172311 C8.2456832,52.551294 3.61011026,43.4211864 3.61011026,33.7952638 C3.61011026,32.7971007 3.66064602,31.7807891 3.76027366,30.7746406 C3.839687,29.976836 4.54574374,29.3924569 5.33987709,29.4737618 C6.1332885,29.5536148 6.7122839,30.264307 6.6335925,31.0621116 C6.54335008,31.9724364 6.4978679,32.8921984 6.4978679,33.7945379 C6.4978679,42.4934391 10.6872823,50.7458891 17.7052553,55.8673735 C18.3506691,56.3370547 18.494335,57.2459276 18.0257964,57.8949151 C17.7435181,58.286921 17.303135,58.493813 16.8562545,58.493813 L16.8562545,58.493813 L16.8562545,58.493813 Z M14.6232959,11.5648999 C14.2594385,11.5648999 13.895581,11.4276978 13.6147466,11.1518418 C13.0436925,10.5921445 13.0328634,9.6723825 13.5902006,9.0988924 C19.2870245,3.23114489 26.9092608,-6.21724894e-15 35.0541812,-6.21724894e-15 C37.2503209,-6.21724894e-15 39.464509,0.2482704 41.6375467,0.737551833 C42.4157973,0.913228549 42.9052723,1.68925503 42.7305629,2.47181495 C42.5565755,3.25437487 41.7869881,3.74510818 41.0058497,3.57088333 C39.0400087,3.12806186 37.0387926,2.90374737 35.0541812,2.90374737 C27.6940089,2.90374737 20.8052631,5.8241913 15.6563912,11.1278859 C15.373391,11.4189865 14.9987044,11.5648999 14.6232959,11.5648999 L14.6232959,11.5648999 L14.6232959,11.5648999 Z" id="Shape" sketch:type="MSShapeGroup"></path>
            </g>
        </g>
    </g>
</svg>