<?xml version="1.0" encoding="UTF-8" standalone="no"?>
<svg width="120px" height="120px" viewBox="0 0 120 120" version="1.1" xmlns="http://www.w3.org/2000/svg" xmlns:xlink="http://www.w3.org/1999/xlink" xmlns:sketch="http://www.bohemiancoding.com/sketch/ns">
    <!-- Generator: Sketch 3.3 (11970) - http://www.bohemiancoding.com/sketch -->
    <title>icon-gift</title>
    <desc>Created with Sketch.</desc>
    <defs></defs>
    <g id="Page-1" stroke="none" stroke-width="1" fill="none" fill-rule="evenodd" sketch:type="MSPage">
        <g id="icon-gift" sketch:type="MSArtboardGroup">
            <circle id="Oval-1" fill="#00B4E0" sketch:type="MSShapeGroup" cx="60" cy="60" r="60"></circle>
            <g id="present" sketch:type="MSLayerGroup" transform="translate(35.000000, 32.000000)" fill="#FFFFFF">
                <path d="M34.232439,44.5614402 L30.4239224,43.1122218 L28.1737245,46.5107025 L23.6333253,32.3976434 L18.3264951,42.7376435 L16.6581666,39.0200439 L12.6650882,39.8319334 L18.6856176,28.0990836 L3.17970875,28.0990836 L3.17970875,56.2761065 C3.17970875,57.284377 4.19707093,58.1017216 5.2053414,58.1017216 L45.0152053,58.1017216 C46.0116565,58.1017216 46.8199094,57.2934687 46.8199094,56.2970175 L46.8199094,28.0990836 L28.9365189,28.0990836 L34.232439,44.5614402 Z" id="Fill-1" sketch:type="MSShapeGroup"></path>
                <path d="M39.4357147,14.4697944 C37.5182734,15.6008029 34.7180272,16.1981282 31.3368208,16.1981282 C30.4058299,16.1981282 29.5530276,16.1526696 28.8411468,16.0926644 C29.390286,12.4796194 31.2068094,5.36172085 37.0109561,4.69075276 C39.9939456,4.34526784 42.0513992,5.44081871 42.6605437,7.67283314 C43.2142287,9.70392081 42.4423427,12.6978204 39.4357147,14.4697944 L39.4357147,14.4697944 Z M19.1275655,15.86719 C17.6410712,15.86719 16.3955071,15.6480798 15.4245126,15.218042 C13.3734232,14.307962 12.5979005,12.4314334 12.8915627,11.0476753 C13.1615864,9.7730178 14.3071417,9.07113791 16.1173008,9.07113791 C19.6576121,9.07113791 21.4541337,13.046942 22.2396573,15.5862562 C21.349579,15.7371786 20.2567557,15.86719 19.1275655,15.86719 L19.1275655,15.86719 Z M43.417883,17.1891244 C46.6163461,14.4743402 48.0928395,10.3130653 47.0463839,6.47636431 C45.8480967,2.08415995 41.6986409,-0.428788275 36.489092,0.174901167 C31.5750236,0.743132947 27.8583331,4.10615591 25.7399651,9.89848338 C25.5917702,10.3048827 25.4590313,10.7076454 25.335384,11.1067714 C23.7379709,7.88194244 20.9213596,4.52528367 16.1173008,4.52528367 C11.3314255,4.52528367 9.01576734,7.40735526 8.44389888,10.1057743 C7.90839725,12.6332693 8.74756194,15.2516813 10.530446,17.1891244 L0.452287131,17.1891244 L0.452287131,25.371662 L49.5475129,25.371662 L49.5475129,17.1891244 L43.417883,17.1891244 Z" id="Fill-3" sketch:type="MSShapeGroup"></path>
            </g>
        </g>
    </g>
</svg>