<?xml version="1.0" encoding="UTF-8" standalone="no"?>
<svg width="87px" height="87px" viewBox="0 0 87 87" version="1.1" xmlns="http://www.w3.org/2000/svg" xmlns:xlink="http://www.w3.org/1999/xlink" xmlns:sketch="http://www.bohemiancoding.com/sketch/ns">
    <!-- Generator: Sketch 3.3.1 (12002) - http://www.bohemiancoding.com/sketch -->
    <title>icon-act-plain</title>
    <desc>Created with Sketch.</desc>
    <defs></defs>
    <g id="Page-1" stroke="none" stroke-width="1" fill="none" fill-rule="evenodd" sketch:type="MSPage">
        <g id="icon-act-plain" sketch:type="MSArtboardGroup" transform="translate(0.500000, 0.500000)" fill="#FFFFFF">
            <g id="Imported-Layers" sketch:type="MSLayerGroup" transform="translate(7.500000, 24.500000)">
                <path d="M67.078,1.598 C63.363,3.672 59.152,5.918 57.625,6.355 L57.609,6.383 L56.812,6.57 C56.793,6.574 54.926,7.008 53.133,7.051 C53.031,7.055 52.93,7.055 52.824,7.055 C50.836,7.055 48.211,6.699 47.75,6.484 C47.008,6.141 46.531,5.922 45.945,5.645 C43.039,4.289 40.617,3.16 40.617,3.16 C40.504,3.105 40.398,3.074 40.324,3.051 L40.289,3.039 C40.277,3.035 40.27,3.031 40.258,3.027 L40.254,3.027 C39.852,2.871 39.438,2.773 39.035,2.738 L31.957,2.105 C30.934,2.012 29.914,2.281 29.07,2.863 C29.047,2.879 29.012,2.902 28.969,2.934 C28.82,3.043 28.629,3.195 28.445,3.383 C27.738,4 26.781,4.855 25.828,5.707 C23.52,6.098 21.355,6.93 19.246,7.75 C17.266,6.688 11.754,3.711 7.648,1.238 L7.551,1.18 L7.449,1.133 C6.879,0.879 6.305,0.75 5.738,0.75 C4.832,0.75 3.516,1.078 2.398,2.652 C0.848,4.836 0.289,8.605 0.094,11.387 C-0.094,14.078 -0.023,17.547 0.562,19.23 C1.43,21.723 4.426,23.402 7.598,25.18 C9.238,26.098 10.93,27.047 11.844,27.906 C12.688,28.828 13.629,29.668 14.684,30.484 C14.656,31.766 15.438,32.969 16.699,33.402 C17.426,33.652 18.184,33.602 18.844,33.32 C18.852,33.324 18.859,33.332 18.867,33.336 L19.176,33.527 L19.324,33.555 L19.219,33.859 C18.672,35.445 19.5,37.172 21.07,37.711 C22.137,38.078 23.273,37.801 24.062,37.086 C23.945,38.438 24.738,39.742 26.066,40.199 C27.133,40.566 28.27,40.289 29.059,39.574 C28.941,40.926 29.734,42.23 31.062,42.688 C32.629,43.227 34.344,42.379 34.891,40.789 L34.996,40.48 L39.977,43.59 C40.66,44.016 41.445,44.242 42.25,44.242 C43.742,44.242 45.102,43.488 45.891,42.227 C46.359,41.477 46.578,40.625 46.539,39.762 L46.598,39.797 C47.281,40.223 48.066,40.449 48.871,40.449 C50.363,40.449 51.723,39.695 52.512,38.434 C53.008,37.637 53.215,36.738 53.152,35.867 C53.637,36.051 54.152,36.148 54.676,36.148 C56.168,36.148 57.527,35.395 58.316,34.129 C58.84,33.293 59.035,32.348 58.945,31.438 C59.309,31.539 59.688,31.59 60.07,31.59 C61.562,31.59 62.922,30.836 63.711,29.574 C64.863,27.727 64.438,25.332 62.797,23.984 L62.789,23.957 C64.645,23.492 70.637,21.797 73.609,18.668 C77.152,14.938 73.547,-2.73 67.078,1.598 L67.078,1.598 Z M44.301,41.242 C43.84,41.977 43.051,42.383 42.242,42.383 C41.805,42.383 41.359,42.262 40.957,42.016 L35.613,38.676 L36.816,35.188 C36.977,34.723 37.016,34.246 36.957,33.793 L43.531,37.902 C44.668,38.609 45.012,40.109 44.301,41.242 L44.301,41.242 Z M62.129,28.586 C61.668,29.324 60.879,29.727 60.07,29.727 C59.629,29.727 59.188,29.605 58.785,29.359 L48.082,22.672 C48.082,22.672 48.082,22.676 48.078,22.676 L44.926,20.707 C44.773,20.609 44.602,20.566 44.434,20.566 C44.121,20.566 43.82,20.723 43.641,21.004 C43.367,21.441 43.5,22.016 43.938,22.289 L47.148,24.297 L47.145,24.301 L55.953,29.805 C57.09,30.516 57.434,32.012 56.723,33.148 C56.262,33.887 55.473,34.289 54.664,34.289 C54.227,34.289 53.781,34.168 53.379,33.922 L44.422,28.324 L44.418,28.328 L41.355,26.414 C41.203,26.316 41.031,26.273 40.863,26.273 C40.551,26.273 40.25,26.43 40.07,26.711 C39.797,27.148 39.93,27.723 40.367,27.996 L43.184,29.758 C43.184,29.758 43.184,29.762 43.18,29.762 L50.145,34.113 C51.281,34.824 51.625,36.32 50.918,37.457 C50.457,38.195 49.668,38.598 48.859,38.598 C48.422,38.598 47.977,38.477 47.574,38.23 L38.934,32.832 C38.934,32.832 38.93,32.832 38.926,32.836 L37.789,32.125 C37.637,32.027 37.465,31.984 37.297,31.984 C36.988,31.984 36.684,32.141 36.504,32.422 C36.488,32.449 36.473,32.48 36.461,32.508 C36.109,31.984 35.598,31.566 34.961,31.348 C33.957,31 32.891,31.227 32.113,31.852 L32.133,31.801 C32.68,30.215 31.852,28.488 30.281,27.949 C28.773,27.43 27.133,28.199 26.523,29.672 C26.297,28.691 25.598,27.852 24.586,27.504 C23.316,27.066 21.953,27.539 21.188,28.578 C21.035,27.488 20.301,26.527 19.203,26.148 C17.637,25.609 15.922,26.457 15.375,28.047 L15.207,28.531 C14.453,27.914 13.789,27.285 13.184,26.617 C10.488,24.012 3.383,21.652 2.324,18.617 C1.34,15.789 1.703,2.613 5.738,2.617 C6.035,2.617 6.348,2.688 6.684,2.84 C11.781,5.91 19.121,9.801 19.121,9.801 C20.367,9.32 21.594,8.832 22.824,8.414 C22.648,8.57 22.5,8.703 22.387,8.805 C21.777,9.352 21.5,10.074 21.613,10.844 C21.715,11.527 22.129,12.188 22.617,12.418 C22.816,12.508 23.09,12.625 23.391,12.723 C23.512,12.766 23.637,12.805 23.773,12.84 C24.34,12.988 24.922,13.062 25.508,13.062 C27.035,13.062 28.539,12.562 29.965,11.578 C30.188,11.43 31.379,10.602 31.746,10.336 C32.023,10.133 32.664,9.793 33.816,9.793 C33.973,9.793 34.133,9.801 34.297,9.812 C35.066,9.871 36.094,10.086 36.895,10.273 C37.598,10.715 38.324,11.176 39.066,11.641 C39.445,11.668 39.824,11.785 40.168,12 L61.359,25.242 C62.492,25.953 62.84,27.449 62.129,28.586 L62.129,28.586 Z" id="Fill-19" sketch:type="MSShapeGroup"></path>
            </g>
        </g>
    </g>
</svg>