<?xml version="1.0" encoding="UTF-8" standalone="no"?>
<svg width="120px" height="120px" viewBox="0 0 120 120" version="1.1" xmlns="http://www.w3.org/2000/svg" xmlns:xlink="http://www.w3.org/1999/xlink" xmlns:sketch="http://www.bohemiancoding.com/sketch/ns">
    <!-- Generator: Sketch 3.3 (11970) - http://www.bohemiancoding.com/sketch -->
    <title>icon-donate</title>
    <desc>Created with Sketch.</desc>
    <defs></defs>
    <g id="Page-1" stroke="none" stroke-width="1" fill="none" fill-rule="evenodd" sketch:type="MSPage">
        <g id="icon-donate" sketch:type="MSArtboardGroup">
            <circle id="Oval-1" fill="#00AD91" sketch:type="MSShapeGroup" cx="60" cy="60" r="60"></circle>
            <g id="donate" sketch:type="MSLayerGroup" transform="translate(15.000000, 36.000000)" fill="#FFFFFF">
                <path d="M56.2725,12.1573 L45.0055,23.4243 L33.7385,12.1573 C31.4565,9.8753 31.4565,6.1613 33.7385,3.8793 C34.8815,2.7363 36.3945,2.1363 38.0165,2.1663 C39.6315,2.2043 41.1205,2.8843 42.2075,4.0793 L44.2715,6.3473 C44.2755,6.3523 44.2825,6.3533 44.2865,6.3583 C44.3035,6.3753 44.3095,6.3983 44.3275,6.4143 C44.3835,6.4643 44.4505,6.4893 44.5125,6.5253 C44.5495,6.5463 44.5825,6.5733 44.6215,6.5903 C44.6925,6.6193 44.7645,6.6303 44.8385,6.6433 C44.8945,6.6533 44.9485,6.6673 45.0055,6.6673 C45.0635,6.6673 45.1165,6.6533 45.1735,6.6433 C45.2475,6.6303 45.3195,6.6193 45.3905,6.5893 C45.4285,6.5733 45.4615,6.5473 45.4975,6.5253 C45.5605,6.4903 45.6285,6.4653 45.6845,6.4143 C45.7015,6.3983 45.7085,6.3753 45.7245,6.3583 C45.7295,6.3533 45.7355,6.3523 45.7405,6.3473 L47.8045,4.0793 C48.8915,2.8843 50.3785,2.2043 51.9945,2.1663 C53.6005,2.1283 55.1285,2.7363 56.2725,3.8793 C57.3775,4.9853 57.9875,6.4543 57.9875,8.0183 C57.9875,9.5813 57.3775,11.0523 56.2725,12.1573 M57.6865,2.4653 C56.1535,0.9313 54.1325,0.0893 51.9465,0.1673 C49.7795,0.2183 47.7835,1.1303 46.3255,2.7333 L45.0055,4.1833 L43.6875,2.7333 C42.2285,1.1293 40.2305,0.2183 38.0635,0.1673 C35.9165,0.1003 33.8585,0.9323 32.3245,2.4653 C29.2625,5.5273 29.2625,10.5103 32.3245,13.5713 L44.2985,25.5453 C44.4945,25.7403 44.7505,25.8383 45.0055,25.8383 C45.2615,25.8383 45.5175,25.7403 45.7125,25.5453 L57.6865,13.5713 C59.1695,12.0883 59.9875,10.1163 59.9875,8.0183 C59.9875,5.9203 59.1695,3.9483 57.6865,2.4653" id="Fill-1" sketch:type="MSShapeGroup"></path>
                <path d="M87.695,5.7048 C85.744,10.1918 83.084,16.2828 82.783,16.8968 C82.578,17.3118 82.414,17.7368 82.256,18.1448 C82.061,18.6508 81.877,19.1238 81.684,19.3938 C81.235,20.0168 77.301,26.1928 76.852,26.9318 C76.676,27.2268 76.528,27.6438 76.336,28.1728 C76.053,28.9658 75.574,30.2958 75.061,30.6148 C74.29,31.0938 73.176,32.2208 71.497,33.9258 C70.509,34.9268 69.388,36.0628 68.091,37.3138 C66.683,38.6728 65.294,39.7088 64.07,40.6228 C62.306,41.9388 60.781,43.0778 59.72,44.7298 C59.099,45.6948 58.88,47.7898 58.874,50.2008 C58.868,50.9618 58.888,51.8198 58.919,52.6778 L46.519,52.6778 L46.519,48.8108 C46.558,48.4638 46.597,48.1598 46.636,47.9068 C46.9,46.2038 47.175,44.8778 47.437,43.7988 C47.753,42.5178 48.05,41.5878 48.298,40.8158 C48.448,40.3588 48.575,39.9638 48.677,39.5818 C49.001,38.3668 52.595,34.0268 54.548,32.3088 C56.355,30.7188 60.298,28.8928 62.357,28.4448 C64.396,27.9988 67.386,27.0888 69.781,24.3388 C69.781,24.3388 69.828,24.2848 69.826,24.2858 L69.863,24.2268 L70.197,23.6898 C70.685,22.9048 71.226,22.0318 71.769,21.2268 C72.419,20.2648 73.072,19.4018 73.638,18.9038 C73.919,18.6548 74.253,18.4538 74.607,18.3258 C75.035,18.1708 75.49,18.1228 75.919,18.2228 C76.132,18.2728 76.337,18.3588 76.53,18.4838 C76.571,18.5118 76.616,18.5428 76.661,18.5758 C76.729,18.6298 76.798,18.6858 76.86,18.7518 C77.317,19.2088 77.487,19.3808 75.13,23.0748 L75.112,23.1018 L75.1,23.1258 C74.647,23.9678 74.366,24.6528 74.139,25.2058 C74.014,25.5058 73.909,25.7658 73.807,25.9638 C73.657,26.2628 73.539,26.6138 73.424,26.9538 C73.336,27.2148 73.19,27.6468 73.102,27.7668 C73.053,27.8108 72.956,27.9008 72.84,28.0048 C71.17,29.4958 69.164,31.3568 68.473,32.5168 C68.389,32.6568 68.293,32.7978 68.194,32.9388 C67.385,34.0628 66.124,35.1698 66.106,35.1858 L67.235,36.4868 C67.309,36.4208 69.061,34.8888 69.952,33.4038 C70.384,32.6818 71.739,31.2998 73.989,29.2898 C74.145,29.1508 74.245,29.0608 74.3,29.0068 C74.665,28.6628 74.857,28.0998 75.058,27.5048 C75.154,27.2218 75.253,26.9288 75.347,26.7408 C75.478,26.4828 75.597,26.1938 75.734,25.8598 C75.945,25.3498 76.205,24.7168 76.605,23.9648 C79.097,20.0528 79.533,18.9858 78.08,17.5288 C77.982,17.4288 77.877,17.3388 77.768,17.2518 C78.362,16.4838 79.223,15.2948 80.452,13.4768 L80.522,13.3748 L80.561,13.2558 C81.141,11.4268 81.993,9.7308 82.901,8.2808 C83.51,7.3108 84.145,6.4488 84.741,5.7318 C84.936,5.4998 85.128,5.2808 85.311,5.0808 C85.522,4.8488 85.727,4.6388 85.918,4.4528 C86.111,4.2648 86.291,4.1038 86.459,3.9668 C86.477,3.9488 86.5,3.9318 86.516,3.9168 C87.12,3.4308 87.907,3.7668 88.405,4.0748 C88.184,4.5838 87.945,5.1308 87.695,5.7048 L87.695,5.7048 Z M76.975,13.8868 C77.121,13.5618 77.289,13.2018 77.473,12.8208 C78.705,10.2678 80.676,6.7148 82.041,5.5098 C82.342,5.2438 82.68,5.1378 83.012,5.1258 C81.805,6.6558 80.535,8.6648 79.578,10.9518 C79.353,11.4918 79.14,12.0428 78.955,12.6118 C78.834,12.7858 78.725,12.9528 78.611,13.1148 L75.732,16.3628 C76.225,15.4528 76.664,14.5828 76.975,13.8868 L76.975,13.8868 Z M44.48,52.6768 L32.08,52.6768 C32.111,51.8198 32.131,50.9608 32.129,50.1998 C32.119,47.7888 31.902,45.6938 31.281,44.7288 C30.222,43.0768 28.695,41.9378 26.931,40.6218 C25.706,39.7078 24.318,38.6728 22.91,37.3128 C21.613,36.0618 20.492,34.9258 19.504,33.9248 C17.822,32.2208 16.713,31.0938 15.94,30.6138 C15.426,30.2948 14.948,28.9648 14.665,28.1718 C14.474,27.6428 14.323,27.2258 14.147,26.9308 C13.7,26.1918 9.766,20.0158 9.319,19.3928 C9.124,19.1228 8.942,18.6498 8.745,18.1438 C8.587,17.7358 8.423,17.3108 8.22,16.8958 C7.917,16.2818 5.259,10.1908 3.306,5.7038 C3.058,5.1308 2.82,4.5838 2.599,4.0758 C3.097,3.7668 3.884,3.4308 4.486,3.9178 C4.506,3.9328 4.527,3.9498 4.547,3.9678 C4.711,4.1058 4.891,4.2658 5.086,4.4538 C5.279,4.6398 5.482,4.8498 5.693,5.0818 C5.879,5.2818 6.068,5.5008 6.263,5.7328 C6.861,6.4498 7.492,7.3118 8.103,8.2818 C9.011,9.7308 9.865,11.4278 10.445,13.2568 L10.482,13.3758 L10.552,13.4778 C11.782,15.2958 12.644,16.4858 13.236,17.2528 C13.127,17.3398 13.021,17.4308 12.922,17.5298 C11.473,18.9858 11.904,20.0528 14.397,23.9658 C14.801,24.7178 15.061,25.3508 15.27,25.8608 C15.407,26.1948 15.526,26.4838 15.657,26.7418 C15.751,26.9298 15.852,27.2218 15.948,27.5058 C16.147,28.1008 16.337,28.6638 16.704,29.0078 C16.757,29.0618 16.862,29.1528 17.016,29.2908 C19.264,31.3008 20.621,32.6838 21.051,33.4048 C21.944,34.8898 23.694,36.4218 23.764,36.4878 L24.897,35.1868 C24.877,35.1708 23.618,34.0638 22.811,32.9398 C22.709,32.7988 22.616,32.6578 22.53,32.5178 C21.837,31.3578 19.833,29.4968 18.165,28.0058 C18.05,27.9018 17.948,27.8118 17.901,27.7678 C17.815,27.6478 17.667,27.2148 17.579,26.9548 C17.466,26.6148 17.347,26.2638 17.194,25.9648 C17.094,25.7668 16.987,25.5068 16.864,25.2068 C16.637,24.6538 16.356,23.9688 15.905,23.1268 L15.891,23.0998 L15.873,23.0728 C13.516,19.3788 13.685,19.2068 14.143,18.7498 C14.207,18.6848 14.274,18.6278 14.344,18.5738 C14.387,18.5408 14.43,18.5108 14.473,18.4818 C14.666,18.3568 14.871,18.2708 15.082,18.2208 C15.512,18.1198 15.969,18.1678 16.396,18.3238 C16.75,18.4518 17.084,18.6528 17.365,18.9018 C17.931,19.3998 18.586,20.2628 19.232,21.2248 C19.777,22.0298 20.318,22.9028 20.806,23.6878 L21.14,24.2248 L21.177,24.2838 C21.175,24.2828 21.22,24.3368 21.22,24.3368 C23.616,27.0868 26.607,27.9968 28.646,28.4428 C30.707,28.8908 34.65,30.7168 36.455,32.3068 C38.406,34.0258 42.004,38.3658 42.326,39.5798 C42.43,39.9628 42.555,40.3568 42.705,40.8138 C42.953,41.5858 43.25,42.5158 43.566,43.7968 C43.828,44.8758 44.103,46.2018 44.369,47.9048 C44.406,48.1578 44.445,48.4628 44.482,48.8088 L44.482,52.6768 L44.48,52.6768 Z M8.961,5.5098 C10.324,6.7138 12.297,10.2678 13.527,12.8208 C13.711,13.2028 13.879,13.5618 14.025,13.8868 C14.336,14.5828 14.775,15.4518 15.269,16.3638 L12.388,13.1158 C12.277,12.9538 12.163,12.7868 12.044,12.6128 C11.86,12.0438 11.648,11.4928 11.421,10.9528 C10.466,8.6658 9.196,6.6568 7.987,5.1268 C8.32,5.1378 8.658,5.2448 8.961,5.5098 L8.961,5.5098 Z M90.051,3.1638 C89.356,2.5218 87.875,1.6558 86.449,2.0508 C86.103,2.1458 85.76,2.3138 85.431,2.5778 C85.421,2.5858 85.411,2.5948 85.4,2.6028 C85.08,2.8668 84.712,3.2078 84.318,3.6188 C83.254,3.2738 81.986,3.2618 80.902,4.2188 C78.976,5.9148 76.461,10.8228 75.402,13.1818 C75.138,13.7708 74.798,14.4508 74.425,15.1538 C74.103,15.7608 73.751,16.3828 73.4,16.9828 C73.086,17.1528 72.781,17.3588 72.496,17.6078 C71.266,18.6938 69.92,20.8638 68.732,22.7798 L68.439,23.2478 C66.41,25.5528 63.929,26.3348 61.988,26.7588 C59.681,27.2638 55.433,29.2318 53.408,31.0118 C51.564,32.6388 47.504,37.2898 47.012,39.1368 C46.918,39.4758 46.799,39.8508 46.658,40.2858 C46.467,40.8858 46.228,41.6198 45.974,42.5668 C45.822,43.1388 45.662,43.7918 45.499,44.5398 C45.339,43.7918 45.179,43.1398 45.024,42.5668 C44.77,41.6198 44.536,40.8848 44.34,40.2858 C44.201,39.8498 44.08,39.4748 43.988,39.1368 C43.494,37.2898 39.433,32.6388 37.588,31.0118 C35.565,29.2318 31.317,27.2638 29.012,26.7588 C27.069,26.3348 24.588,25.5528 22.559,23.2478 L22.268,22.7798 C21.08,20.8638 19.731,18.6938 18.5,17.6078 C18.217,17.3588 17.912,17.1528 17.6,16.9828 C17.246,16.3828 16.895,15.7608 16.573,15.1538 C16.2,14.4508 15.86,13.7708 15.594,13.1818 C14.535,10.8228 12.024,5.9148 10.098,4.2188 C9.01,3.2618 7.744,3.2748 6.682,3.6188 C6.286,3.2088 5.92,2.8668 5.598,2.6028 C5.588,2.5938 5.575,2.5848 5.569,2.5778 C5.241,2.3128 4.897,2.1448 4.551,2.0508 C3.121,1.6558 1.643,2.5228 0.949,3.1638 L0.5,3.5788 L0.744,4.1398 C0.816,4.3038 1.406,5.6608 2.189,7.4588 C3.841,11.2548 6.357,17.0188 6.671,17.6558 C6.841,18.0058 6.993,18.3918 7.138,18.7678 C7.37,19.3768 7.595,19.9528 7.919,20.4018 C8.335,20.9808 12.245,27.1208 12.671,27.8218 C12.759,27.9698 12.909,28.3868 13.042,28.7548 C13.47,29.9528 14.005,31.4428 15.028,32.0768 C15.626,32.4528 16.799,33.6368 18.276,35.1358 C19.27,36.1468 20.401,37.2888 21.712,38.5548 C23.198,39.9888 24.634,41.0588 25.9,42.0058 C27.597,43.2698 28.939,44.2718 29.83,45.6588 C30.291,46.3768 30.435,48.3358 30.402,50.7538 C30.384,51.9308 30.326,53.2438 30.236,54.5488 C30.822,54.5078 60.177,54.5078 60.763,54.5488 C60.675,53.2438 60.615,51.9308 60.597,50.7538 C60.564,48.3358 60.708,46.3768 61.171,45.6588 C62.06,44.2708 63.401,43.2688 65.099,42.0058 C66.367,41.0588 67.8,39.9878 69.287,38.5548 C70.599,37.2888 71.728,36.1468 72.723,35.1358 C74.202,33.6368 75.369,32.4528 75.973,32.0768 C76.994,31.4418 77.528,29.9528 77.959,28.7548 C78.09,28.3878 78.24,27.9708 78.33,27.8218 C78.752,27.1208 82.664,20.9808 83.08,20.4018 C83.402,19.9528 83.627,19.3778 83.861,18.7678 C84.007,18.3918 84.156,18.0048 84.33,17.6558 C84.642,17.0178 87.16,11.2548 88.812,7.4588 C89.593,5.6608 90.185,4.3038 90.255,4.1398 L90.5,3.5788 L90.051,3.1638 Z" id="Fill-3" sketch:type="MSShapeGroup"></path>
            </g>
        </g>
    </g>
</svg>