<?xml version="1.0" encoding="UTF-8" standalone="no"?>
<svg width="120px" height="120px" viewBox="0 0 120 120" version="1.1" xmlns="http://www.w3.org/2000/svg" xmlns:xlink="http://www.w3.org/1999/xlink" xmlns:sketch="http://www.bohemiancoding.com/sketch/ns">
    <!-- Generator: Sketch 3.3 (11970) - http://www.bohemiancoding.com/sketch -->
    <title>icon-pray</title>
    <desc>Created with Sketch.</desc>
    <defs></defs>
    <g id="Page-1" stroke="none" stroke-width="1" fill="none" fill-rule="evenodd" sketch:type="MSPage">
        <g id="icon-pray" sketch:type="MSArtboardGroup">
            <circle id="Oval-1" fill="#000000" sketch:type="MSShapeGroup" cx="60" cy="60" r="60"></circle>
            <g id="prayer" sketch:type="MSLayerGroup" transform="translate(36.000000, 16.000000)" fill="#FFFFFF">
                <path d="M34.2877,11.9952 L23.0207,23.2622 L11.7537,11.9952 C9.4717,9.7132 9.4717,5.9992 11.7537,3.7172 C12.8967,2.5742 14.4097,1.9742 16.0317,2.0042 C17.6467,2.0422 19.1357,2.7222 20.2227,3.9172 L22.2867,6.1852 C22.2907,6.1902 22.2977,6.1912 22.3017,6.1962 C22.3187,6.2132 22.3247,6.2362 22.3427,6.2522 C22.3987,6.3022 22.4657,6.3272 22.5277,6.3632 C22.5647,6.3842 22.5977,6.4112 22.6367,6.4282 C22.7077,6.4572 22.7797,6.4682 22.8537,6.4812 C22.9097,6.4912 22.9637,6.5052 23.0207,6.5052 C23.0787,6.5052 23.1317,6.4912 23.1887,6.4812 C23.2627,6.4682 23.3347,6.4572 23.4057,6.4272 C23.4437,6.4112 23.4767,6.3852 23.5127,6.3632 C23.5757,6.3282 23.6437,6.3032 23.6997,6.2522 C23.7167,6.2362 23.7237,6.2132 23.7397,6.1962 C23.7447,6.1912 23.7507,6.1902 23.7557,6.1852 L25.8197,3.9172 C26.9067,2.7222 28.3937,2.0422 30.0097,2.0042 C31.6157,1.9662 33.1437,2.5742 34.2877,3.7172 C35.3927,4.8232 36.0027,6.2922 36.0027,7.8562 C36.0027,9.4192 35.3927,10.8902 34.2877,11.9952 M35.7017,2.3032 C34.1687,0.7692 32.1477,-0.0728 29.9617,0.0052 C27.7947,0.0562 25.7987,0.9682 24.3407,2.5712 L23.0207,4.0212 L21.7027,2.5712 C20.2437,0.9672 18.2457,0.0562 16.0787,0.0052 C13.9317,-0.0618 11.8737,0.7702 10.3397,2.3032 C7.2777,5.3652 7.2777,10.3482 10.3397,13.4092 L22.3137,25.3832 C22.5097,25.5782 22.7657,25.6762 23.0207,25.6762 C23.2767,25.6762 23.5327,25.5782 23.7277,25.3832 L35.7017,13.4092 C37.1847,11.9262 38.0027,9.9542 38.0027,7.8562 C38.0027,5.7582 37.1847,3.7862 35.7017,2.3032" id="Fill-1" sketch:type="MSShapeGroup"></path>
                <path d="M27.0278,29.1257 C28.9158,33.4597 31.4728,39.3487 31.7088,39.9687 C31.8678,40.3877 32.0618,40.7827 32.2458,41.1627 C32.4728,41.6337 32.6888,42.0767 32.7508,42.3927 C32.8968,43.1197 34.6738,49.9637 34.9018,50.7697 C34.9958,51.0887 35.1918,51.4697 35.4428,51.9527 C35.8148,52.6777 36.4408,53.8897 36.3278,54.4617 C36.1598,55.3267 36.2248,56.8527 36.3238,59.1627 C36.3808,60.5207 36.4468,62.0607 36.4768,63.8017 C36.5118,65.6937 36.3308,67.3567 36.1708,68.8257 C35.9398,70.9397 35.7398,72.7687 36.2108,74.6057 C36.4878,75.6817 37.8258,77.2137 39.5228,78.8057 C40.1388,79.3857 40.8678,80.0297 41.5918,80.6487 L27.9868,83.4497 C27.8018,83.1797 27.6258,82.9217 27.4668,82.6787 C26.7668,81.6137 26.3048,80.7897 25.9228,80.1057 C25.6968,79.6997 25.5008,79.3497 25.2988,79.0257 C24.6528,77.9967 23.9508,72.5957 24.0188,70.0837 C24.0818,67.7607 25.3868,63.7707 26.4278,62.0177 C27.4538,60.2817 28.7798,57.5687 28.4108,54.0627 C28.4108,54.0627 28.4028,53.9957 28.4028,53.9967 L28.3838,53.9317 L28.2248,53.3437 C27.9908,52.4807 27.7288,51.5237 27.5188,50.6087 C27.2658,49.5167 27.0838,48.4867 27.1048,47.7597 C27.1138,47.3947 27.1918,47.0257 27.3348,46.6917 C27.5058,46.2877 27.7708,45.9327 28.1258,45.6937 C28.2998,45.5787 28.4948,45.4897 28.7108,45.4367 C28.7588,45.4247 28.8108,45.4127 28.8618,45.4037 C28.9448,45.3907 29.0288,45.3807 29.1168,45.3767 C29.7408,45.3547 29.9748,45.3477 31.0368,49.4467 L31.0438,49.4767 L31.0548,49.5067 C31.3538,50.3797 31.6528,51.0307 31.8938,51.5527 C32.0248,51.8397 32.1378,52.0847 32.2128,52.2867 C32.3238,52.5887 32.4948,52.9047 32.6598,53.2097 C32.7858,53.4437 32.9948,53.8327 33.0228,53.9747 C33.0218,54.0367 33.0198,54.1657 33.0178,54.3167 C32.9738,56.4787 32.9718,59.1217 33.3348,60.3757 C33.3788,60.5267 33.4178,60.6867 33.4488,60.8517 C33.7118,62.1617 33.6648,63.7837 33.6648,63.8097 L35.3278,63.8607 C35.3308,63.7687 35.3988,61.5207 34.9338,59.9127 C34.7098,59.1337 34.6238,57.2637 34.6818,54.3497 C34.6848,54.1497 34.6888,54.0167 34.6878,53.9417 C34.6848,53.4567 34.4138,52.9527 34.1238,52.4177 C33.9868,52.1657 33.8458,51.9017 33.7758,51.7107 C33.6788,51.4507 33.5518,51.1737 33.4058,50.8567 C33.1828,50.3737 32.9078,49.7737 32.6398,48.9927 C31.5138,44.6567 31.0448,43.6447 29.0598,43.7147 C28.9248,43.7187 28.7898,43.7337 28.6588,43.7527 C28.5038,42.8277 28.2318,41.4367 27.7528,39.3707 L27.7268,39.2527 L27.6678,39.1487 C26.7558,37.5337 26.1188,35.8127 25.6908,34.2177 C25.4048,33.1477 25.2158,32.1297 25.0998,31.2377 C25.0628,30.9467 25.0348,30.6687 25.0128,30.4067 C24.9888,30.1027 24.9738,29.8197 24.9688,29.5617 C24.9648,29.3007 24.9698,29.0677 24.9828,28.8587 C24.9828,28.8357 24.9828,28.8087 24.9858,28.7857 C25.0368,28.0397 25.7938,27.7027 26.3398,27.5557 C26.5548,28.0447 26.7858,28.5717 27.0278,29.1257 M25.7578,42.0947 C25.6228,41.7777 25.4798,41.4227 25.3308,41.0417 C24.3338,38.4927 23.1208,34.7577 23.1678,32.9987 C23.1798,32.6097 23.3248,32.3017 23.5348,32.0577 C23.8218,33.9197 24.4078,36.1407 25.3968,38.3227 C25.6298,38.8367 25.8768,39.3517 26.1588,39.8567 C26.2028,40.0557 26.2468,40.2447 26.2878,40.4287 L26.6888,44.6067 C26.3698,43.6557 26.0438,42.7737 25.7578,42.0947 M23.6208,27.6027 C23.4608,27.9087 23.3538,28.2617 23.3248,28.6707 C23.3248,28.6817 23.3218,28.6947 23.3228,28.7077 C23.2968,29.1077 23.2978,29.5937 23.3268,30.1407 C22.3838,30.6667 21.5418,31.5537 21.5018,32.9527 C21.4338,35.4317 23.2518,40.4397 24.2228,42.7407 C24.4658,43.3167 24.7228,44.0047 24.9728,44.7317 C25.1898,45.3597 25.3988,46.0187 25.5908,46.6617 C25.5048,46.9967 25.4498,47.3467 25.4398,47.7107 C25.3968,49.2967 26.0468,51.6817 26.6178,53.7817 L26.7558,54.2957 C27.0508,57.2467 25.9708,59.5177 24.9918,61.1707 C23.8308,63.1317 22.4248,67.4327 22.3538,70.0367 C22.2878,72.4107 22.9048,78.3467 23.8858,79.9137 C24.0678,80.1987 24.2528,80.5317 24.4668,80.9187 C24.7628,81.4487 25.1288,82.0977 25.6308,82.9017 C25.8088,83.1857 26.0078,83.4917 26.2228,83.8127 L24.6378,84.1387 L24.9968,85.8817 L45.6428,81.6317 L45.2838,79.8877 L43.7018,80.2127 C42.7698,79.4527 41.8528,78.6727 41.0518,77.9487 C39.3178,76.3807 38.0288,74.9867 37.8218,74.1917 C37.4278,72.6457 37.6028,71.0387 37.8248,69.0047 C37.9898,67.4887 38.1788,65.7687 38.1428,63.7707 C38.1088,62.0107 38.0458,60.4597 37.9858,59.0917 C37.8978,57.0587 37.8328,55.4517 37.9628,54.7797 C38.1848,53.6387 37.4848,52.2807 36.9208,51.1867 C36.7458,50.8537 36.5498,50.4717 36.5038,50.3107 C36.2868,49.5507 34.5198,42.7427 34.3848,42.0657 C34.2798,41.5417 34.0198,41.0037 33.7418,40.4367 C33.5718,40.0867 33.3978,39.7257 33.2648,39.3747 C33.0178,38.7317 30.5978,33.1587 29.0028,29.4907 C28.2458,27.7557 27.6748,26.4447 27.6048,26.2847 L27.3668,25.7427 L26.7798,25.7877 C25.8698,25.8557 24.2828,26.3337 23.6208,27.6027" id="Fill-3" sketch:type="MSShapeGroup"></path>
                <path d="M19.6713,27.5554 C20.2173,27.7034 20.9753,28.0404 21.0263,28.7864 C21.0283,28.8084 21.0283,28.8354 21.0293,28.8584 C21.0423,29.0674 21.0463,29.3014 21.0423,29.5624 C21.0383,29.8204 21.0223,30.1034 20.9983,30.4074 C20.9773,30.6684 20.9483,30.9464 20.9123,31.2374 C20.7963,32.1294 20.6063,33.1474 20.3213,34.2174 C19.8923,35.8124 19.2553,37.5334 18.3443,39.1494 L18.2843,39.2534 L18.2593,39.3704 C17.7793,41.4364 17.5083,42.8274 17.3533,43.7534 C17.2223,43.7334 17.0863,43.7184 16.9523,43.7144 C14.9673,43.6444 14.4973,44.6564 13.3713,48.9924 C13.1043,49.7744 12.8283,50.3734 12.6063,50.8574 C12.4603,51.1734 12.3323,51.4504 12.2363,51.7114 C12.1653,51.9014 12.0253,52.1654 11.8883,52.4184 C11.5983,52.9524 11.3263,53.4564 11.3233,53.9424 C11.3223,54.0164 11.3273,54.1494 11.3303,54.3494 C11.3873,57.2634 11.3023,59.1334 11.0773,59.9134 C10.6123,61.5204 10.6813,63.7684 10.6833,63.8614 L12.3473,63.8094 C12.3473,63.7844 12.3003,62.1614 12.5633,60.8514 C12.5943,60.6864 12.6323,60.5264 12.6773,60.3754 C13.0403,59.1224 13.0373,56.4784 12.9943,54.3174 C12.9923,54.1654 12.9893,54.0364 12.9893,53.9744 C13.0173,53.8334 13.2253,53.4444 13.3523,53.2094 C13.5173,52.9054 13.6883,52.5894 13.7983,52.2864 C13.8733,52.0844 13.9873,51.8394 14.1183,51.5534 C14.3593,51.0304 14.6573,50.3794 14.9563,49.5064 L14.9673,49.4764 L14.9753,49.4474 C16.0363,45.3474 16.2713,45.3544 16.8953,45.3774 C16.9823,45.3804 17.0663,45.3904 17.1493,45.4034 C17.2013,45.4134 17.2523,45.4254 17.3013,45.4364 C17.5173,45.4894 17.7123,45.5794 17.8853,45.6944 C18.2403,45.9334 18.5053,46.2874 18.6773,46.6914 C18.8203,47.0264 18.8973,47.3944 18.9063,47.7594 C18.9273,48.4874 18.7463,49.5164 18.4933,50.6084 C18.2823,51.5234 18.0213,52.4814 17.7863,53.3434 L17.6273,53.9314 L17.6083,53.9964 C17.6093,53.9954 17.6013,54.0634 17.6013,54.0634 C17.2323,57.5684 18.5583,60.2814 19.5843,62.0184 C20.6243,63.7704 21.9303,67.7614 21.9923,70.0834 C22.0603,72.5964 21.3593,77.9964 20.7123,79.0254 C20.5103,79.3494 20.3143,79.6994 20.0893,80.1054 C19.7063,80.7894 19.2443,81.6134 18.5453,82.6794 C18.3863,82.9224 18.2093,83.1804 18.0243,83.4494 L4.4193,80.6484 C5.1443,80.0304 5.8723,79.3854 6.4883,78.8054 C8.1863,77.2134 9.5233,75.6814 9.8003,74.6054 C10.2723,72.7684 10.0723,70.9404 9.8413,68.8264 C9.6813,67.3574 9.5003,65.6944 9.5343,63.8024 C9.5643,62.0614 9.6313,60.5214 9.6883,59.1634 C9.7873,56.8524 9.8513,55.3264 9.6833,54.4624 C9.5713,53.8894 10.1963,52.6774 10.5693,51.9524 C10.8193,51.4694 11.0153,51.0884 11.1093,50.7694 C11.3373,49.9644 13.1153,43.1194 13.2603,42.3924 C13.3223,42.0764 13.5383,41.6344 13.7663,41.1624 C13.9493,40.7824 14.1433,40.3884 14.3033,39.9694 C14.5393,39.3494 17.0963,33.4604 18.9833,29.1254 C19.2253,28.5724 19.4563,28.0444 19.6713,27.5554 M19.3223,44.6064 L19.7243,40.4294 C19.7643,40.2444 19.8093,40.0554 19.8533,39.8564 C20.1343,39.3514 20.3823,38.8364 20.6153,38.3224 C21.6033,36.1404 22.1903,33.9194 22.4763,32.0574 C22.6873,32.3024 22.8323,32.6094 22.8443,32.9984 C22.8913,34.7574 21.6773,38.4924 20.6803,41.0424 C20.5323,41.4224 20.3893,41.7784 20.2543,42.0944 C19.9673,42.7734 19.6413,43.6554 19.3223,44.6064 M19.2313,25.7884 L18.6443,25.7424 L18.4073,26.2844 C18.3363,26.4444 17.7653,27.7554 17.0093,29.4904 C15.4143,33.1584 12.9933,38.7314 12.7463,39.3744 C12.6133,39.7254 12.4393,40.0864 12.2693,40.4364 C11.9913,41.0034 11.7323,41.5424 11.6273,42.0654 C11.4923,42.7424 9.7253,49.5504 9.5073,50.3104 C9.4623,50.4714 9.2663,50.8534 9.0903,51.1874 C8.5263,52.2804 7.8263,53.6384 8.0493,54.7794 C8.1783,55.4514 8.1133,57.0584 8.0263,59.0914 C7.9653,60.4594 7.9023,62.0104 7.8683,63.7704 C7.8333,65.7684 8.0213,67.4884 8.1873,69.0054 C8.4093,71.0394 8.5833,72.6464 8.1893,74.1914 C7.9833,74.9864 6.6943,76.3804 4.9603,77.9484 C4.1583,78.6734 3.2423,79.4534 2.3103,80.2134 L0.7283,79.8874 L0.3693,81.6314 L21.0153,85.8824 L21.3743,84.1394 L19.7893,83.8124 C20.0043,83.4914 20.2033,83.1854 20.3803,82.9024 C20.8833,82.0984 21.2483,81.4484 21.5443,80.9184 C21.7593,80.5324 21.9433,80.1994 22.1253,79.9134 C23.1063,78.3474 23.7233,72.4114 23.6583,70.0364 C23.5863,67.4334 22.1813,63.1314 21.0193,61.1704 C20.0413,59.5174 18.9613,57.2464 19.2553,54.2954 L19.3943,53.7814 C19.9653,51.6814 20.6153,49.2964 20.5713,47.7114 C20.5613,47.3464 20.5073,46.9974 20.4203,46.6614 C20.6123,46.0194 20.8223,45.3594 21.0383,44.7314 C21.2883,44.0044 21.5463,43.3174 21.7893,42.7414 C22.7593,40.4394 24.5773,35.4314 24.5093,32.9534 C24.4703,31.5534 23.6283,30.6674 22.6843,30.1414 C22.7143,29.5934 22.7153,29.1084 22.6893,28.7074 C22.6893,28.6954 22.6873,28.6814 22.6863,28.6704 C22.6583,28.2624 22.5513,27.9094 22.3903,27.6024 C21.7283,26.3334 20.1423,25.8564 19.2313,25.7884" id="Fill-5" sketch:type="MSShapeGroup"></path>
            </g>
        </g>
    </g>
</svg>