<?xml version="1.0" encoding="UTF-8" standalone="no"?>
<svg width="87px" height="87px" viewBox="0 0 87 87" version="1.1" xmlns="http://www.w3.org/2000/svg" xmlns:xlink="http://www.w3.org/1999/xlink" xmlns:sketch="http://www.bohemiancoding.com/sketch/ns">
    <!-- Generator: Sketch 3.3.1 (12002) - http://www.bohemiancoding.com/sketch -->
    <title>icon-give-plain</title>
    <desc>Created with Sketch.</desc>
    <defs></defs>
    <g id="Page-1" stroke="none" stroke-width="1" fill="none" fill-rule="evenodd" sketch:type="MSPage">
        <g id="icon-give-plain" sketch:type="MSArtboardGroup" transform="translate(0.500000, 0.500000)" fill="#FFFFFF">
            <g id="donate" sketch:type="MSLayerGroup" transform="translate(0.000000, 17.010989)">
                <path d="M53.1806044,11.4893165 L42.5326703,22.1372505 L31.8847363,11.4893165 C29.7281209,9.3327011 29.7281209,5.82276703 31.8847363,3.66615165 C32.9649341,2.58595385 34.3948022,2.01892088 35.9276813,2.04727253 C37.4539451,2.08318462 38.8611319,2.72582198 39.8884066,3.85516264 L41.839,5.99854725 C41.8427802,6.00327253 41.8493956,6.00421758 41.8531758,6.00894286 C41.8692418,6.02500879 41.8749121,6.04674505 41.8919231,6.06186593 C41.9448462,6.10911868 42.0081648,6.13274505 42.0667582,6.16676703 C42.1017253,6.18661319 42.1329121,6.21212967 42.1697692,6.2281956 C42.2368681,6.2556022 42.3049121,6.2659978 42.3748462,6.27828352 C42.4277692,6.28773407 42.4788022,6.30096484 42.5326703,6.30096484 C42.5874835,6.30096484 42.6375714,6.28773407 42.6914396,6.27828352 C42.7613736,6.2659978 42.8294176,6.2556022 42.8965165,6.22725055 C42.9324286,6.21212967 42.9636154,6.18755824 42.9976374,6.16676703 C43.0571758,6.13369011 43.1214396,6.11006374 43.1743626,6.06186593 C43.1904286,6.04674505 43.197044,6.02500879 43.2121648,6.00894286 C43.2168901,6.00421758 43.2225604,6.00327253 43.2272857,5.99854725 L45.1778791,3.85516264 C46.2051538,2.72582198 47.6104505,2.08318462 49.1376593,2.04727253 C50.6554176,2.01136044 52.0994615,2.58595385 53.1806044,3.66615165 C54.2248901,4.71138242 54.8013736,6.09966813 54.8013736,7.57773407 C54.8013736,9.05485495 54.2248901,10.4450308 53.1806044,11.4893165 M54.5169121,2.32984396 C53.0681429,0.88012967 51.1581868,0.0843934066 49.0922967,0.158107692 C47.0443626,0.206305495 45.158033,1.0681956 43.7801429,2.58311868 L42.5326703,3.95344835 L41.2870879,2.58311868 C39.9082527,1.06725055 38.020033,0.206305495 35.9720989,0.158107692 C33.9430659,0.094789011 31.9981429,0.881074725 30.5484286,2.32984396 C27.6546703,5.2236022 27.6546703,9.93281099 30.5484286,12.8256242 L41.8645165,24.1417121 C42.0497473,24.3259978 42.2916813,24.4186132 42.5326703,24.4186132 C42.7746044,24.4186132 43.0165385,24.3259978 43.2008242,24.1417121 L54.5169121,12.8256242 C55.9184286,11.4241077 56.6914835,9.56045934 56.6914835,7.57773407 C56.6914835,5.59500879 55.9184286,3.73136044 54.5169121,2.32984396" id="Fill-1" sketch:type="MSShapeGroup"></path>
                <path d="M82.8765934,5.39134945 C81.0327912,9.63181099 78.5189451,15.3881407 78.2344835,15.9684044 C78.0407473,16.3606022 77.8857582,16.7622505 77.7364396,17.147833 C77.5521538,17.6260308 77.3782637,18.0730418 77.1958681,18.3282066 C76.7715385,18.9169758 73.0536923,24.7536352 72.6293626,25.4520308 C72.463033,25.730822 72.3231648,26.1249099 72.1417143,26.624844 C71.8742637,27.3742725 71.4215824,28.6311956 70.9367692,28.9326681 C70.2081319,29.3853495 69.1553407,30.4504264 67.5685934,32.0617451 C66.6348791,33.0077451 65.5754725,34.0813275 64.3497363,35.2635912 C63.0190989,36.5479209 61.7064176,37.5269978 60.5496703,38.390778 C58.8825934,39.6344703 57.4413846,40.7108879 56.4386813,42.2721187 C55.8518022,43.1840967 55.6448352,45.1639868 55.6391648,47.4425143 C55.6334945,48.1617011 55.6523956,48.9725582 55.6816923,49.7834154 L43.963011,49.7834154 L43.963011,46.1288879 C43.9998681,45.8009538 44.0367253,45.5136571 44.0735824,45.2745582 C44.3230769,43.6651297 44.582967,42.4119868 44.8305714,41.3922725 C45.1292088,40.1816571 45.4098901,39.302756 45.6442637,38.5731736 C45.786022,38.1412835 45.906044,37.7679868 46.0024396,37.4069758 C46.3086374,36.2587341 49.7051648,32.1571956 51.5508571,30.5335912 C53.2585714,29.0309538 56.9849231,27.3052835 58.9307912,26.8818989 C60.8577582,26.4604044 63.6834725,25.6004044 65.9468791,23.0015033 C65.9468791,23.0015033 65.9912967,22.9504703 65.9894066,22.9514154 L66.0243736,22.8956571 L66.340022,22.3881626 C66.8012088,21.6462945 67.3124835,20.8212615 67.8256484,20.0604923 C68.4399341,19.1513495 69.0570549,18.335767 69.591956,17.8651297 C69.8575165,17.629811 70.1731648,17.4398549 70.5077143,17.3188879 C70.9121978,17.1724044 71.3421978,17.1270418 71.7476264,17.2215473 C71.9489231,17.2688 72.1426593,17.3500747 72.3250549,17.4682066 C72.3638022,17.4946681 72.4063297,17.5239648 72.4488571,17.5551516 C72.5131209,17.6061846 72.5783297,17.6591077 72.6369231,17.7214813 C73.0688132,18.1533714 73.2294725,18.3159209 71.001978,21.8069538 L70.984967,21.8324703 L70.9736264,21.8551516 C70.5455165,22.6508879 70.279956,23.2982505 70.0654286,23.8208659 C69.9472967,24.1043824 69.8480659,24.3500967 69.7516703,24.5372176 C69.6099121,24.819789 69.4983956,25.1515033 69.3897143,25.472822 C69.3065495,25.7194813 69.1685714,26.1277451 69.0854066,26.2411516 C69.0390989,26.2827341 68.9474286,26.367789 68.8378022,26.4660747 C67.2595604,27.8751516 65.3637802,29.6338989 64.7107473,30.7301626 C64.6313626,30.8624703 64.5406374,30.9957231 64.4470769,31.1289758 C63.6825275,32.1912176 62.4908132,33.2373934 62.4738022,33.2525143 L63.5407692,34.4820308 C63.6107033,34.4196571 65.2664396,32.971833 66.1084835,31.5684264 C66.5167473,30.8860967 67.7972967,29.5800308 69.9236703,27.6804703 C70.0710989,27.5491077 70.1656044,27.4640527 70.2175824,27.4130198 C70.5625275,27.0879209 70.743978,26.5558549 70.9339341,25.9935473 C71.0246593,25.7260967 71.1182198,25.4491956 71.2070549,25.2715253 C71.3308571,25.0277011 71.4433187,24.7545802 71.5727912,24.4389319 C71.7721978,23.9569538 72.0179121,23.3587341 72.3959341,22.6480527 C74.751011,18.9509978 75.1630549,17.9426242 73.7898901,16.5656791 C73.6972747,16.4711736 73.598044,16.3861187 73.495033,16.3038989 C74.0563956,15.5780967 74.8700879,14.4544264 76.0315604,12.7363165 L76.0977143,12.6399209 L76.1345714,12.5274593 C76.6827033,10.7989538 77.4878901,9.19614066 78.346,7.82581099 C78.9215385,6.90910769 79.5216484,6.09447033 80.0849011,5.41686593 C80.2691868,5.19761319 80.4506374,4.99064615 80.6235824,4.80163516 C80.822989,4.58238242 81.0167253,4.38392088 81.1972308,4.20814066 C81.3796264,4.03047033 81.5497363,3.87831648 81.7085055,3.74884396 C81.7255165,3.73183297 81.7472527,3.71576703 81.7623736,3.70159121 C82.3331868,3.24229451 83.0769451,3.55983297 83.5475824,3.85090989 C83.3387253,4.33194286 83.1128571,4.84888791 82.8765934,5.39134945 L82.8765934,5.39134945 Z M72.7456044,13.123789 C72.8835824,12.8166462 73.0423516,12.4764264 73.2162418,12.1163604 C74.3805495,9.70363516 76.2432527,6.34585495 77.5332527,5.20706374 C77.8177143,4.95567912 78.1371429,4.8555033 78.4509011,4.84416264 C77.3102198,6.2900967 76.11,8.18871209 75.2055824,10.3500527 C74.9929451,10.8603824 74.7916484,11.3811077 74.6168132,11.918844 C74.5024615,12.0832835 74.3994505,12.2411077 74.2917143,12.3942066 L71.5709011,15.4637451 C72.0368132,14.6037451 72.4516923,13.7815473 72.7456044,13.123789 L72.7456044,13.123789 Z M42.036044,49.7824703 L30.3173626,49.7824703 C30.3466593,48.9725582 30.3655604,48.160756 30.3636703,47.4415692 C30.3542198,45.1630418 30.1491429,43.1831516 29.5622637,42.2711736 C28.5614505,40.7099429 27.1183516,39.6335253 25.4512747,38.389833 C24.2935824,37.5260527 22.9818462,36.5479209 21.6512088,35.2626462 C20.4254725,34.0803824 19.3660659,33.0068 18.4323516,32.0608 C16.8427692,30.4504264 15.7947033,29.3853495 15.0641758,28.9317231 C14.5784176,28.6302505 14.1266813,27.3733275 13.8592308,26.6238989 C13.6787253,26.1239648 13.536022,25.7298769 13.3696923,25.4510857 C12.9472527,24.7526901 9.22940659,18.9160308 8.80696703,18.3272615 C8.62268132,18.0720967 8.45068132,17.6250857 8.26450549,17.1468879 C8.11518681,16.7613055 7.9601978,16.3596571 7.76835165,15.9674593 C7.482,15.3871956 4.97004396,9.63086593 3.12435165,5.3904044 C2.88997802,4.84888791 2.66505495,4.33194286 2.4561978,3.85185495 C2.92683516,3.55983297 3.67059341,3.24229451 4.23951648,3.70253626 C4.25841758,3.71671209 4.27826374,3.73277802 4.29716484,3.74978901 C4.45215385,3.88020659 4.62226374,4.03141538 4.80654945,4.20908571 C4.98894505,4.38486593 5.18079121,4.58332747 5.3801978,4.80258022 C5.55597802,4.99159121 5.73459341,5.19855824 5.91887912,5.41781099 C6.48402198,6.09541538 7.08035165,6.91005275 7.65778022,7.82675604 C8.51589011,9.19614066 9.32296703,10.7998989 9.8710989,12.5284044 L9.90606593,12.6408659 L9.97221978,12.7372615 C11.1346374,14.4553714 11.9492747,15.5799868 12.5087473,16.304844 C12.4057363,16.3870637 12.3055604,16.4730637 12.212,16.5666242 C10.8426154,17.9426242 11.2499341,18.9509978 13.605956,22.6489978 C13.9877582,23.3596791 14.2334725,23.9578989 14.430989,24.4398769 C14.5604615,24.7555253 14.6729231,25.0286462 14.7967253,25.2724703 C14.8855604,25.4501407 14.981011,25.7260967 15.0717363,25.9944923 C15.2598022,26.5568 15.4393626,27.0888659 15.7861978,27.4139648 C15.8362857,27.4649978 15.9355165,27.5509978 16.0810549,27.6814154 C18.2055385,29.5809758 19.487978,30.8879868 19.8943516,31.5693714 C20.7382857,32.972778 22.3921319,34.4206022 22.4582857,34.4829758 L23.529033,33.2534593 C23.5101319,33.2383385 22.3203077,32.1921626 21.5576484,31.1299209 C21.4612527,30.9966681 21.3733626,30.8634154 21.2920879,30.7311077 C20.6371648,29.634844 18.7432747,27.8760967 17.1669231,26.4670198 C17.0582418,26.3687341 16.9618462,26.2836791 16.9174286,26.2420967 C16.8361538,26.1286901 16.6962857,25.7194813 16.6131209,25.473767 C16.5063297,25.1524484 16.3938681,24.8207341 16.2492747,24.5381626 C16.1547692,24.3510418 16.0536484,24.1053275 15.9374066,23.821811 C15.7228791,23.2991956 15.4573187,22.651833 15.0310989,21.8560967 L15.0178681,21.8305802 L15.0008571,21.8050637 C12.7733626,18.3140308 12.9330769,18.1514813 13.3659121,17.7195912 C13.4263956,17.6581626 13.4897143,17.6042945 13.5558681,17.5532615 C13.5965055,17.5220747 13.6371429,17.4937231 13.6777802,17.4663165 C13.8601758,17.3481846 14.0539121,17.2669099 14.2533187,17.2196571 C14.6596923,17.1242066 15.0915824,17.1695692 15.4951209,17.3169978 C15.8296703,17.4379648 16.1453187,17.6279209 16.4108791,17.8632396 C16.9457802,18.3338769 17.5647912,19.1494593 18.1752967,20.0586022 C18.6903516,20.8193714 19.2016264,21.6444044 19.6628132,22.3862725 L19.9784615,22.893767 L20.0134286,22.9495253 C20.0115385,22.9485802 20.0540659,22.9996132 20.0540659,22.9996132 C22.3184176,25.5985143 25.1450769,26.4585143 27.072044,26.8800088 C29.0198022,27.3033934 32.7461538,29.0290637 34.451978,30.5317011 C36.2957802,32.1562505 39.6960879,36.257789 40.0003956,37.4050857 C40.0986813,37.7670418 40.2168132,38.1393934 40.3585714,38.5712835 C40.5929451,39.3008659 40.8736264,40.179767 41.1722637,41.3903824 C41.4198681,42.4100967 41.6797582,43.6632396 41.9311429,45.2726681 C41.9661099,45.511767 42.002967,45.8000088 42.0379341,46.1269978 L42.0379341,49.7824703 L42.036044,49.7824703 Z M8.46863736,5.20706374 C9.75674725,6.34490989 11.6213407,9.70363516 12.7837582,12.1163604 C12.9576484,12.4773714 13.1164176,12.8166462 13.2543956,13.123789 C13.5483077,13.7815473 13.9631868,14.6028 14.430044,15.4646901 L11.7073407,12.3951516 C11.6024396,12.2420527 11.4947033,12.0842286 11.3822418,11.919789 C11.2083516,11.3820527 11.008,10.8613275 10.7934725,10.3509978 C9.89094505,8.18965714 8.69072527,6.29104176 7.54815385,4.84510769 C7.86285714,4.8555033 8.18228571,4.95662418 8.46863736,5.20706374 L8.46863736,5.20706374 Z M85.1031429,2.98996484 C84.4463297,2.38323956 83.0467033,1.56482198 81.6990549,1.93811868 C81.3720659,2.0278989 81.0479121,2.18666813 80.736989,2.43616264 C80.7275385,2.44372308 80.7180879,2.45222857 80.7076923,2.45978901 C80.4052747,2.70928352 80.0574945,3.03154725 79.6851429,3.41996484 C78.6796044,3.09392088 77.4812747,3.08258022 76.4568352,3.9869978 C74.6366593,5.58981099 72.2598462,10.2281407 71.259033,12.4575253 C71.0095385,13.0141626 70.6882198,13.6568 70.3357143,14.3211736 C70.0314066,14.894822 69.6987473,15.4826462 69.367033,16.0496791 C69.0702857,16.2103385 68.782044,16.4050198 68.5127033,16.6403385 C67.3502857,17.6666681 66.0782418,19.7174374 64.9555165,21.5281626 L64.6786154,21.9704484 C62.7610989,24.1488 60.4164176,24.887833 58.5820659,25.2885363 C56.4018242,25.765789 52.3872308,27.6256571 50.4734945,29.3078549 C48.7308132,30.8454593 44.8938901,35.2409099 44.4289231,36.9864264 C44.3400879,37.3068 44.2276264,37.6611956 44.0943736,38.0722945 C43.9138681,38.6393275 43.688,39.3329978 43.447956,40.2279648 C43.3043077,40.7685363 43.1530989,41.3856571 42.9990549,42.0925582 C42.8478462,41.3856571 42.6966374,40.7694813 42.5501538,40.2279648 C42.3101099,39.3329978 42.088967,38.6383824 41.9037363,38.0722945 C41.7723736,37.6602505 41.658022,37.3058549 41.5710769,36.9864264 C41.1042198,35.2409099 37.2663516,30.8454593 35.5227253,29.3078549 C33.6108791,27.6256571 29.5962857,25.765789 27.4179341,25.2885363 C25.5816923,24.887833 23.237011,24.1488 21.3194945,21.9704484 L21.0444835,21.5281626 C19.9217582,19.7174374 18.6468791,17.6666681 17.4835165,16.6403385 C17.2160659,16.4050198 16.9278242,16.2103385 16.632967,16.0496791 C16.2984176,15.4826462 15.9667033,14.894822 15.6623956,14.3211736 C15.3098901,13.6568 14.9885714,13.0141626 14.7371868,12.4575253 C13.7363736,10.2281407 11.3633407,5.58981099 9.54316484,3.9869978 C8.51494505,3.08258022 7.31850549,3.09486593 6.31485714,3.41996484 C5.94061538,3.03249231 5.59472527,2.70928352 5.29041758,2.45978901 C5.28096703,2.45128352 5.26868132,2.44277802 5.26301099,2.43616264 C4.95303297,2.18572308 4.62793407,2.02695385 4.30094505,1.93811868 C2.94951648,1.56482198 1.55272527,2.38418462 0.896857143,2.98996484 L0.472527473,3.38216264 L0.703120879,3.91233846 C0.771164835,4.06732747 1.32874725,5.34976703 2.06872527,7.04897582 C3.62995604,10.6364044 6.00771429,16.0837011 6.30446154,16.6857011 C6.46512088,17.0164703 6.60876923,17.3812615 6.7458022,17.7366022 C6.96505495,18.3121407 7.17769231,18.8564923 7.48389011,19.280822 C7.87703297,19.8280088 11.5721978,25.6306462 11.9747912,26.2931297 C12.057956,26.4329978 12.1997143,26.8270857 12.3254066,27.1748659 C12.7298901,28.3070418 13.2354945,29.7151736 14.2022857,30.3143385 C14.7674286,30.6696791 15.875978,31.7886242 17.2718242,33.2052615 C18.2112088,34.1607121 19.2800659,35.2399648 20.519033,36.4364044 C21.9233846,37.7916132 23.2804835,38.802822 24.4769231,39.697789 C26.0806813,40.8923385 27.3489451,41.8392835 28.190989,43.1500747 C28.6266593,43.8286242 28.7627473,45.6799868 28.7315604,47.9651297 C28.7145495,49.0774593 28.6597363,50.3183165 28.5746813,51.5516132 C29.1284835,51.5128659 56.8705714,51.5128659 57.4243736,51.5516132 C57.3412088,50.3183165 57.2845055,49.0774593 57.2674945,47.9651297 C57.2363077,45.6799868 57.3723956,43.8286242 57.809956,43.1500747 C58.6501099,41.8383385 59.9174286,40.8913934 61.5221319,39.697789 C62.7204615,38.802822 64.0747253,37.7906681 65.480022,36.4364044 C66.7199341,35.2399648 67.7869011,34.1607121 68.7272308,33.2052615 C70.124967,31.7886242 71.2278462,30.6696791 71.7986593,30.3143385 C72.7635604,29.7142286 73.2682198,28.3070418 73.6755385,27.1748659 C73.7993407,26.8280308 73.9410989,26.4339429 74.0261538,26.2931297 C74.424967,25.6306462 78.122022,19.8280088 78.5151648,19.280822 C78.8194725,18.8564923 79.0321099,18.3130857 79.2532527,17.7366022 C79.3912308,17.3812615 79.532044,17.0155253 79.6964835,16.6857011 C79.9913407,16.082756 82.370989,10.6364044 83.9322198,7.04897582 C84.6703077,5.34976703 85.2297802,4.06732747 85.2959341,3.91233846 L85.5274725,3.38216264 L85.1031429,2.98996484 Z" id="Fill-3" sketch:type="MSShapeGroup"></path>
            </g>
        </g>
    </g>
</svg>