<?xml version="1.0" encoding="UTF-8" standalone="no"?>
<svg width="208px" height="208px" viewBox="0 0 208 208" version="1.1" xmlns="http://www.w3.org/2000/svg" xmlns:xlink="http://www.w3.org/1999/xlink" xmlns:sketch="http://www.bohemiancoding.com/sketch/ns">
    <!-- Generator: Sketch 3.2.2 (9983) - http://www.bohemiancoding.com/sketch -->
    <title>rose-window-1</title>
    <desc>Created with Sketch.</desc>
    <defs></defs>
    <g id="Page-1" stroke="none" stroke-width="1" fill="none" fill-rule="evenodd" sketch:type="MSPage">
        <g id="Fill-1-+-rose-window-1" sketch:type="MSLayerGroup" fill="#676767" opacity="0.16120569">
            <path d="M102.9813,0.4 C91.5493,0.4 82.0443,8.785 80.2833,19.727 C73.2243,11.484 61.0623,9.145 51.3323,14.765 C46.0133,17.835 42.2083,22.793 40.6173,28.726 C39.3473,33.465 39.6393,38.366 41.3613,42.86 C31.1223,39.235 19.4063,43.288 13.7853,53.028 C8.0673,62.929 10.5963,75.338 19.1953,82.335 C8.5153,84.316 0.4003,93.694 0.4003,104.94 C0.4003,111.081 2.7913,116.856 7.1353,121.199 C10.6053,124.669 14.9943,126.866 19.7483,127.622 C11.4893,134.676 9.1413,146.85 14.7633,156.588 C17.8343,161.907 22.7933,165.712 28.7273,167.301 C30.7073,167.832 32.7183,168.094 34.7153,168.094 C37.4883,168.094 40.2333,167.577 42.8433,166.58 C41.3013,170.924 41.0963,175.624 42.3143,180.172 C43.9033,186.105 47.7083,191.064 53.0263,194.135 C56.5713,196.179 60.5023,197.224 64.4873,197.224 C66.4853,197.224 68.4963,196.962 70.4783,196.432 C75.2123,195.164 79.3053,192.465 82.3363,188.732 C84.3193,199.408 93.6963,207.52 104.9383,207.52 C116.3673,207.52 125.8703,199.138 127.6373,188.201 C132.0733,193.381 138.5273,196.232 145.1293,196.232 C149.0283,196.232 152.9753,195.242 156.5883,193.156 C166.4903,187.439 170.5043,175.426 166.5543,165.067 C169.0473,165.951 171.6233,166.386 174.1823,166.386 C182.1343,166.384 189.8803,162.26 194.1333,154.893 C197.2063,149.573 198.0213,143.377 196.4313,137.442 C195.1623,132.708 192.4663,128.613 188.7323,125.584 C199.4083,123.601 207.5183,114.223 207.5183,102.981 C207.5183,96.839 205.1273,91.065 200.7843,86.721 C197.3153,83.252 192.9263,81.054 188.1703,80.298 C196.4313,73.244 198.7783,61.07 193.1553,51.332 C190.0853,46.013 185.1253,42.208 179.1933,40.619 C174.4563,39.349 169.5603,39.638 165.0693,41.358 C166.6163,37.01 166.8253,32.303 165.6063,27.748 C164.0173,21.815 160.2113,16.856 154.8923,13.785 C149.5733,10.713 143.3763,9.897 137.4443,11.489 C132.7093,12.758 128.6123,15.454 125.5843,19.188 C123.5993,8.512 114.2233,0.4 102.9813,0.4 L102.9813,0.4 Z M104.1753,27.368 L104.1753,2.846 C106.8713,3.001 109.4253,3.675 111.7443,4.773 C107.3073,12.393 106.1643,22.918 105.8703,27.731 C105.3283,27.553 104.7613,27.427 104.1753,27.368 L104.1753,27.368 Z M93.4133,5.154 C95.9373,3.82 98.7783,3.02 101.7873,2.848 L101.7873,27.483 C100.9453,27.652 100.1533,27.952 99.4293,28.359 C99.1303,23.496 97.9673,12.796 93.4133,5.154 L93.4133,5.154 Z M108.2043,28.943 C108.3893,25.039 109.3153,13.64 113.8423,5.909 C115.6883,7.063 117.3323,8.501 118.7253,10.161 C115.0053,13.364 112.1613,18.446 110.4933,24.992 C110.0113,26.88 109.6883,28.638 109.4693,30.128 C109.0903,29.691 108.6673,29.292 108.2043,28.943 L108.2043,28.943 Z M94.8043,25.612 C93.1523,19.127 90.3453,14.078 86.6733,10.87 C87.9973,9.145 89.5803,7.632 91.3753,6.4 C96.2943,14.679 97.0213,27.283 97.1243,30.281 C96.6783,30.825 96.3003,31.429 96.0063,32.075 C95.7993,30.359 95.4383,28.098 94.8043,25.612 L94.8043,25.612 Z M111.4333,34.215 C111.6103,31.442 112.8153,18.488 120.1383,12.064 C121.0603,13.46 121.8273,14.968 122.3933,16.575 C116.8223,20.17 114.0833,30.706 113.2693,34.446 C112.6783,34.304 112.0673,34.22 111.4333,34.215 L111.4333,34.215 Z M83.2923,17.46 C83.7833,15.825 84.4663,14.276 85.3253,12.839 C92.0943,18.948 93.5373,30.664 93.8243,34.28 C93.1733,34.361 92.5493,34.521 91.9573,34.747 C91.0823,30.849 88.4523,21.174 83.2923,17.46 L83.2923,17.46 Z M137.7983,36.296 C139.9613,31.972 144.3583,22.051 144.2273,13.105 C147.1333,13.219 149.9853,13.972 152.6353,15.305 L140.2783,36.708 C139.4663,36.436 138.6303,36.304 137.7983,36.296 L137.7983,36.296 Z M135.2053,31.533 C137.0183,25.078 137.1093,19.291 135.5253,14.674 C136.3483,14.334 137.1873,14.029 138.0613,13.794 C139.3113,13.458 140.5773,13.253 141.8413,13.155 C141.9713,22.906 136.1523,34.354 134.8303,36.826 C134.1733,37.076 133.5473,37.413 132.9703,37.832 C133.6573,36.231 134.4973,34.052 135.2053,31.533 L135.2053,31.533 Z M70.1373,36.896 C68.3563,33.445 63.4393,23.092 63.4933,14.105 C65.6693,14.182 67.8113,14.604 69.8493,15.344 C68.2273,19.979 68.3063,25.804 70.1353,32.304 C70.6613,34.186 71.2643,35.873 71.8193,37.276 C71.2743,37.091 70.7103,36.961 70.1373,36.896 L70.1373,36.896 Z M53.5883,16.284 C56.0013,15.071 58.5503,14.378 61.1083,14.168 C61.0763,23.013 65.3733,32.732 67.5203,37.028 C66.9633,37.149 66.4113,37.324 65.8763,37.568 L53.5883,16.284 Z M128.1513,38.084 C129.3333,34.316 131.9443,24.528 129.3033,18.698 C130.5303,17.535 131.8973,16.536 133.3773,15.712 C136.2143,24.448 131.5193,35.416 129.9923,38.612 C129.3953,38.361 128.7793,38.186 128.1513,38.084 L128.1513,38.084 Z M72.0213,16.285 C73.5213,17.035 74.9373,17.956 76.2303,19.065 C73.1923,24.988 76.1243,35.541 77.2803,39.15 C76.7023,39.323 76.1313,39.558 75.5843,39.873 C74.3963,37.491 68.8663,25.585 72.0213,16.285 L72.0213,16.285 Z M142.4113,37.791 L154.7023,16.501 C156.9343,17.964 158.8253,19.81 160.3123,21.957 C156.2143,24.297 152.0303,28.086 147.8523,33.277 C146.0633,35.499 144.6513,37.519 143.7013,38.947 C143.3193,38.524 142.8923,38.134 142.4113,37.791 L142.4113,37.791 Z M58.1083,35.128 C53.8473,29.832 49.5793,25.998 45.4033,23.672 C46.9553,21.206 49.0363,19.109 51.5213,17.478 L63.8743,38.874 C63.2313,39.445 62.6973,40.103 62.2753,40.824 C61.3283,39.392 59.9083,37.363 58.1083,35.128 L58.1083,35.128 Z M115.5113,35.369 C116.3723,31.17 118.9293,22.346 123.0713,19.021 C123.2913,20.035 123.4593,21.069 123.5253,22.132 C123.5113,22.157 123.5323,22.391 123.5013,22.538 L119.0773,39.882 C118.4793,37.976 117.1913,36.38 115.5113,35.369 L115.5113,35.369 Z M82.4863,23.054 C82.4563,22.928 82.4243,22.78 82.4103,22.664 C82.4403,21.78 82.5483,20.915 82.6883,20.062 C84.5853,21.81 86.3453,24.849 87.8303,29.031 C88.8713,31.958 89.5043,34.679 89.7803,35.99 C88.5833,36.949 87.6663,38.241 87.1673,39.725 L82.4863,23.054 Z M125.7943,23.244 C125.8343,23.103 125.8953,22.898 125.9603,22.757 C126.4273,22.01 126.9513,21.314 127.5003,20.642 C129.2663,26.195 126.5033,35.448 125.6413,38.078 C125.3563,38.122 125.0713,38.179 124.7873,38.255 C123.5503,38.586 122.4403,39.197 121.5113,40.025 L125.7943,23.244 Z M79.6853,38.813 C78.7803,36.046 75.8843,26.284 78.0403,20.843 C78.7383,21.611 79.4003,22.421 79.9893,23.309 C79.9893,23.338 80.1083,23.496 80.1423,23.548 L85.0093,40.883 C83.5363,39.557 81.6333,38.836 79.6853,38.813 L79.6853,38.813 Z M145.1233,41.146 C147.2153,37.885 153.7293,28.43 161.5503,23.983 C162.2853,25.36 162.8863,26.82 163.2993,28.367 C163.4543,28.943 163.5793,29.523 163.6823,30.104 C158.8473,31.01 153.8313,33.993 149.1033,38.838 C147.7343,40.239 146.5703,41.606 145.6323,42.792 C145.5193,42.228 145.3523,41.674 145.1233,41.146 L145.1233,41.146 Z M56.8583,40.687 C52.1753,35.89 47.2093,32.917 42.4183,31.979 C42.5373,31.099 42.6903,30.218 42.9243,29.343 C43.2593,28.094 43.7133,26.896 44.2593,25.752 C52.7673,30.512 59.7723,41.272 61.2543,43.654 C61.1433,44.35 61.1223,45.064 61.1973,45.772 C60.1553,44.376 58.6883,42.561 56.8583,40.687 L56.8583,40.687 Z M97.6723,35.405 C97.6723,32.266 100.2253,29.713 103.3653,29.713 C104.2273,29.713 105.0353,29.921 105.7683,30.266 C105.7683,30.277 105.7683,30.295 105.7673,30.304 L105.8413,30.304 C107.7363,31.23 109.0563,33.161 109.0563,35.413 L109.0443,36.903 L110.4403,36.674 C110.7503,36.624 111.0613,36.6 111.3643,36.6 C114.5043,36.6 117.0573,39.153 117.0573,42.291 C117.0573,45.429 114.5043,47.983 111.3643,47.983 L110.4243,48.03 C109.9353,47.147 109.4123,46.238 108.8253,45.278 C106.4023,41.34 104.0513,38.25 103.9513,38.122 L103.2093,37.151 L102.5003,38.16 C102.4033,38.299 100.0623,41.651 97.7103,45.856 C97.2933,46.602 96.9063,47.324 96.5433,48.024 L94.8223,47.983 C91.6843,47.983 89.1313,45.429 89.1313,42.291 C89.1313,39.153 91.6843,36.6 94.8223,36.6 C95.2833,36.6 95.7463,36.656 96.1953,36.768 L97.7173,37.145 L97.6723,35.405 Z M145.2703,47.35 C146.7303,45.141 154.2983,34.356 163.9533,32.456 C164.0553,34.149 163.9553,35.841 163.6393,37.498 C156.9693,37.804 149.2853,45.646 146.7423,48.455 C146.2973,48.038 145.8073,47.663 145.2703,47.35 L145.2703,47.35 Z M42.7903,39.379 C42.3993,37.736 42.2173,36.053 42.2423,34.36 C51.2223,36.27 58.3713,45.808 60.3783,48.736 C59.8593,49.13 59.4023,49.579 59.0053,50.069 C56.3343,47.161 49.1633,39.996 42.7903,39.379 L42.7903,39.379 Z M132.7893,41.521 C134.3593,38.803 137.8493,37.868 140.5653,39.437 C143.2843,41.006 144.2183,44.496 142.6463,47.217 L141.9003,48.511 L143.2143,49.006 C143.5053,49.115 143.7843,49.249 144.0503,49.402 C145.3683,50.162 146.3093,51.389 146.7023,52.857 C147.0953,54.326 146.8953,55.86 146.1333,57.177 C145.3733,58.494 144.1473,59.436 142.6773,59.829 C141.2103,60.223 139.6763,60.02 138.3583,59.261 L137.6373,58.867 C137.6683,57.964 137.6873,57.032 137.6823,56.039 C137.6573,51.417 137.2493,47.555 137.2323,47.394 L137.1023,46.177 L135.9733,46.672 C135.8173,46.742 132.0763,48.391 127.8823,50.766 C127.1593,51.175 126.4673,51.58 125.8103,51.981 L124.0333,50.989 C122.7163,50.229 121.7733,49.002 121.3803,47.532 C120.9883,46.065 121.1883,44.529 121.9483,43.214 C122.7103,41.897 123.9363,40.955 125.4053,40.562 C126.8753,40.168 128.4083,40.371 129.7253,41.129 C130.1243,41.36 130.4963,41.642 130.8313,41.962 L131.9603,43.05 L132.7893,41.521 Z M68.7023,39.266 C69.3673,39.202 70.0413,39.242 70.7043,39.419 C71.9133,39.745 72.9423,40.456 73.6993,41.428 C73.6993,41.429 73.7023,41.434 73.7023,41.436 L73.7033,41.434 C73.8643,41.642 74.0283,41.845 74.1623,42.075 L74.9043,43.37 L75.9953,42.48 C76.2363,42.282 76.4923,42.105 76.7553,41.953 C79.4743,40.383 82.9613,41.317 84.5313,44.035 C86.1003,46.752 85.1673,50.242 82.4483,51.811 L81.6623,52.201 C80.7813,51.669 79.8573,51.132 78.8463,50.582 C74.7813,48.377 71.2013,46.874 71.0513,46.812 L69.9243,46.341 L69.8133,47.569 C69.7983,47.739 69.4413,51.811 69.5033,56.629 C69.5143,57.555 69.5443,58.431 69.5853,59.278 L68.1223,60.082 C65.4023,61.651 61.9153,60.718 60.3463,57.999 C58.7763,55.281 59.7123,51.792 62.4303,50.223 C62.8293,49.992 63.2583,49.81 63.7033,49.683 L65.2033,49.25 L64.3023,47.765 C62.7323,45.045 63.6663,41.559 66.3843,39.989 C67.1043,39.572 67.8933,39.34 68.6963,39.266 C68.6973,39.266 68.6973,39.267 68.6973,39.267 L68.7023,39.266 Z M149.0093,52.24 C148.8313,51.575 148.5663,50.951 148.2383,50.367 C149.1203,49.384 151.0453,47.321 153.4333,45.285 C157.0923,42.167 160.3663,40.346 162.9973,39.952 C162.6763,40.948 162.2953,41.927 161.8213,42.876 C161.8443,42.843 161.7103,43.082 161.5653,43.252 L149.1043,56.013 C149.3683,54.781 149.3443,53.494 149.0093,52.24 L149.0093,52.24 Z M94.9393,58.908 C94.7723,54.408 100.3623,45.089 103.2713,40.75 C106.2163,44.784 111.8913,53.441 112.0593,57.951 C112.1623,60.753 111.3703,63.437 109.8273,65.509 C108.2853,67.581 106.1753,68.794 103.8903,68.921 C103.7553,68.929 103.6203,68.933 103.4853,68.933 C98.9123,68.933 95.1483,64.525 94.9393,58.908 L94.9393,58.908 Z M45.0893,44.798 C45.0893,44.798 44.8173,44.537 44.6483,44.329 C44.2333,43.551 43.8903,42.747 43.5813,41.933 C46.1063,42.498 49.1433,44.252 52.5273,47.133 C54.9373,49.188 56.8753,51.269 57.7473,52.242 C57.1933,53.676 57.0543,55.256 57.3693,56.793 L45.0893,44.798 Z M157.9003,58.958 C160.8413,56.248 167.9153,49.122 168.5383,42.791 C170.1833,42.399 171.8663,42.217 173.5603,42.244 C171.6603,51.172 162.2173,58.29 159.2313,60.345 C158.8433,59.826 158.3953,59.363 157.9003,58.958 L157.9003,58.958 Z M167.2323,56.858 C172.0303,52.176 175.0033,47.211 175.9393,42.42 C176.8203,42.537 177.7013,42.69 178.5743,42.926 C179.8253,43.259 181.0243,43.715 182.1683,44.261 C177.4623,52.669 166.8973,59.61 164.3493,61.201 C163.6573,61.085 162.9473,61.06 162.2403,61.128 C163.6223,60.09 165.3993,58.647 167.2323,56.858 L167.2323,56.858 Z M163.2763,44.925 C163.3773,44.836 163.4983,44.725 163.5923,44.648 C164.3693,44.234 165.1723,43.891 165.9833,43.583 C165.4193,46.101 163.6663,49.147 160.7863,52.528 C158.7733,54.89 156.7353,56.797 155.7373,57.691 C155.4593,57.582 155.1743,57.484 154.8803,57.406 C153.6583,57.078 152.4033,57.049 151.2003,57.293 L163.2763,44.925 Z M32.4633,44.001 C34.1353,43.9 35.8243,43.991 37.4973,44.303 C37.8273,50.957 45.6543,58.635 48.4563,61.178 C48.0363,61.613 47.6563,62.099 47.3323,62.641 C45.0923,61.158 34.3783,53.62 32.4633,44.001 L32.4633,44.001 Z M23.9873,46.376 C25.9083,45.355 27.9763,44.649 30.1103,44.273 C31.0233,49.097 34.0033,54.1 38.8383,58.817 C40.2583,60.204 41.6483,61.384 42.8453,62.328 C42.2763,62.433 41.7183,62.598 41.1833,62.821 C37.9613,60.756 28.4543,54.225 23.9873,46.376 L23.9873,46.376 Z M39.9563,44.938 C40.9453,45.255 41.9243,45.627 42.8783,46.103 C42.8713,46.095 43.1773,46.268 43.3023,46.399 L56.1283,58.922 C54.1673,58.459 52.1213,58.759 50.3863,59.706 C47.1983,56.89 40.7683,50.22 39.9563,44.938 L39.9563,44.938 Z M167.1593,62.234 C168.5853,61.286 170.5903,59.882 172.7923,58.108 C178.0883,53.848 181.9223,49.578 184.2483,45.403 C186.7143,46.956 188.8113,49.036 190.4403,51.521 L169.1003,63.843 C168.5333,63.196 167.8763,62.66 167.1593,62.234 L167.1593,62.234 Z M16.4993,53.216 C17.9853,50.957 19.8483,49.079 21.9633,47.617 C24.3043,51.711 28.0903,55.893 33.2763,60.067 C35.5033,61.858 37.5223,63.272 38.9533,64.22 C38.5223,64.6 38.1273,65.026 37.7803,65.502 L16.4993,53.216 Z M114.0053,57.841 C113.9323,55.911 113.1313,53.397 111.6443,50.356 C113.7153,50.286 115.5923,49.437 116.9853,48.085 L113.9213,60.093 C113.9983,59.356 114.0323,58.603 114.0053,57.841 L114.0053,57.841 Z M89.6213,48.464 C91.0273,49.652 92.8423,50.37 94.8223,50.37 L95.4023,50.367 C93.7333,53.99 92.9153,56.896 92.9943,59.017 C93.0263,59.888 93.1293,60.734 93.2943,61.547 L89.6213,48.464 Z M119.2763,48.781 C119.9183,50.585 121.1623,52.089 122.8393,53.057 L123.5523,53.433 C120.2553,55.66 118.0533,57.717 117.0213,59.567 C116.5053,60.491 116.1093,61.439 115.8033,62.391 L119.2763,48.781 Z M89.6053,58.884 C88.5953,57.274 86.6973,55.528 83.9653,53.67 C85.6483,52.588 86.8053,50.975 87.3383,49.176 L90.5763,60.708 C90.2913,60.087 89.9763,59.476 89.6053,58.884 L89.6053,58.884 Z M121.1963,73.687 C116.9913,71.451 115.9243,65.539 118.7403,60.484 C120.9333,56.55 130.5483,51.486 135.2873,49.287 C135.7103,54.263 136.0693,64.607 133.8703,68.549 C132.5043,71 130.4353,72.883 128.0403,73.854 C126.9103,74.312 125.7703,74.54 124.6693,74.54 C123.4413,74.54 122.2613,74.256 121.1963,73.687 L121.1963,73.687 Z M73.6173,69.323 C71.2263,65.505 71.4183,54.641 71.7733,49.428 C76.3393,51.455 85.5773,56.124 87.9713,59.949 C89.4613,62.325 90.1153,65.047 89.8123,67.612 C89.5083,70.178 88.2853,72.279 86.3693,73.532 C85.1573,74.324 83.7883,74.699 82.3813,74.699 C79.1633,74.699 75.7553,72.734 73.6173,69.323 L73.6173,69.323 Z M170.3903,65.854 L191.6353,53.59 C192.8333,55.967 193.5463,58.509 193.7633,61.107 C184.9433,61.072 175.2393,65.352 170.9233,67.505 C170.8053,66.945 170.6333,66.392 170.3903,65.854 L170.3903,65.854 Z M15.3063,55.285 L36.6683,67.618 C36.3903,68.414 36.2403,69.246 36.2253,70.086 C31.8653,67.912 22.0133,63.568 13.1183,63.692 C13.2263,60.838 13.9533,57.976 15.3063,55.285 L15.3063,55.285 Z M147.8593,68.056 C146.2893,65.339 147.2263,61.85 149.9433,60.281 C151.2593,59.52 152.7943,59.319 154.2623,59.712 C155.7313,60.107 156.9583,61.048 157.7173,62.363 C157.9493,62.764 158.1333,63.193 158.2603,63.639 L158.6963,65.144 L160.1763,64.236 C162.8963,62.665 166.3843,63.601 167.9533,66.319 C168.3853,67.068 168.6103,67.874 168.6783,68.683 C168.6693,68.687 168.6573,68.696 168.6533,68.698 L168.6783,68.747 C168.8303,70.854 167.8193,72.971 165.8653,74.097 L164.5713,74.84 L165.4623,75.928 C165.6603,76.168 165.8363,76.426 165.9903,76.69 C166.7493,78.007 166.9523,79.54 166.5583,81.01 C166.1653,82.477 165.2233,83.706 163.9063,84.466 C161.1873,86.035 157.7003,85.099 156.1293,82.382 L155.5443,81.453 C156.0953,80.474 156.6503,79.439 157.2163,78.302 C159.2713,74.161 160.6453,70.529 160.7033,70.376 L161.1333,69.232 L159.9023,69.167 C159.7303,69.16 155.6473,68.948 150.8363,69.184 C150.0503,69.221 149.2953,69.271 148.5663,69.329 L147.8593,68.056 Z M48.9393,64.773 C49.0493,64.481 49.1833,64.201 49.3363,63.935 C50.9033,61.217 54.3923,60.283 57.1113,61.852 C59.8273,63.421 60.7643,66.909 59.1943,69.627 L58.8003,70.34 C57.7483,70.308 56.6563,70.291 55.4773,70.311 C50.8533,70.388 46.9983,70.838 46.8353,70.856 L45.6213,71.001 L46.1283,72.124 C46.2003,72.279 47.8903,76.002 50.3103,80.168 C50.7943,81.001 51.2693,81.776 51.7403,82.52 L50.9233,83.954 C50.1633,85.271 48.9353,86.212 47.4653,86.604 C45.9983,86.999 44.4643,86.797 43.1473,86.037 C41.8303,85.275 40.8883,84.049 40.4953,82.58 C40.1013,81.11 40.3033,79.577 41.0633,78.26 C41.2943,77.861 41.5753,77.489 41.8953,77.154 L42.9833,76.025 L41.4553,75.197 C38.7373,73.626 37.8013,70.138 39.3713,67.421 C40.9413,64.701 44.4293,63.768 47.1503,65.337 L48.4423,66.088 L48.9393,64.773 Z M135.5913,69.467 C136.5633,67.72 137.1923,65.032 137.4873,61.486 C138.6463,62.092 139.9073,62.415 141.1913,62.415 C141.8243,62.415 142.4583,62.328 143.0863,62.176 L134.9533,70.508 C135.1773,70.171 135.3903,69.825 135.5913,69.467 L135.5913,69.467 Z M69.3173,62.151 L69.7743,61.882 C70.1413,65.753 70.8753,68.619 71.9853,70.388 C75.4793,75.964 81.7233,78.379 86.5253,76.156 L90.0203,82.21 C88.7063,83.057 87.4723,84.017 86.3343,85.08 L63.8043,63.078 C64.2943,63.169 64.7893,63.231 65.2893,63.231 C66.6603,63.231 68.0453,62.884 69.3173,62.151 L69.3173,62.151 Z M171.0383,70.132 C174.5013,68.343 184.8353,63.433 193.8243,63.494 C193.7713,65.053 193.5613,66.619 193.1473,68.164 C192.9913,68.74 192.8093,69.306 192.6073,69.86 C187.9683,68.228 182.1333,68.302 175.6173,70.133 C173.7343,70.663 172.0453,71.264 170.6433,71.821 C170.8343,71.272 170.9683,70.706 171.0383,70.132 L171.0383,70.132 Z M93.8723,63.613 C95.4033,67.895 98.7633,70.924 102.7293,71.274 L102.7293,78.144 C101.1543,78.218 99.6193,78.438 98.1323,78.784 L93.8723,63.613 Z M122.8403,86.334 L123.4443,85.715 L144.8393,63.806 C144.5193,65.615 144.8043,67.539 145.7903,69.25 L146.0013,69.587 C141.9303,70.089 138.9643,70.948 137.1753,72.162 C131.8723,75.757 129.6563,81.849 131.7523,86.524 L125.7043,90.014 C124.8603,88.703 123.9013,87.471 122.8403,86.334 L122.8403,86.334 Z M111.5013,79.239 L115.3163,64.296 C114.5103,68.774 115.9473,73.079 119.3033,75.32 L115.9743,81.084 C114.5553,80.338 113.0593,79.716 111.5013,79.239 L111.5013,79.239 Z M105.1163,78.142 L105.1163,71.162 C107.4803,70.718 109.6313,69.314 111.2673,67.119 C111.8983,66.269 112.4173,65.33 112.8393,64.336 L109.1903,78.644 C107.8673,78.371 106.5043,78.203 105.1163,78.142 L105.1163,78.142 Z M68.9273,72.255 C67.2533,71.346 64.7343,70.758 61.4363,70.484 C62.3833,68.648 62.5663,66.601 62.0733,64.727 L72.1923,74.608 C71.2303,73.704 70.1333,72.91 68.9273,72.255 L68.9273,72.255 Z M88.5403,74.871 C90.3723,73.306 91.5403,71.012 91.8623,68.288 C91.9803,67.29 91.9663,66.272 91.8533,65.255 L95.8333,79.429 C94.5353,79.86 93.2843,80.391 92.0863,81.015 L88.5403,74.871 Z M13.1773,66.077 C22.8163,65.959 34.1023,71.639 36.7413,73.042 C36.9803,73.701 37.2923,74.321 37.6863,74.886 C36.0993,74.212 33.9783,73.403 31.5333,72.714 C25.0903,70.904 19.3123,70.81 14.6983,72.385 C13.8663,70.376 13.3473,68.249 13.1773,66.077 L13.1773,66.077 Z M168.0933,75.563 C170.5663,74.333 182.4153,68.87 191.6663,72.032 C190.9093,73.551 189.9783,74.965 188.8743,76.242 C182.9783,73.195 172.4573,76.103 168.8073,77.27 C168.6363,76.681 168.3993,76.109 168.0933,75.563 L168.0933,75.563 Z M140.5923,89.877 C138.0193,89.667 135.8733,88.521 134.5513,86.652 C131.8033,82.761 133.5103,77.001 138.2993,73.752 C142.0263,71.226 152.8913,71.027 158.1133,71.194 C156.2523,75.83 151.9203,85.228 148.1833,87.76 C146.1203,89.163 143.7573,89.911 141.4483,89.911 C141.1613,89.911 140.8763,89.9 140.5923,89.877 L140.5923,89.877 Z M60.1303,89.202 C56.1723,87.052 51.0023,77.496 48.7513,72.78 C53.7213,72.303 64.0613,71.83 68.0283,73.984 C70.4933,75.321 72.3993,77.371 73.3953,79.755 C74.3923,82.137 74.3613,84.569 73.3063,86.601 C71.9243,89.272 69.0603,90.709 65.8573,90.709 C63.9893,90.709 62.0053,90.22 60.1303,89.202 L60.1303,89.202 Z M15.7283,74.537 C24.4323,71.722 35.3403,76.368 38.5773,77.913 C38.3193,78.506 38.1403,79.124 38.0323,79.754 C34.2313,78.564 24.5203,75.992 18.7163,78.609 C17.5463,77.365 16.5453,76.001 15.7283,74.537 L15.7283,74.537 Z M128.4353,75.975 C129.3223,75.616 130.1663,75.144 130.9673,74.593 L123.0363,82.715 L121.1323,84.663 C120.1613,83.8 119.1243,83.008 118.0303,82.297 L121.4563,76.36 C122.3743,76.66 123.3393,76.81 124.3303,76.81 C125.6703,76.81 127.0573,76.534 128.4353,75.975 L128.4353,75.975 Z M75.8313,86.779 C76.6883,84.498 76.5833,81.894 75.5133,79.336 C74.8483,77.746 73.8523,76.275 72.5963,75.003 L84.6333,86.756 L84.6653,86.787 C83.6803,87.891 82.7893,89.082 82.0023,90.343 L75.8313,86.779 Z M168.8633,81.628 C169.0363,80.982 169.1183,80.329 169.1323,79.676 C171.9363,78.761 181.6673,75.884 187.0903,78.046 C186.3153,78.748 185.4953,79.405 184.6113,79.99 C184.5823,79.99 184.3693,80.128 184.2363,80.178 L166.9963,85.02 C167.8763,84.07 168.5193,82.914 168.8633,81.628 L168.8633,81.628 Z M23.3963,82.163 C23.3963,82.163 22.9523,82.04 22.7583,81.96 C22.0083,81.491 21.3153,80.966 20.6483,80.418 C26.1493,78.672 35.2763,81.365 38.0003,82.252 C38.0463,82.57 38.1053,82.885 38.1883,83.199 C38.5083,84.389 39.0883,85.46 39.8683,86.368 L23.3963,82.163 Z M89.8473,85.236 C93.7773,82.265 98.6663,80.5 103.9613,80.5 C109.3843,80.5 114.3813,82.356 118.3593,85.46 L107.5133,96.306 L107.5133,94.217 C108.7733,93.178 109.5073,91.637 109.5073,89.979 C109.5073,87.216 105.6003,83.474 104.8173,82.75 L104.0073,82.005 L103.1983,82.75 C102.4153,83.474 98.5063,87.216 98.5063,89.979 C98.5063,91.648 99.2483,93.193 100.5203,94.232 L100.5203,95.906 L89.8473,85.236 Z M168.1143,87.19 L184.6853,82.538 C184.8023,82.509 185.0783,82.442 185.2573,82.409 C186.1393,82.441 187.0053,82.545 187.8643,82.684 C186.1163,84.583 183.0733,86.343 178.8893,87.829 C175.9273,88.882 173.1743,89.519 171.8853,89.789 C170.9133,88.594 169.6083,87.679 168.1143,87.19 L168.1143,87.19 Z M173.1383,91.965 C177.0163,91.097 186.7543,88.463 190.4713,83.275 C192.0913,83.759 193.6403,84.442 195.0933,85.311 C188.9723,92.111 177.1953,93.545 173.6113,93.826 C173.5283,93.179 173.3653,92.556 173.1383,91.965 L173.1383,91.965 Z M149.3083,89.354 C150.8423,88.314 152.4713,86.434 154.1783,83.752 C155.2813,85.548 156.9763,86.768 158.8723,87.301 L147.1033,90.607 C147.8603,90.254 148.5993,89.835 149.3083,89.354 L149.3083,89.354 Z M19.0193,84.849 C20.0353,84.628 21.0693,84.459 22.1333,84.395 C22.2563,84.397 22.6563,84.454 22.7823,84.471 L39.9303,88.849 C38.0293,89.448 36.4363,90.739 35.4283,92.42 C31.2553,91.572 22.3623,89.012 19.0193,84.849 L19.0193,84.849 Z M48.8573,88.663 C50.5993,88.006 52.0483,86.779 52.9903,85.148 L53.2243,84.747 C55.4103,87.861 57.4243,89.95 59.2323,90.932 C59.8593,91.272 60.4963,91.552 61.1373,91.797 L48.8573,88.663 Z M102.9073,99.983 L102.9073,92.964 L102.3503,92.613 C101.4383,92.038 100.8943,91.053 100.8943,89.979 C100.8943,88.92 102.5423,86.812 104.0083,85.3 C105.4733,86.811 107.1213,88.917 107.1213,89.979 C107.1213,91.047 106.5813,92.029 105.6773,92.606 L105.1253,92.957 L105.1253,99.983 L112.1113,99.983 L112.4633,99.441 C113.0433,98.555 114.0173,98.027 115.0733,98.027 C116.1313,98.027 118.2383,99.675 119.7523,101.141 C118.2403,102.605 116.1333,104.253 115.0733,104.253 C113.8993,104.253 112.8363,103.602 112.2993,102.554 L111.9673,101.904 L105.1253,101.904 L105.1253,115.003 L105.6523,115.359 C106.5123,115.939 107.0253,116.905 107.0253,117.941 C107.0253,119 105.3753,121.108 103.9113,122.62 C102.4473,121.109 100.7993,119.003 100.7993,117.941 C100.7993,116.832 101.3683,115.832 102.3243,115.264 L102.9073,114.917 L102.9073,101.904 L95.9243,101.904 L95.5853,102.528 C95.0393,103.534 93.9893,104.157 92.8473,104.157 C91.7873,104.157 89.6803,102.509 88.1673,101.043 C89.6783,99.578 91.7853,97.932 92.8473,97.932 C93.9363,97.932 94.9293,98.485 95.5003,99.414 L95.8513,99.983 L102.9073,99.983 Z M12.0623,87.782 C13.4613,86.859 14.9663,86.093 16.5753,85.527 C20.1893,91.128 30.8213,93.865 34.5103,94.663 C34.3693,95.252 34.2853,95.86 34.2803,96.49 C31.6423,96.331 18.5443,95.173 12.0623,87.782 L12.0623,87.782 Z M175.7543,96.018 C177.4823,95.811 179.7793,95.449 182.3073,94.806 C188.8033,93.149 193.8593,90.336 197.0673,86.655 C197.7703,87.196 198.4563,87.77 199.0953,88.408 C200.0123,89.325 200.8223,90.317 201.5403,91.363 C193.1933,96.334 180.4333,97.033 177.5693,97.129 C177.0193,96.683 176.4093,96.308 175.7543,96.018 L175.7543,96.018 Z M80.5013,103.96 C80.5013,97.179 83.3953,91.064 88.0123,86.776 L98.8313,97.595 L97.1333,97.595 C96.0953,96.299 94.5383,95.543 92.8473,95.543 C90.0853,95.543 86.3423,99.452 85.6193,100.235 L84.8733,101.043 L85.6193,101.854 C86.3423,102.635 90.0853,106.544 92.8473,106.544 C94.6173,106.544 96.2613,105.696 97.2863,104.291 L98.8313,104.291 L85.1533,117.968 C82.2333,114.056 80.5013,109.207 80.5013,103.96 L80.5013,103.96 Z M120.1713,87.026 C124.6323,91.299 127.4203,97.308 127.4203,103.96 C127.4203,109.195 125.6953,114.035 122.7843,117.941 L109.1343,104.291 L110.5633,104.291 C111.5853,105.757 113.2523,106.64 115.0733,106.64 C117.8353,106.64 121.5783,102.733 122.3003,101.949 L123.0463,101.139 L122.3003,100.33 C121.5783,99.546 117.8353,95.64 115.0733,95.64 C113.4343,95.64 111.9063,96.36 110.8673,97.595 L109.6033,97.595 L120.1713,87.026 Z M126.9043,92.079 L133.0233,88.547 C134.6593,90.507 137.0993,91.713 139.9893,91.95 C140.8013,92.017 141.6223,92.002 142.4433,91.915 L128.4893,95.833 C128.0593,94.534 127.5273,93.28 126.9043,92.079 L126.9043,92.079 Z M74.6873,88.876 L80.8383,92.428 C80.2013,93.702 79.6613,95.035 79.2393,96.419 L64.4843,92.651 C65.0853,92.731 65.6803,92.769 66.2673,92.769 C69.7053,92.769 72.8223,91.42 74.6873,88.876 L74.6873,88.876 Z M161.5803,115.434 C160.5063,114.359 159.9123,112.929 159.9123,111.409 L159.8933,110.447 C160.7963,109.95 161.7223,109.417 162.7053,108.814 C166.6433,106.392 169.7313,104.041 169.8623,103.942 L170.8333,103.2 L169.8243,102.491 C169.6833,102.393 166.3323,100.051 162.1263,97.701 C161.3523,97.267 160.6073,96.869 159.8823,96.495 L159.9123,94.866 C159.9123,91.729 162.4663,89.175 165.6063,89.175 C168.7453,89.175 171.2993,91.729 171.2993,94.866 C171.2993,95.328 171.2413,95.79 171.1303,96.241 L170.7563,97.762 L172.4913,97.716 C175.6313,97.716 178.1853,100.27 178.1853,103.409 C178.1853,104.253 177.9893,105.048 177.6573,105.769 L177.6163,105.769 L177.6143,105.844 C176.8073,107.534 175.2033,108.75 173.2823,109.021 C173.2653,109.021 173.2413,109.019 173.2363,109.019 L173.2363,109.025 C172.9883,109.059 172.7433,109.101 172.4873,109.101 L172.4853,109.101 L170.9943,109.089 L171.2213,110.486 C171.2743,110.794 171.2993,111.104 171.2993,111.409 C171.2993,112.929 170.7073,114.359 169.6313,115.434 C168.5573,116.509 167.1263,117.1 165.6073,117.1 C164.0853,117.1 162.6573,116.509 161.5803,115.434 L161.5803,115.434 Z M5.9113,94.077 C7.0633,92.232 8.5013,90.588 10.1613,89.195 C13.3643,92.915 18.4463,95.759 24.9903,97.426 C26.9023,97.913 28.6823,98.239 30.1843,98.46 C29.7483,98.837 29.3523,99.258 29.0073,99.719 C25.1643,99.542 13.6903,98.634 5.9113,94.077 L5.9113,94.077 Z M159.4783,89.615 C158.2653,91.027 157.5263,92.86 157.5263,94.866 L157.5173,95.347 C153.9423,93.71 151.0663,92.906 148.9653,92.983 C148.0273,93.02 147.1183,93.141 146.2443,93.329 L159.4783,89.615 Z M36.7413,97.478 C36.6913,97.17 36.6653,96.859 36.6653,96.555 C36.6653,93.416 39.2183,90.862 42.3583,90.862 C45.4963,90.862 48.0493,93.416 48.0493,96.555 L48.0813,97.35 C47.1333,97.871 46.1513,98.432 45.1133,99.071 C41.1733,101.493 38.0853,103.845 37.9563,103.945 L36.9833,104.685 L37.9943,105.392 C38.1353,105.491 41.4853,107.834 45.6903,110.184 C46.5153,110.647 47.3063,111.066 48.0773,111.46 L48.0493,113.096 C48.0493,116.236 45.4963,118.788 42.3583,118.788 C39.2183,118.788 36.6653,116.236 36.6653,113.098 C36.6653,112.635 36.7213,112.173 36.8333,111.724 L37.2113,110.201 L35.4723,110.248 C32.3333,110.248 29.7793,107.694 29.7793,104.556 C29.7793,101.417 32.3333,98.863 35.4723,98.863 L35.4733,98.863 L36.9673,98.865 L36.7413,97.478 Z M48.1633,90.95 L60.0503,93.983 C59.2723,93.895 58.4783,93.86 57.6763,93.891 C55.7933,93.961 53.3563,94.722 50.4153,96.139 C50.3123,94.128 49.4773,92.31 48.1633,90.95 L48.1633,90.95 Z M179.5153,99.431 C184.3593,99.138 195.1123,97.98 202.7763,93.405 C204.1303,95.98 204.9053,98.825 205.0743,101.787 L180.4033,101.787 C180.2313,100.947 179.9283,100.155 179.5153,99.431 L179.5153,99.431 Z M129.1363,98.132 L144.5163,93.815 C140.1783,95.312 137.0903,98.677 136.7123,102.663 L129.7733,102.663 C129.6963,101.114 129.4763,99.601 129.1363,98.132 L129.1363,98.132 Z M142.4733,109.817 C140.4013,108.275 139.1913,106.166 139.0623,103.879 C138.7923,99.124 143.2933,95.146 149.0743,94.93 C153.5763,94.763 162.8933,100.352 167.2343,103.262 C163.1993,106.207 154.5443,111.88 150.0323,112.049 C149.8693,112.055 149.7053,112.058 149.5433,112.058 C146.9193,112.058 144.4253,111.271 142.4733,109.817 L142.4733,109.817 Z M66.9533,96.628 C66.0713,95.973 65.0963,95.436 64.0593,95.008 L78.6443,98.729 C78.3563,100.138 78.1863,101.587 78.1363,103.068 L71.0423,103.068 C70.6603,100.591 69.2373,98.329 66.9533,96.628 L66.9533,96.628 Z M40.5823,104.623 C44.6193,101.678 53.2743,96.004 57.7853,95.836 C60.5873,95.733 63.2723,96.525 65.3433,98.067 C67.4153,99.61 68.6263,101.717 68.7563,104.004 C69.0253,108.759 64.5233,112.74 58.7443,112.955 C58.6773,112.957 58.6093,112.958 58.5413,112.958 C53.9693,112.958 44.8603,107.489 40.5823,104.623 L40.5823,104.623 Z M4.7733,96.174 C12.4263,100.631 23.0123,101.766 27.7963,102.052 C27.6203,102.594 27.4923,103.159 27.4333,103.744 L2.8463,103.744 C3.0003,101.048 3.6743,98.494 4.7733,96.174 L4.7733,96.174 Z M180.1803,105.87 C180.3563,105.327 180.4793,104.763 180.5333,104.176 L205.0743,104.176 C204.9193,106.87 204.2453,109.424 203.1463,111.744 C195.5243,107.306 184.9913,106.165 180.1803,105.87 L180.1803,105.87 Z M129.2743,109.189 C129.5513,107.846 129.7203,106.462 129.7793,105.051 L136.8083,105.051 C137.2413,107.436 138.6513,109.611 140.8643,111.257 C141.7513,111.918 142.7353,112.459 143.7803,112.888 L129.2743,109.189 Z M58.8523,114.9 C65.3143,114.661 70.4653,110.595 71.0913,105.455 L78.1583,105.455 C78.2453,106.936 78.4573,108.383 78.7843,109.788 L75.8323,110.617 L48.5533,118.273 C49.7273,116.871 50.4383,115.066 50.4383,113.096 L50.4263,112.594 C53.7833,114.12 56.5183,114.906 58.5663,114.906 C58.6623,114.906 58.7583,114.905 58.8523,114.9 L58.8523,114.9 Z M86.6863,119.812 L100.5203,105.98 L100.5203,113.612 C99.2043,114.647 98.4113,116.248 98.4113,117.941 C98.4113,120.701 102.3203,124.446 103.1023,125.168 L103.9113,125.916 L104.7213,125.168 C105.5043,124.446 109.4123,120.701 109.4123,117.941 C109.4123,116.331 108.7143,114.821 107.5133,113.782 L107.5133,106.048 L121.2553,119.79 C116.9633,124.475 110.8003,127.419 103.9613,127.419 C97.1323,127.419 90.9763,124.484 86.6863,119.812 L86.6863,119.812 Z M2.8463,106.133 L27.5503,106.133 C27.7173,106.973 28.0173,107.764 28.4223,108.489 C23.5883,108.778 12.8183,109.936 5.1433,114.515 C3.7893,111.941 3.0143,109.095 2.8463,106.133 L2.8463,106.133 Z M182.9283,110.494 C181.0513,110.014 179.3013,109.693 177.8163,109.474 C178.2483,109.092 178.6443,108.67 178.9893,108.204 C182.9053,108.392 194.2873,109.321 202.0103,113.843 C200.8573,115.688 199.4183,117.332 197.7573,118.725 C194.5553,115.005 189.4723,112.163 182.9283,110.494 L182.9283,110.494 Z M8.8233,119.512 C7.9063,118.595 7.0973,117.601 6.3803,116.557 C14.7213,111.591 27.4693,110.888 30.3453,110.793 C30.8863,111.237 31.4853,111.614 32.1293,111.906 C30.4053,112.113 28.1243,112.475 25.6143,113.114 C19.1163,114.771 14.0613,117.586 10.8533,121.265 C10.1493,120.724 9.4613,120.15 8.8233,119.512 L8.8233,119.512 Z M173.4623,113.269 C173.6033,112.672 173.6833,112.06 173.6843,111.433 C176.4173,111.604 189.4163,112.799 195.8563,120.138 C194.4603,121.06 192.9503,121.828 191.3453,122.393 C187.7463,116.82 177.1983,114.081 173.4623,113.269 L173.4623,113.269 Z M127.0133,115.623 C127.6823,114.308 128.2433,112.934 128.6813,111.503 L144.5783,115.56 C140.1193,114.568 135.7533,115.771 133.2873,118.823 L127.0133,115.623 Z M150.1413,113.994 C152.0543,113.923 154.5383,113.136 157.5393,111.676 C157.6053,113.659 158.3773,115.515 159.7423,116.956 L147.7513,113.899 C148.3553,113.968 148.9653,114.005 149.5843,114.005 C149.7693,114.005 149.9543,114.002 150.1413,113.994 L150.1413,113.994 Z M73.6893,113.698 L79.4283,112.085 C79.8433,113.331 80.3483,114.534 80.9373,115.688 L74.4573,119.429 C72.9213,117.762 70.7553,116.677 68.1943,116.348 C66.4533,116.125 64.6513,116.259 62.8913,116.73 L73.6893,113.698 Z M12.8253,122.608 C18.9713,115.785 30.8063,114.366 34.3453,114.09 C34.4253,114.738 34.5833,115.36 34.8083,115.948 C30.9473,116.811 21.1743,119.443 17.4493,124.645 C15.8273,124.161 14.2803,123.478 12.8253,122.608 L12.8253,122.608 Z M185.2743,123.466 L168.1083,119.09 C169.3063,118.701 170.4043,118.036 171.3193,117.122 C171.8073,116.634 172.2173,116.091 172.5583,115.513 C176.7633,116.375 185.5773,118.932 188.8993,123.071 C187.8853,123.292 186.8503,123.46 185.7863,123.525 C185.7623,123.511 185.4563,123.514 185.2743,123.466 L185.2743,123.466 Z M148.3683,116.943 C147.3783,116.427 146.3673,116.043 145.3553,115.757 L159.2393,119.302 C157.4103,119.939 155.8843,121.19 154.9063,122.883 L154.6843,123.3 C152.3673,120.065 150.2473,117.921 148.3683,116.943 L148.3683,116.943 Z M49.1723,120.581 L62.5273,116.833 C61.2323,117.214 59.9653,117.775 58.7673,118.51 C57.1843,119.479 55.4653,121.287 53.6323,123.897 C52.5503,122.243 50.9523,121.109 49.1723,120.581 L49.1723,120.581 Z M139.8643,134.037 C137.3763,132.743 135.4343,130.725 134.3983,128.359 C133.3603,125.993 133.3513,123.561 134.3713,121.511 C136.4893,117.244 142.3673,116.014 147.4993,118.686 C151.4943,120.768 156.8253,130.235 159.1603,134.911 C156.7873,135.181 153.1863,135.47 149.6383,135.47 C145.7643,135.47 141.9513,135.125 139.8643,134.037 L139.8643,134.037 Z M124.2093,122.065 L123.2543,121.133 C124.2063,120.065 125.0693,118.917 125.8363,117.701 L132.0553,120.874 C131.0243,123.29 131.0903,126.085 132.2863,128.813 C132.7113,129.781 133.2693,130.695 133.9213,131.548 L124.2093,122.065 Z M75.8283,121.396 L82.1223,117.76 C82.9883,119.128 83.9793,120.408 85.0793,121.586 L73.1473,133.796 C76.6373,130.183 77.8053,125.288 75.8283,121.396 L75.8283,121.396 Z M20.0573,125.236 C21.8053,123.337 24.8463,121.576 29.0293,120.088 C32.0013,119.033 34.7593,118.396 36.0453,118.128 C37.0003,119.322 38.2853,120.238 39.7633,120.74 L23.0363,125.438 L23.0373,125.44 C22.9163,125.472 22.7753,125.502 22.6633,125.511 C21.7813,125.479 20.9143,125.375 20.0573,125.236 L20.0573,125.236 Z M49.1313,136.245 C51.2043,131.699 55.9653,122.511 59.8153,120.153 C62.2063,118.687 64.9333,118.062 67.4963,118.392 C70.0593,118.72 72.1483,119.964 73.3803,121.894 C75.9483,125.906 73.9773,131.581 69.0423,134.603 C66.5873,136.107 61.2643,136.526 56.3813,136.526 C53.6263,136.526 51.0113,136.392 49.1313,136.245 L49.1313,136.245 Z M152.4743,137.497 C157.0963,137.339 160.9443,136.825 161.1053,136.802 L162.3183,136.638 L161.7913,135.523 C161.7173,135.368 159.9643,131.676 157.4733,127.552 C157.0693,126.884 156.6713,126.248 156.2783,125.64 L156.9753,124.076 C157.7353,122.76 158.9613,121.818 160.4313,121.425 C161.9003,121.032 163.4333,121.232 164.7503,121.994 C166.0673,122.752 167.0093,123.98 167.4023,125.451 C167.7953,126.919 167.5933,128.452 166.8343,129.769 C166.6043,130.169 166.3223,130.541 166.0023,130.875 L164.9183,131.999 L166.4423,132.834 C167.7593,133.594 168.7013,134.822 169.0943,136.29 C169.4883,137.758 169.2873,139.292 168.5263,140.61 C168.1063,141.339 167.5403,141.926 166.8953,142.386 C166.8723,142.372 166.8503,142.36 166.8443,142.355 L166.7863,142.453 C165.2613,143.486 163.2983,143.738 161.5213,143.04 C161.4723,143.009 161.4373,142.988 161.4273,142.979 L161.4183,142.993 C161.1923,142.899 160.9643,142.815 160.7463,142.691 L159.4593,141.932 L158.9583,143.258 C158.8473,143.547 158.7153,143.83 158.5623,144.094 C157.8023,145.413 156.5743,146.354 155.1063,146.747 C153.6373,147.139 152.1033,146.938 150.7873,146.179 C149.4703,145.418 148.5283,144.19 148.1353,142.722 C147.7413,141.252 147.9443,139.72 148.7043,138.402 L149.2733,137.524 C149.6023,137.529 149.9333,137.532 150.2713,137.532 C150.9783,137.532 151.7083,137.521 152.4743,137.497 L152.4743,137.497 Z M169.8813,125.655 C169.8393,125.379 169.7813,125.104 169.7093,124.831 C169.3733,123.578 168.7503,122.451 167.9033,121.515 L184.6973,125.801 C184.8353,125.845 185.0263,125.907 185.1633,125.96 C185.9103,126.427 186.6063,126.951 187.2783,127.5 C185.9793,127.913 184.4793,128.079 182.9083,128.079 C177.7933,128.079 171.9333,126.325 169.8813,125.655 L169.8813,125.655 Z M39.9883,141.536 C39.5723,140.815 39.3403,140.026 39.2643,139.224 C39.2653,139.224 39.2673,139.22 39.2673,139.22 L39.2643,139.217 C39.2033,138.553 39.2433,137.879 39.4203,137.216 C39.7433,136.008 40.4533,134.979 41.4283,134.221 C41.4293,134.221 41.4343,134.218 41.4353,134.218 L41.4343,134.216 C41.6423,134.056 41.8453,133.891 42.0763,133.756 L43.3683,133.014 L42.4793,131.925 C42.2823,131.684 42.1053,131.429 41.9513,131.163 C41.1913,129.848 40.9893,128.314 41.3823,126.845 C41.7773,125.376 42.7173,124.148 44.0363,123.388 C46.7543,121.818 50.2413,122.752 51.8113,125.472 L52.1593,126.136 C51.5673,127.083 50.9673,128.084 50.3573,129.184 C48.1103,133.226 46.5713,136.79 46.5083,136.94 L46.0243,138.063 L47.2503,138.185 C47.4233,138.202 51.4913,138.602 56.3093,138.589 C57.3463,138.586 58.3173,138.557 59.2573,138.517 L60.0823,139.797 C61.6533,142.515 60.7173,146.005 57.9993,147.574 C56.6823,148.334 55.1483,148.536 53.6793,148.143 C52.2103,147.749 50.9833,146.807 50.2243,145.49 C49.9933,145.091 49.8093,144.662 49.6803,144.217 L49.2463,142.71 L47.7643,143.62 C46.8703,144.135 45.8923,144.379 44.9283,144.379 C42.9593,144.381 41.0413,143.36 39.9883,141.536 L39.9883,141.536 Z M118.0073,125.639 C119.2843,124.812 120.4793,123.874 121.5853,122.84 L133.2393,134.221 C129.7493,131.045 125.1793,129.945 121.4553,131.608 L118.0073,125.639 Z M20.8433,129.878 C21.6113,129.182 22.4233,128.519 23.3123,127.93 C23.3413,127.93 23.5793,127.782 23.7593,127.717 L40.8813,122.91 C40.0363,123.845 39.4133,124.972 39.0773,126.227 C38.8983,126.891 38.8173,127.567 38.8073,128.236 C36.7593,128.907 30.8993,130.661 25.7843,130.661 C23.9763,130.661 22.2633,130.441 20.8433,129.878 L20.8433,129.878 Z M86.7863,123.255 C87.8823,124.232 89.0623,125.114 90.3113,125.895 L86.3163,131.855 C84.1393,131.165 81.7023,131.306 79.3033,132.314 C78.0823,132.826 76.9393,133.542 75.8963,134.41 L86.7863,123.255 Z M115.4603,140.512 L112.0873,128.491 C113.4253,128.046 114.7163,127.496 115.9503,126.846 L119.4283,132.87 C117.5293,134.45 116.3263,136.797 116.0153,139.586 C115.9063,140.57 115.9243,141.568 116.0373,142.566 L115.4603,140.512 Z M88.4953,132.894 L92.3993,127.068 C93.6813,127.711 95.0243,128.255 96.4173,128.681 L92.5823,143.68 C93.2723,139.272 91.8033,135.078 88.4953,132.894 L88.4953,132.894 Z M169.3613,130.016 C169.6103,129.418 169.7863,128.798 169.8843,128.166 C172.4883,128.981 177.8723,130.449 182.8733,130.449 C185.1773,130.449 187.3953,130.133 189.2243,129.303 C190.3843,130.532 191.3843,131.899 192.2103,133.377 C190.2523,134.013 188.1823,134.271 186.1143,134.271 C178.9983,134.271 171.8893,131.221 169.3613,130.016 L169.3613,130.016 Z M105.3443,136.665 L105.3443,129.769 C106.8643,129.687 108.3463,129.468 109.7863,129.137 L114.1263,144.603 C112.6663,140.231 109.3253,137.093 105.3443,136.665 L105.3443,136.665 Z M98.7523,129.279 C100.1163,129.561 101.5213,129.726 102.9553,129.783 L102.9573,136.735 C100.5273,137.143 98.3113,138.564 96.6383,140.811 C96.0373,141.618 95.5403,142.509 95.1303,143.446 L98.7523,129.279 Z M39.1493,130.64 C39.3243,131.223 39.5613,131.791 39.8733,132.336 C37.4873,133.523 25.5713,139.046 16.2853,135.899 C17.0353,134.397 17.9573,132.979 19.0683,131.687 C20.9713,132.663 23.3423,133.03 25.8193,133.03 C31.0563,133.03 36.7043,131.421 39.1493,130.64 L39.1493,130.64 Z M171.1053,134.837 C170.8433,134.163 170.4973,133.537 170.0733,132.964 C171.6753,133.653 173.8583,134.494 176.3863,135.204 C179.8313,136.172 183.0893,136.656 186.0813,136.656 C188.6973,136.656 191.0903,136.264 193.2453,135.526 C193.5843,136.348 193.8913,137.187 194.1243,138.061 C194.4613,139.313 194.6663,140.577 194.7633,141.841 C194.6513,141.843 194.5373,141.844 194.4253,141.844 C184.7743,141.844 173.5693,136.155 171.1053,134.837 L171.1053,134.837 Z M119.9593,147.901 C118.4533,145.536 117.7833,142.818 118.0703,140.251 C118.3563,137.683 119.5643,135.573 121.4733,134.309 C125.4443,131.678 131.1513,133.553 134.2543,138.436 C136.6693,142.236 136.5463,153.103 136.2253,158.318 C131.6463,156.321 122.3813,151.711 119.9593,147.901 L119.9593,147.901 Z M73.9603,139.804 C75.2943,137.339 77.3423,135.43 79.7233,134.43 C82.1053,133.431 84.5373,133.461 86.5713,134.513 C90.8013,136.698 91.9413,142.598 89.1873,147.684 C87.0413,151.645 77.4893,156.826 72.7773,159.084 C72.2923,154.112 71.8103,143.774 73.9603,139.804 L73.9603,139.804 Z M62.1493,138.603 L61.9853,138.331 C65.6453,137.988 68.3763,137.296 70.0923,136.245 C71.1573,135.594 72.1033,134.838 72.9333,134.014 L63.0953,144.082 C63.4273,142.264 63.1423,140.325 62.1493,138.603 L62.1493,138.603 Z M136.9563,134.512 C137.5973,134.979 138.2753,135.407 138.9943,135.782 C140.6853,136.664 143.2163,137.209 146.5233,137.426 C145.5783,139.182 145.3163,141.188 145.7833,143.129 L136.9563,134.512 Z M135.8773,137.36 C135.2993,136.447 134.6393,135.633 133.9323,134.9 L144.0853,144.817 C142.2793,144.496 140.3553,144.783 138.6483,145.769 L138.1633,146.026 C137.7763,142.066 137.0153,139.149 135.8773,137.36 L135.8773,137.36 Z M32.3043,137.785 C34.1913,137.256 35.8863,136.651 37.2933,136.093 C37.2353,136.263 37.1603,136.424 37.1143,136.597 C37.0073,136.99 36.9423,137.384 36.8973,137.782 C33.4483,139.562 23.0903,144.487 14.1033,144.426 C14.1813,142.252 14.6043,140.108 15.3453,138.07 C17.5253,138.833 19.9533,139.237 22.6093,139.237 C25.6023,139.237 28.8593,138.753 32.3043,137.785 L32.3043,137.785 Z M73.7553,136.603 C73.1913,137.318 72.6753,138.086 72.2273,138.908 C71.3213,140.584 70.7363,143.106 70.4643,146.408 C68.7163,145.51 66.7343,145.276 64.8223,145.757 L73.7553,136.603 Z M171.2653,140.31 C171.5343,139.504 171.6683,138.668 171.6723,137.823 C175.9573,139.962 185.6133,144.232 194.4263,144.232 C194.5573,144.232 194.6853,144.226 194.8153,144.225 C194.7013,147.131 193.9483,149.985 192.6133,152.635 L171.2653,140.31 Z M95.8463,149.979 C95.7423,147.176 96.5343,144.492 98.0753,142.419 C99.6193,140.348 101.7283,139.135 104.0143,139.008 C108.7683,138.739 112.7503,143.238 112.9653,149.021 C113.1323,153.52 107.5423,162.84 104.6343,167.179 C101.6883,163.145 96.0153,154.488 95.8463,149.979 L95.8463,149.979 Z M37.0233,140.403 C37.1443,140.964 37.3253,141.513 37.5683,142.044 L16.2853,154.332 C15.0713,151.919 14.3783,149.37 14.1703,146.812 C14.2003,146.812 14.2323,146.815 14.2653,146.815 C23.0803,146.815 32.7413,142.54 37.0233,140.403 L37.0233,140.403 Z M174.6433,147.853 C172.4483,146.085 170.4523,144.686 169.0243,143.738 C169.4493,143.354 169.8413,142.924 170.1833,142.442 L191.4193,154.704 C189.9353,156.964 188.0723,158.841 185.9553,160.303 C183.6173,156.207 179.8283,152.027 174.6433,147.853 L174.6433,147.853 Z M17.4783,156.399 L38.8763,144.046 C39.4443,144.689 40.1043,145.223 40.8243,145.645 C39.3933,146.592 37.3633,148.012 35.1263,149.811 C29.8333,154.072 25.9983,158.341 23.6703,162.517 C21.2063,160.964 19.1093,158.884 17.4783,156.399 L17.4783,156.399 Z M169.0823,149.103 C167.6993,147.754 166.3533,146.606 165.1793,145.675 C165.7473,145.562 166.3023,145.392 166.8333,145.161 C170.1473,147.293 179.5093,153.773 183.9333,161.544 C182.0103,162.565 179.9433,163.269 177.8073,163.647 C176.8953,158.824 173.9143,153.819 169.0823,149.103 L169.0823,149.103 Z M170.4203,163.617 C170.0913,156.998 162.3483,149.367 159.5103,146.785 C159.9293,146.338 160.3073,145.845 160.6213,145.303 C162.9293,146.835 173.5513,154.346 175.4553,163.92 C175.0243,163.946 174.5913,163.958 174.1593,163.958 C172.9133,163.958 171.6633,163.85 170.4203,163.617 L170.4203,163.617 Z M114.9103,148.912 C114.8743,147.907 114.7343,146.941 114.5223,146.014 L118.2853,159.421 C116.8803,158.241 115.0713,157.528 113.0973,157.528 L112.5093,157.55 C114.1753,153.933 114.9893,151.03 114.9103,148.912 L114.9103,148.912 Z M85.1463,154.863 L84.6813,154.636 C87.8253,152.432 89.9303,150.402 90.9173,148.581 C91.3043,147.865 91.6243,147.136 91.8883,146.402 L88.6653,159.015 C88.0293,157.324 86.8293,155.834 85.1463,154.863 L85.1463,154.863 Z M29.3453,164.996 C28.0933,164.659 26.8963,164.207 25.7523,163.659 C30.5123,155.15 41.2753,148.144 43.6573,146.665 C44.3533,146.776 45.0633,146.797 45.7733,146.721 C44.3793,147.765 42.5623,149.232 40.6873,151.062 C35.8883,155.744 32.9173,160.711 31.9793,165.501 C31.0993,165.383 30.2193,165.23 29.3453,164.996 L29.3453,164.996 Z M117.2943,147.044 C117.5963,147.704 117.9363,148.353 118.3343,148.979 C119.3623,150.594 121.2953,152.344 124.0763,154.2 C122.3773,155.263 121.1513,156.884 120.5993,158.816 L117.2943,147.044 Z M138.1983,160.166 C138.2133,159.993 138.5403,155.919 138.4493,151.103 C138.4333,150.258 138.4043,149.446 138.3643,148.668 L139.8413,147.836 C142.5603,146.267 146.0493,147.203 147.6173,149.921 C148.3763,151.238 148.5793,152.772 148.1853,154.241 C147.7923,155.71 146.8513,156.937 145.5333,157.696 C145.1333,157.926 144.7043,158.11 144.2603,158.237 L142.7603,158.67 L143.6613,160.155 C144.4233,161.473 144.6253,163.007 144.2303,164.476 C143.8383,165.944 142.8953,167.172 141.5803,167.932 C140.8333,168.362 140.0293,168.586 139.2233,168.656 L139.2213,168.653 L139.2163,168.656 C137.0853,168.833 134.9403,167.817 133.8023,165.847 L133.0583,164.55 L131.9703,165.44 C131.7273,165.638 131.4723,165.815 131.2073,165.968 C129.8903,166.729 128.3563,166.931 126.8883,166.536 C125.4183,166.143 124.1913,165.202 123.4323,163.884 C122.6703,162.568 122.4693,161.034 122.8633,159.565 C123.2563,158.096 124.2003,156.869 125.5163,156.109 L126.4023,155.658 C127.2633,156.168 128.1623,156.684 129.1463,157.209 C133.2253,159.388 136.8143,160.867 136.9643,160.929 L138.0963,161.394 L138.1983,160.166 Z M34.3603,165.677 C36.2693,156.699 45.8073,149.551 48.7353,147.542 C49.1273,148.056 49.5733,148.517 50.0683,148.918 C47.1573,151.593 40.0073,158.761 39.3823,165.128 C37.8393,165.496 36.2643,165.68 34.6773,165.68 C34.5723,165.68 34.4663,165.679 34.3603,165.677 L34.3603,165.677 Z M67.4193,168.483 C66.1033,167.723 65.1613,166.495 64.7683,165.026 C64.3733,163.557 64.5773,162.023 65.3383,160.705 L66.1003,159.417 L64.7733,158.914 C64.4813,158.805 64.2003,158.671 63.9353,158.518 C61.2173,156.949 60.2833,153.462 61.8513,150.743 C62.6103,149.426 63.8393,148.484 65.3063,148.091 C66.7773,147.698 68.3113,147.9 69.6283,148.66 L70.3233,149.109 C70.2933,150.139 70.2793,151.209 70.2983,152.361 C70.3803,156.984 70.8363,160.839 70.8543,161.001 L70.9983,162.216 L72.1223,161.706 C72.2793,161.635 75.9983,159.94 80.1613,157.516 C80.9763,157.04 81.7353,156.576 82.4633,156.116 L83.9533,156.931 C86.6713,158.5 87.6063,161.989 86.0373,164.706 C85.2763,166.023 84.0493,166.965 82.5793,167.36 C81.1113,167.752 79.5773,167.551 78.2613,166.791 C77.8603,166.559 77.4883,166.278 77.1563,165.958 L76.0203,164.865 L75.1953,166.398 C74.1443,168.223 72.2253,169.244 70.2563,169.244 C69.2913,169.244 68.3143,169 67.4193,168.483 L67.4193,168.483 Z M93.9723,147.979 C93.9063,148.672 93.8743,149.376 93.9013,150.088 C93.9723,152.013 94.7693,154.516 96.2473,157.544 C94.1943,157.62 92.3353,158.462 90.9513,159.797 L93.9723,147.979 Z M155.7233,149.053 C156.3913,148.874 157.0193,148.608 157.6053,148.277 C160.8183,151.132 167.1583,157.743 167.9633,162.981 C166.9743,162.665 165.9953,162.293 165.0433,161.819 C165.0273,161.793 164.7763,161.678 164.6283,161.529 L151.9363,149.135 C152.4903,149.256 153.0513,149.332 153.6203,149.332 C154.3223,149.332 155.0283,149.24 155.7233,149.053 L155.7233,149.053 Z M47.1343,155.394 C49.1853,152.986 51.2633,151.05 52.2373,150.177 C52.5063,150.28 52.7793,150.373 53.0613,150.448 C53.7583,150.634 54.4643,150.726 55.1663,150.726 C55.7113,150.726 56.2483,150.655 56.7813,150.544 L44.7823,162.823 C44.7823,162.823 44.5053,163.128 44.3273,163.272 C43.5493,163.688 42.7483,164.029 41.9363,164.337 C42.4993,161.819 44.2533,158.773 47.1343,155.394 L47.1343,155.394 Z M155.3923,160.785 C153.0133,158.758 151.0923,156.703 150.2063,155.716 C150.3153,155.437 150.4143,155.153 150.4913,154.858 C150.8173,153.639 150.8483,152.388 150.6073,151.183 L162.8303,163.122 C162.8303,163.122 163.0943,163.391 163.2783,163.608 C163.6903,164.383 164.0273,165.18 164.3313,165.984 C161.8123,165.418 158.7703,163.664 155.3923,160.785 L155.3923,160.785 Z M46.0983,165.046 C46.1243,165.031 46.2363,164.776 46.4003,164.627 L58.8953,151.827 C58.4613,153.772 58.7803,155.796 59.7293,157.508 C56.9223,160.69 50.2213,167.161 44.9243,167.966 C45.2443,166.972 45.6233,165.994 46.0983,165.046 L46.0983,165.046 Z M147.5573,159.207 C148.0743,158.817 148.5373,158.371 148.9413,157.876 C151.6323,160.802 158.7643,167.9 165.1083,168.537 C165.4983,170.2 165.6843,171.883 165.6593,173.555 C156.7113,171.642 149.5873,162.161 147.5573,159.207 L147.5573,159.207 Z M44.2803,170.422 C50.9643,170.108 58.6953,162.202 61.2083,159.43 C61.6453,159.846 62.1313,160.222 62.6693,160.541 C61.2593,162.68 53.6673,173.555 43.9663,175.464 C43.8633,173.769 43.9633,172.077 44.2803,170.422 L44.2803,170.422 Z M90.8623,165.606 C90.8623,162.468 93.4173,159.914 96.5553,159.914 L97.4823,159.902 C97.9713,160.785 98.4933,161.692 99.0813,162.65 C101.5033,166.589 103.8553,169.677 103.9533,169.807 L104.6963,170.778 L105.4043,169.769 C105.5033,169.63 107.8423,166.278 110.1943,162.074 C110.6063,161.341 110.9883,160.629 111.3463,159.937 L113.0973,159.914 C116.2353,159.914 118.7893,162.468 118.7893,165.606 C118.7893,168.745 116.2353,171.299 113.0973,171.299 C112.6343,171.299 112.1723,171.243 111.7223,171.131 L110.2063,170.754 L110.2463,172.493 C110.2463,175.631 107.6943,178.185 104.5543,178.185 C103.6933,178.185 102.8833,177.977 102.1513,177.632 L102.1513,177.616 L102.1173,177.616 C100.2003,176.699 98.8633,174.754 98.8633,172.486 L98.8653,170.995 L97.4763,171.223 C97.1713,171.273 96.8613,171.299 96.5553,171.299 C93.4163,171.299 90.8623,168.745 90.8623,165.606 L90.8623,165.606 Z M146.6843,164.295 C146.7993,163.594 146.8273,162.89 146.7573,162.193 C147.7983,163.582 149.2523,165.378 151.0623,167.233 C155.7353,172.021 160.6913,174.992 165.4753,175.936 C165.1913,178.091 164.5773,180.191 163.6393,182.157 C155.1753,177.412 148.2053,166.736 146.6843,164.295 L146.6843,164.295 Z M44.6203,179.555 C44.4643,178.977 44.3393,178.397 44.2383,177.815 C49.0723,176.909 54.0893,173.927 58.8173,169.084 C60.2163,167.65 61.4023,166.251 62.3523,165.046 C62.3883,165.246 62.4073,165.447 62.4603,165.644 C62.5603,166.012 62.6923,166.366 62.8383,166.71 C60.7893,169.912 54.2393,179.461 46.3683,183.937 C45.6343,182.561 45.0343,181.1 44.6203,179.555 L44.6203,179.555 Z M127.9313,184.611 C127.9313,184.582 127.7673,184.318 127.6843,184.054 L122.8933,166.988 C123.8423,167.86 124.9903,168.499 126.2703,168.843 C126.9223,169.017 127.5833,169.099 128.2423,169.111 C129.5963,173.164 131.8083,182.113 129.8783,187.075 C129.1813,186.307 128.5183,185.497 127.9313,184.611 L127.9313,184.611 Z M144.0623,169.076 C144.7013,168.518 145.2403,167.862 145.6703,167.137 C146.6193,168.565 148.0293,170.578 149.8113,172.793 C154.0673,178.083 158.3333,181.916 162.5063,184.244 C160.9843,186.665 158.9203,188.782 156.3983,190.441 L144.0623,169.076 Z M82.2753,169.85 C82.5833,169.806 82.8913,169.747 83.1983,169.665 C84.3903,169.345 85.4633,168.765 86.3723,167.982 L82.1433,184.524 C82.1433,184.524 82.0433,184.943 81.9593,185.164 C81.4923,185.91 80.9673,186.606 80.4203,187.278 C78.6563,181.73 81.4103,172.489 82.2753,169.85 L82.2753,169.85 Z M84.3933,185.787 C84.4083,185.763 84.3803,185.517 84.4463,185.251 L88.8473,168.03 C89.4453,169.93 90.7343,171.524 92.4113,172.529 C91.5553,176.721 88.9973,185.57 84.8473,188.9 C84.6273,187.885 84.4603,186.851 84.3933,185.787 L84.3933,185.787 Z M131.6883,188.855 C134.7243,182.939 131.8023,172.404 130.6443,168.783 C131.2283,168.609 131.7993,168.374 132.3423,168.065 C133.5473,170.487 139.0403,182.37 135.8973,191.635 C134.3993,190.885 132.9813,189.964 131.6883,188.855 L131.6883,188.855 Z M120.0893,178.89 C119.0443,175.948 118.4103,173.214 118.1373,171.912 C119.3293,170.956 120.2443,169.67 120.7463,168.19 L125.3593,184.634 C125.3593,184.634 125.4763,185.075 125.5083,185.272 C125.4763,186.152 125.3703,187.012 125.2313,187.86 C123.3333,186.11 121.5763,183.071 120.0893,178.89 L120.0893,178.89 Z M47.6053,185.963 C51.7033,183.623 55.8903,179.833 60.0673,174.643 C61.8733,172.401 63.2953,170.366 64.2433,168.933 C64.6273,169.363 65.0533,169.755 65.5283,170.096 L53.2163,191.419 C50.9853,189.956 49.0933,188.108 47.6053,185.963 L47.6053,185.963 Z M77.9383,169.288 C78.5303,169.542 79.1463,169.72 79.7733,169.824 C78.5913,173.584 75.9723,183.387 78.6173,189.224 C77.3873,190.384 76.0223,191.384 74.5423,192.208 C71.6973,183.45 76.4213,172.454 77.9383,169.288 L77.9383,169.288 Z M73.0773,171.115 C73.7313,170.872 74.3533,170.542 74.9293,170.135 C74.2453,171.732 73.4173,173.891 72.7163,176.387 C70.9013,182.842 70.8093,188.627 72.3943,193.245 C71.5723,193.585 70.7333,193.891 69.8593,194.126 C68.6073,194.46 67.3433,194.667 66.0803,194.765 C65.9483,185.042 71.7343,173.63 73.0773,171.115 L73.0773,171.115 Z M140.3993,170.891 C140.9583,170.776 141.5083,170.599 142.0453,170.355 L154.3303,191.635 C151.9173,192.849 149.3703,193.542 146.8123,193.75 C146.8433,184.907 142.5453,175.19 140.3993,170.891 L140.3993,170.891 Z M138.0713,192.574 C139.6903,187.941 139.6133,182.118 137.7863,175.616 C137.2553,173.731 136.6563,172.039 136.0963,170.634 C136.6413,170.823 137.2053,170.95 137.7773,171.018 C139.5573,174.463 144.4813,184.823 144.4263,193.816 C142.2523,193.739 140.1093,193.316 138.0713,192.574 L138.0713,192.574 Z M55.2843,192.614 L67.6573,171.184 C68.4643,171.46 69.2943,171.61 70.1233,171.624 C67.9593,175.947 63.5613,185.867 63.6913,194.813 C60.7853,194.701 57.9333,193.948 55.2843,192.614 L55.2843,192.614 Z M114.0943,173.619 C114.7423,173.537 115.3643,173.378 115.9573,173.155 C116.8273,177.036 119.4573,186.738 124.6283,190.459 C124.1353,192.095 123.4533,193.644 122.5933,195.081 C115.8123,188.958 114.3783,177.207 114.0943,173.619 L114.0943,173.619 Z M85.5273,191.345 C91.1083,187.743 93.8433,177.176 94.6533,173.452 C95.2443,173.593 95.8553,173.677 96.4873,173.683 C96.3153,176.409 95.1223,189.415 87.7823,195.857 C86.8573,194.46 86.0913,192.952 85.5273,191.345 L85.5273,191.345 Z M110.7943,177.617 C111.2403,177.074 111.6163,176.473 111.9103,175.827 C112.1173,177.546 112.4803,179.814 113.1143,182.306 C114.7683,188.791 117.5753,193.842 121.2473,197.05 C119.9223,198.774 118.3403,200.288 116.5453,201.519 C111.6123,193.219 110.8963,180.573 110.7943,177.617 L110.7943,177.617 Z M89.1943,197.759 C92.9153,194.554 95.7573,189.474 97.4263,182.93 C97.9103,181.033 98.2333,179.268 98.4533,177.772 C98.8313,178.209 99.2533,178.607 99.7173,178.956 C99.5323,182.84 98.6113,194.266 94.0763,202.009 C92.2323,200.857 90.5873,199.419 89.1943,197.759 L89.1943,197.759 Z M106.1333,180.414 C106.9733,180.247 107.7653,179.945 108.4903,179.54 C108.7853,184.392 109.9443,195.114 114.5073,202.766 C111.9823,204.099 109.1403,204.9 106.1333,205.072 L106.1333,180.414 Z M96.1763,203.147 C100.6173,195.516 101.7583,184.971 102.0513,180.167 C102.5933,180.344 103.1573,180.472 103.7443,180.529 L103.7443,205.074 C101.0483,204.919 98.4963,204.245 96.1763,203.147 Z M108.8292,57.5894 C108.2362,58.2924 107.3432,59.2324 106.3592,59.8684 C104.5832,61.0124 103.9692,62.4374 103.7532,63.0334 C103.2472,64.4444 103.3502,66.4714 104.8672,67.0294 C106.3122,67.5604 107.4732,66.2944 108.1252,65.2734 C108.6652,64.4254 109.2772,62.7844 109.5302,60.8304 C109.6452,59.9444 109.6472,58.7574 109.6262,57.8734 C109.6182,57.6024 109.3962,57.4304 109.1692,57.4304 C109.0462,57.4304 108.9232,57.4784 108.8292,57.5894 Z M131.1739,66.7285 C130.2979,67.0095 129.0449,67.3355 127.8719,67.3565 C125.7599,67.3915 124.4889,68.2735 123.9879,68.6675 C122.8119,69.5975 121.8299,71.3735 122.8219,72.6475 C123.7689,73.8615 125.4229,73.4005 126.5159,72.8785 C127.4249,72.4445 128.8089,71.3745 130.0569,69.8495 C130.6219,69.1575 131.2499,68.1505 131.6989,67.3885 C131.8839,67.0745 131.6459,66.7045 131.3169,66.7045 C131.2709,66.7045 131.2219,66.7115 131.1739,66.7285 Z M139.228,83.4119 C137.759,83.7079 136.081,84.8489 136.389,86.4349 C136.684,87.9459 138.368,88.2809 139.577,88.3099 C140.584,88.3339 142.304,88.0069 144.106,87.2099 C144.924,86.8469 145.939,86.2339 146.684,85.7579 C147.033,85.5329 146.926,84.9949 146.514,84.9309 C145.605,84.7849 144.34,84.5109 143.284,83.9979 C142.143,83.4419 141.134,83.2979 140.374,83.2979 C139.87,83.2979 139.477,83.3619 139.228,83.4119 Z M140.8456,104.7733 C140.2766,106.2053 141.5136,107.3973 142.5176,108.0733 C143.3526,108.6353 144.9776,109.2873 146.9256,109.5873 C147.8086,109.7263 148.9936,109.7563 149.8786,109.7563 C150.2956,109.7563 150.4916,109.2433 150.1816,108.9693 C149.4946,108.3573 148.5766,107.4403 147.9646,106.4423 C146.8646,104.6403 145.4566,103.9903 144.8656,103.7593 C144.3596,103.5643 143.7726,103.4453 143.2006,103.4453 C142.1886,103.4453 141.2246,103.8143 140.8456,104.7733 Z M135.5333,123.3049 C134.3253,124.2629 134.8013,125.9119 135.3333,126.9979 C135.7763,127.9019 136.8583,129.2789 138.3933,130.5139 C139.0913,131.0739 140.1033,131.6929 140.8703,132.1329 C141.2313,132.3409 141.6573,131.9959 141.5273,131.6019 C141.2353,130.7309 140.8983,129.4789 140.8683,128.3079 C140.8153,126.1959 139.9203,124.9299 139.5223,124.4339 C138.8573,123.6079 137.7733,122.8849 136.7473,122.8849 C136.3213,122.8849 135.9053,123.0109 135.5333,123.3049 Z M121.5933,136.3072 C120.0763,136.5652 119.6983,138.2402 119.6403,139.4502 C119.5933,140.4542 119.8803,142.1812 120.6333,144.0012 C120.9753,144.8282 121.5643,145.8572 122.0233,146.6152 C122.2383,146.9702 122.7803,146.8742 122.8543,146.4642 C123.0193,145.5602 123.3263,144.2992 123.8633,143.2582 C124.8333,141.3812 124.6563,139.8432 124.5463,139.2172 C124.3053,137.8452 123.3403,136.2782 121.9293,136.2782 C121.8193,136.2782 121.7083,136.2872 121.5933,136.3072 Z M99.766,142.4146 C99.211,143.2536 98.575,144.8846 98.292,146.8366 C98.164,147.7206 98.144,148.9056 98.151,149.7906 C98.156,150.2076 98.671,150.4006 98.944,150.0876 C99.548,149.3926 100.453,148.4676 101.45,147.8466 C103.239,146.7286 103.877,145.3156 104.099,144.7206 C104.631,143.3186 104.558,141.2916 103.048,140.7096 C102.805,140.6146 102.569,140.5736 102.339,140.5736 C101.226,140.5736 100.318,141.5756 99.766,142.4146 Z M81.2344,135.3482 C80.3344,135.7992 78.9674,136.8932 77.7474,138.4392 C77.1954,139.1432 76.5834,140.1602 76.1494,140.9302 C75.9444,141.2932 76.2954,141.7162 76.6884,141.5812 C77.5564,141.2842 78.8064,140.9352 79.9784,140.8942 C82.0874,140.8212 83.3454,139.9142 83.8354,139.5132 C84.9964,138.5642 85.9454,136.7702 84.9294,135.5142 C84.4894,134.9672 83.9084,134.7722 83.3044,134.7722 C82.5814,134.7722 81.8244,135.0522 81.2344,135.3482 Z M63.8864,120.9135 C63.0554,121.2415 62.0154,121.8135 61.2524,122.2595 C60.8924,122.4705 60.9804,123.0125 61.3894,123.0925 C62.2904,123.2735 63.5434,123.6005 64.5784,124.1545 C66.4374,125.1545 67.9784,125.0045 68.6064,124.9055 C70.0884,124.6675 71.8114,123.5965 71.5664,121.9985 C71.3334,120.4785 69.6634,120.0735 68.4554,119.9955 C68.3584,119.9895 68.2544,119.9865 68.1454,119.9865 C67.1184,119.9865 65.5444,120.2595 63.8864,120.9135 Z M57.9096,98.326 C57.4936,98.329 57.2996,98.842 57.6106,99.117 C58.3016,99.723 59.2236,100.634 59.8416,101.631 C60.9516,103.427 62.3616,104.069 62.9546,104.297 C64.3556,104.831 66.3826,104.766 66.9696,103.262 C67.5296,101.827 66.2866,100.642 65.2796,99.97 C64.4416,99.411 62.8136,98.769 60.8656,98.478 C60.0386,98.355 58.9486,98.326 58.0876,98.326 L57.9096,98.326 Z M66.2353,76.7173 C66.5253,77.5903 66.8623,78.8433 66.8923,80.0143 C66.9433,82.1253 67.8373,83.3923 68.2373,83.8873 C69.1743,85.0553 70.9593,86.0233 72.2243,85.0193 C73.4323,84.0613 72.9573,82.4123 72.4263,81.3243 C71.9833,80.4193 70.9033,79.0433 69.3673,77.8083 C68.6693,77.2483 67.6583,76.6293 66.8923,76.1863 C66.8183,76.1433 66.7393,76.1243 66.6653,76.1243 C66.3783,76.1243 66.1323,76.4053 66.2353,76.7173 Z M84.9945,61.4617 C84.8305,62.3657 84.5225,63.6257 83.9855,64.6677 C83.0145,66.5437 83.1905,68.0817 83.3015,68.7087 C83.5605,70.1867 84.6585,71.8917 86.2525,71.6207 C87.7715,71.3627 88.1475,69.6877 88.2055,68.4777 C88.2535,67.4737 87.9685,65.7467 87.2155,63.9247 C86.8745,63.0977 86.2855,62.0687 85.8255,61.3117 C85.7365,61.1627 85.5875,61.0927 85.4405,61.0927 C85.2385,61.0927 85.0385,61.2247 84.9945,61.4617 Z" id="Fill-1" sketch:type="MSShapeGroup"></path>
        </g>
    </g>
</svg>