<?xml version="1.0" encoding="UTF-8" standalone="no"?>
<svg width="288px" height="250px" viewBox="0 0 288 250" version="1.1" xmlns="http://www.w3.org/2000/svg" xmlns:xlink="http://www.w3.org/1999/xlink" xmlns:sketch="http://www.bohemiancoding.com/sketch/ns">
    <!-- Generator: Sketch 3.3.2 (12043) - http://www.bohemiancoding.com/sketch -->
    <title>chart2</title>
    <desc>Created with Sketch.</desc>
    <defs></defs>
    <g id="Page-1" stroke="none" stroke-width="1" fill="none" fill-rule="evenodd" sketch:type="MSPage">
        <g id="chart2" sketch:type="MSArtboardGroup" fill="#FFFFFF">
            <g id="Group" sketch:type="MSLayerGroup" transform="translate(0.000000, 73.000000)">
                <path d="M14.4175135,122.006 L0.715135135,122.006 L0.715135135,176.573 L14.4175135,176.573 L14.4175135,122.006 Z" id="Fill-266" sketch:type="MSShapeGroup"></path>
                <path d="M33.8925405,112.721 L20.1901622,112.721 L20.1901622,176.574 L33.8925405,176.574 L33.8925405,112.721 Z" id="Fill-268" sketch:type="MSShapeGroup"></path>
                <path d="M53.3675676,100.421 L39.6651892,100.421 L39.6651892,176.574 L53.3675676,176.574 L53.3675676,100.421 Z" id="Fill-269" sketch:type="MSShapeGroup"></path>
                <path d="M72.8425946,93.047 L59.1402162,93.047 L59.1402162,176.573 L72.8425946,176.573 L72.8425946,93.047 Z" id="Fill-270" sketch:type="MSShapeGroup"></path>
                <path d="M92.3176216,63.298 L78.6152432,63.298 L78.6152432,176.574 L92.3176216,176.574 L92.3176216,63.298 Z" id="Fill-271" sketch:type="MSShapeGroup"></path>
                <path d="M111.792649,87.116 L98.0902703,87.116 L98.0902703,176.574 L111.792649,176.574 L111.792649,87.116 Z" id="Fill-272" sketch:type="MSShapeGroup"></path>
                <path d="M131.267676,72.608 L117.565297,72.608 L117.565297,176.573 L131.267676,176.573 L131.267676,72.608 Z" id="Fill-273" sketch:type="MSShapeGroup"></path>
                <path d="M150.742703,82.418 L137.040324,82.418 L137.040324,176.573 L150.742703,176.573 L150.742703,82.418 Z" id="Fill-274" sketch:type="MSShapeGroup"></path>
                <path d="M170.21773,75.285 L156.515351,75.285 L156.515351,176.574 L170.21773,176.574 L170.21773,75.285 Z" id="Fill-275" sketch:type="MSShapeGroup"></path>
                <path d="M189.692757,57.869 L175.990378,57.869 L175.990378,176.574 L189.692757,176.574 L189.692757,57.869 Z" id="Fill-276" sketch:type="MSShapeGroup"></path>
                <path d="M209.167784,77.721 L195.465405,77.721 L195.465405,176.574 L209.167784,176.574 L209.167784,77.721 Z" id="Fill-277" sketch:type="MSShapeGroup"></path>
                <path d="M228.642811,48.868 L214.940432,48.868 L214.940432,176.573 L228.642811,176.573 L228.642811,48.868 Z" id="Fill-278" sketch:type="MSShapeGroup"></path>
                <path d="M248.117838,17.993 L234.415459,17.993 L234.415459,176.574 L248.117838,176.574 L248.117838,17.993 Z" id="Fill-279" sketch:type="MSShapeGroup"></path>
                <path d="M267.592865,24.633 L253.890486,24.633 L253.890486,176.574 L267.592865,176.574 L267.592865,24.633 Z" id="Fill-280" sketch:type="MSShapeGroup"></path>
                <path d="M287.067892,0.092 L273.365514,0.092 L273.365514,176.574 L287.067892,176.574 L287.067892,0.092 Z" id="Fill-281" sketch:type="MSShapeGroup"></path>
            </g>
        </g>
    </g>
</svg>