<?xml version="1.0" encoding="UTF-8" standalone="no"?>
<svg width="288px" height="250px" viewBox="0 0 288 250" version="1.1" xmlns="http://www.w3.org/2000/svg" xmlns:xlink="http://www.w3.org/1999/xlink" xmlns:sketch="http://www.bohemiancoding.com/sketch/ns">
    <!-- Generator: Sketch 3.3 (11970) - http://www.bohemiancoding.com/sketch -->
    <title>chart1</title>
    <desc>Created with Sketch.</desc>
    <defs></defs>
    <g id="Page-1" stroke="none" stroke-width="1" fill="none" fill-rule="evenodd" sketch:type="MSPage">
        <g id="chart1" sketch:type="MSArtboardGroup">
            <path d="M77.367,165 C44.418,165 47.236,203.175 0,250.41 L77.367,250.41 L154.734,250.41 C107.498,203.175 110.316,165 77.367,165" id="Fill-122" fill="#EFEFEF" sketch:type="MSShapeGroup"></path>
            <path d="M154.869,250.22 C129.246,224.597 118.352,201.643 108.487,186 C100.89,208.786 91.054,229.166 77.071,243.149 L70,250.22 L77.502,250.22 L154.869,250.22 Z" id="Fill-124" fill="#D1D1D1" sketch:type="MSShapeGroup"></path>
            <path d="M185.95,19 C129.635,19 146.245,187.822 84,250.067 L185.95,250.067 L287.9,250.067 C225.655,187.822 241.205,19 185.95,19" id="Fill-126" fill="#FFFFFF" sketch:type="MSShapeGroup"></path>
            <text id="2015" sketch:type="MSTextLayer" font-family="GothamBold" font-size="17" font-weight="bold" fill="#FFFFFF">
                <tspan x="57" y="153">2015</tspan>
            </text>
            <text id="1.2-B" sketch:type="MSTextLayer" font-family="GothamBold" font-size="17" font-weight="bold" fill="#414042">
                <tspan x="55" y="219">1.2 B</tspan>
            </text>
            <text id="3-B" sketch:type="MSTextLayer" font-family="GothamBold" font-size="24" font-weight="bold" fill="#414042">
                <tspan x="165" y="158">3 B</tspan>
            </text>
            <text id="2050" sketch:type="MSTextLayer" font-family="GothamBold" font-size="17" font-weight="bold" fill="#FFFFFF">
                <tspan x="165" y="16">2050</tspan>
            </text>
        </g>
    </g>
</svg>